<mxfile host="app.diagrams.net" modified="2022-03-16T10:36:37.263Z" agent="5.0 (Windows NT 10.0; Win64; x64) AppleWebKit/537.36 (KHTML, like Gecko) Chrome/98.0.4758.102 Safari/537.36" etag="nhg1z19crTXO8LXPsVG8" version="16.6.2" type="github">
  <diagram id="i3dqL916s062MHXm5JMA" name="Page-1">
    <mxGraphModel dx="3558" dy="1320" grid="1" gridSize="10" guides="1" tooltips="1" connect="1" arrows="1" fold="1" page="1" pageScale="1" pageWidth="850" pageHeight="1100" math="0" shadow="0">
      <root>
        <mxCell id="0" />
        <mxCell id="1" parent="0" />
        <mxCell id="tPOuBQZp9NRRLLhWcbRF-1" value="Module: TRC&amp;nbsp;" style="rounded=0;whiteSpace=wrap;html=1;labelBackgroundColor=none;labelBorderColor=none;verticalAlign=top;fillColor=#fff2cc;strokeColor=#d6b656;" parent="1" vertex="1">
          <mxGeometry x="190" y="376.36" width="160" height="210" as="geometry" />
        </mxCell>
        <mxCell id="tPOuBQZp9NRRLLhWcbRF-2" value="Module: NW unit&amp;nbsp;" style="rounded=0;whiteSpace=wrap;html=1;labelBackgroundColor=none;labelBorderColor=none;verticalAlign=top;fillColor=#fff2cc;strokeColor=#d6b656;" parent="1" vertex="1">
          <mxGeometry x="-850" y="440" width="480" height="120" as="geometry" />
        </mxCell>
        <mxCell id="tPOuBQZp9NRRLLhWcbRF-3" value="Module: NW Bridge panel" style="rounded=0;whiteSpace=wrap;html=1;labelBackgroundColor=none;labelBorderColor=none;verticalAlign=top;fillColor=#fff2cc;strokeColor=#d6b656;" parent="1" vertex="1">
          <mxGeometry x="-530" y="280" width="160" height="120" as="geometry" />
        </mxCell>
        <mxCell id="tPOuBQZp9NRRLLhWcbRF-4" value="Module: NW Deck panel" style="rounded=0;whiteSpace=wrap;html=1;labelBackgroundColor=none;labelBorderColor=none;verticalAlign=top;fillColor=#fff2cc;strokeColor=#d6b656;" parent="1" vertex="1">
          <mxGeometry x="-530" y="120" width="160" height="120" as="geometry" />
        </mxCell>
        <mxCell id="tPOuBQZp9NRRLLhWcbRF-5" value="HMI panel for&lt;br&gt;logging and read raw values, overview and other drive modes selections&lt;br&gt;&lt;br&gt;NW control&lt;br&gt;&lt;br&gt;Radio control&lt;br&gt;&lt;br&gt;Calibration&lt;br&gt;&lt;br&gt;Auto twist&lt;br&gt;calculations&lt;br&gt;&lt;br&gt;Auto tilt&lt;br&gt;calculations&lt;br&gt;&lt;br&gt;sensor value overview&lt;br&gt;and criteria/confirmations handling" style="rounded=1;whiteSpace=wrap;html=1;" parent="1" vertex="1">
          <mxGeometry x="-170" y="120" width="140" height="920" as="geometry" />
        </mxCell>
        <mxCell id="tPOuBQZp9NRRLLhWcbRF-6" value="&lt;font color=&quot;#ff3333&quot;&gt;Emrg.stop NW/netbin&lt;/font&gt;" style="endArrow=classic;html=1;rounded=0;exitX=1;exitY=0.122;exitDx=0;exitDy=0;entryX=0;entryY=0.5;entryDx=0;entryDy=0;exitPerimeter=0;" parent="1" target="tPOuBQZp9NRRLLhWcbRF-8" edge="1">
          <mxGeometry width="50" height="50" relative="1" as="geometry">
            <mxPoint x="-30" y="152.24" as="sourcePoint" />
            <mxPoint x="10" y="450" as="targetPoint" />
            <Array as="points" />
          </mxGeometry>
        </mxCell>
        <mxCell id="tPOuBQZp9NRRLLhWcbRF-7" value="NW in emrg drive, only operational from bridge panel" style="rounded=1;whiteSpace=wrap;html=1;" parent="1" vertex="1">
          <mxGeometry x="-680" y="480" width="120" height="70" as="geometry" />
        </mxCell>
        <mxCell id="tPOuBQZp9NRRLLhWcbRF-8" value="Stop all cranes and NW. event logged" style="rounded=1;whiteSpace=wrap;html=1;" parent="1" vertex="1">
          <mxGeometry x="130" y="120" width="120" height="60" as="geometry" />
        </mxCell>
        <mxCell id="tPOuBQZp9NRRLLhWcbRF-9" value="&lt;font color=&quot;#ff3333&quot;&gt;Emrg drive NW&lt;br&gt;toggled by HMI&lt;/font&gt;" style="endArrow=classic;startArrow=classic;html=1;rounded=0;exitX=0;exitY=0.5;exitDx=0;exitDy=0;entryX=0.75;entryY=1;entryDx=0;entryDy=0;" parent="1" source="tPOuBQZp9NRRLLhWcbRF-5" target="tPOuBQZp9NRRLLhWcbRF-7" edge="1">
          <mxGeometry width="50" height="50" relative="1" as="geometry">
            <mxPoint x="-130" y="99.55999999999995" as="sourcePoint" />
            <mxPoint x="-620" y="550" as="targetPoint" />
            <Array as="points">
              <mxPoint x="-590" y="580" />
            </Array>
          </mxGeometry>
        </mxCell>
        <mxCell id="tPOuBQZp9NRRLLhWcbRF-10" value="" style="endArrow=none;dashed=1;html=1;dashPattern=1 3;strokeWidth=2;rounded=0;exitX=0;exitY=0.5;exitDx=0;exitDy=0;" parent="1" source="tPOuBQZp9NRRLLhWcbRF-7" target="tPOuBQZp9NRRLLhWcbRF-11" edge="1">
          <mxGeometry width="50" height="50" relative="1" as="geometry">
            <mxPoint x="210" y="390" as="sourcePoint" />
            <mxPoint x="200" y="460" as="targetPoint" />
          </mxGeometry>
        </mxCell>
        <mxCell id="tPOuBQZp9NRRLLhWcbRF-11" value="Optional hardware bypass komponents to drive NW directly from raw panel signals down to the valves" style="rounded=1;whiteSpace=wrap;html=1;" parent="1" vertex="1">
          <mxGeometry x="-830" y="480" width="130" height="70" as="geometry" />
        </mxCell>
        <mxCell id="tPOuBQZp9NRRLLhWcbRF-12" value="Tilt in/out&lt;br&gt;Speed&lt;br&gt;Tension&lt;br&gt;Direction" style="rounded=1;whiteSpace=wrap;html=1;" parent="1" vertex="1">
          <mxGeometry x="-540" y="475" width="120" height="80" as="geometry" />
        </mxCell>
        <mxCell id="tPOuBQZp9NRRLLhWcbRF-13" value="Tilt in/out&lt;br&gt;Net in/stop/out&lt;br&gt;Speed&lt;br&gt;Tension&lt;br&gt;Emrg.NW stopp" style="rounded=1;whiteSpace=wrap;html=1;" parent="1" vertex="1">
          <mxGeometry x="-510" y="300" width="120" height="100" as="geometry" />
        </mxCell>
        <mxCell id="tPOuBQZp9NRRLLhWcbRF-14" value="Tilt in/out&lt;br&gt;Net in/stop/out&lt;br&gt;Speed&lt;br&gt;Tension&lt;br&gt;Emrg.NW stopp" style="rounded=1;whiteSpace=wrap;html=1;" parent="1" vertex="1">
          <mxGeometry x="-510" y="150" width="120" height="90" as="geometry" />
        </mxCell>
        <mxCell id="tPOuBQZp9NRRLLhWcbRF-15" value="HPU, starters/drive OK or operational&lt;br&gt;request drive and driving confirmation" style="rounded=1;whiteSpace=wrap;html=1;" parent="1" vertex="1">
          <mxGeometry x="130" y="210" width="120" height="60" as="geometry" />
        </mxCell>
        <mxCell id="tPOuBQZp9NRRLLhWcbRF-16" value="Check for all module is online.(supply and etherCAT com ok)&lt;br&gt;&amp;nbsp;HPU, Starters/drive OK or operational.&lt;br&gt;Local emrgstop only stop the applicable crane&lt;br&gt;NW bridge/deck panels and net bin emrgstop stops the entire facility." style="rounded=0;whiteSpace=wrap;html=1;" parent="1" vertex="1">
          <mxGeometry x="-530" width="400" height="80" as="geometry" />
        </mxCell>
        <mxCell id="tPOuBQZp9NRRLLhWcbRF-17" value="NW command signals" style="endArrow=classic;html=1;rounded=0;fontColor=#FF3333;exitX=1;exitY=0.5;exitDx=0;exitDy=0;entryX=0;entryY=0.25;entryDx=0;entryDy=0;" parent="1" source="tPOuBQZp9NRRLLhWcbRF-13" target="tPOuBQZp9NRRLLhWcbRF-5" edge="1">
          <mxGeometry width="50" height="50" relative="1" as="geometry">
            <mxPoint x="-310" y="370" as="sourcePoint" />
            <mxPoint x="-220" y="320" as="targetPoint" />
          </mxGeometry>
        </mxCell>
        <mxCell id="tPOuBQZp9NRRLLhWcbRF-18" value="NW command signals" style="endArrow=classic;html=1;rounded=0;fontColor=#FF3333;exitX=1;exitY=0.5;exitDx=0;exitDy=0;entryX=0.007;entryY=0.077;entryDx=0;entryDy=0;entryPerimeter=0;" parent="1" source="tPOuBQZp9NRRLLhWcbRF-14" target="tPOuBQZp9NRRLLhWcbRF-5" edge="1">
          <mxGeometry width="50" height="50" relative="1" as="geometry">
            <mxPoint x="-290" y="205" as="sourcePoint" />
            <mxPoint x="-240" y="155" as="targetPoint" />
          </mxGeometry>
        </mxCell>
        <mxCell id="tPOuBQZp9NRRLLhWcbRF-19" value="NW Drive signals" style="endArrow=classic;html=1;rounded=0;fontColor=#FF3333;exitX=0;exitY=0.435;exitDx=0;exitDy=0;entryX=1;entryY=0.5;entryDx=0;entryDy=0;exitPerimeter=0;" parent="1" source="tPOuBQZp9NRRLLhWcbRF-5" target="tPOuBQZp9NRRLLhWcbRF-12" edge="1">
          <mxGeometry width="50" height="50" relative="1" as="geometry">
            <mxPoint x="-435" y="640" as="sourcePoint" />
            <mxPoint x="-225" y="640" as="targetPoint" />
          </mxGeometry>
        </mxCell>
        <mxCell id="tPOuBQZp9NRRLLhWcbRF-20" value="Feedback (speed, tension))" style="endArrow=classic;html=1;rounded=0;fontColor=#FF3333;exitX=1;exitY=0.25;exitDx=0;exitDy=0;entryX=0;entryY=0.412;entryDx=0;entryDy=0;entryPerimeter=0;" parent="1" source="tPOuBQZp9NRRLLhWcbRF-12" target="tPOuBQZp9NRRLLhWcbRF-5" edge="1">
          <mxGeometry width="50" height="50" relative="1" as="geometry">
            <mxPoint x="-290" y="500" as="sourcePoint" />
            <mxPoint x="-240" y="450" as="targetPoint" />
          </mxGeometry>
        </mxCell>
        <mxCell id="tPOuBQZp9NRRLLhWcbRF-21" value="Emrg reset" style="endArrow=classic;html=1;rounded=0;fontColor=#FF3333;exitX=0;exitY=0.75;exitDx=0;exitDy=0;entryX=1.007;entryY=0.139;entryDx=0;entryDy=0;entryPerimeter=0;" parent="1" source="tPOuBQZp9NRRLLhWcbRF-8" edge="1">
          <mxGeometry width="50" height="50" relative="1" as="geometry">
            <mxPoint x="390" y="450" as="sourcePoint" />
            <mxPoint x="-29.019999999999982" y="167.8800000000001" as="targetPoint" />
          </mxGeometry>
        </mxCell>
        <mxCell id="tPOuBQZp9NRRLLhWcbRF-22" value="general criterias&lt;br&gt;for driving any items" style="endArrow=classic;startArrow=classic;html=1;rounded=0;fontColor=#FF3333;exitX=1.007;exitY=0.221;exitDx=0;exitDy=0;exitPerimeter=0;entryX=0;entryY=0.5;entryDx=0;entryDy=0;" parent="1" target="tPOuBQZp9NRRLLhWcbRF-15" edge="1">
          <mxGeometry width="50" height="50" relative="1" as="geometry">
            <mxPoint x="-29.019999999999982" y="243.31999999999994" as="sourcePoint" />
            <mxPoint x="180" y="310" as="targetPoint" />
          </mxGeometry>
        </mxCell>
        <mxCell id="tPOuBQZp9NRRLLhWcbRF-23" value="Module: FLH&amp;nbsp;" style="rounded=0;whiteSpace=wrap;html=1;labelBackgroundColor=none;labelBorderColor=none;verticalAlign=top;fillColor=#fff2cc;strokeColor=#d6b656;" parent="1" vertex="1">
          <mxGeometry x="-530" y="600" width="160" height="330" as="geometry" />
        </mxCell>
        <mxCell id="tPOuBQZp9NRRLLhWcbRF-24" value="&lt;font color=&quot;#000000&quot;&gt;Drive crane by valves&lt;/font&gt;" style="rounded=1;whiteSpace=wrap;html=1;labelBackgroundColor=none;labelBorderColor=none;fontColor=#FF3333;" parent="1" vertex="1">
          <mxGeometry x="-510" y="640" width="120" height="60" as="geometry" />
        </mxCell>
        <mxCell id="tPOuBQZp9NRRLLhWcbRF-25" value="" style="endArrow=classic;html=1;rounded=0;fontColor=#FF3333;entryX=1;entryY=0.5;entryDx=0;entryDy=0;exitX=-0.021;exitY=0.62;exitDx=0;exitDy=0;exitPerimeter=0;" parent="1" source="tPOuBQZp9NRRLLhWcbRF-5" target="tPOuBQZp9NRRLLhWcbRF-24" edge="1">
          <mxGeometry width="50" height="50" relative="1" as="geometry">
            <mxPoint x="-310" y="660" as="sourcePoint" />
            <mxPoint x="-260" y="610" as="targetPoint" />
          </mxGeometry>
        </mxCell>
        <mxCell id="tPOuBQZp9NRRLLhWcbRF-26" value="Switch on crane is on Manuel&amp;nbsp;mode&lt;br&gt;general start criteria for anyitem&lt;br&gt;emrg.stop local or facility ok" style="edgeLabel;html=1;align=center;verticalAlign=middle;resizable=0;points=[];fontColor=#FF3333;" parent="tPOuBQZp9NRRLLhWcbRF-25" vertex="1" connectable="0">
          <mxGeometry x="-0.2108" relative="1" as="geometry">
            <mxPoint x="-12" as="offset" />
          </mxGeometry>
        </mxCell>
        <mxCell id="tPOuBQZp9NRRLLhWcbRF-27" value="&lt;font color=&quot;#ff3333&quot;&gt;Crane active&lt;br&gt;&lt;/font&gt;" style="endArrow=classic;html=1;rounded=0;fontColor=#000000;exitX=1;exitY=0.25;exitDx=0;exitDy=0;entryX=0;entryY=0.523;entryDx=0;entryDy=0;entryPerimeter=0;" parent="1" source="tPOuBQZp9NRRLLhWcbRF-24" target="tPOuBQZp9NRRLLhWcbRF-5" edge="1">
          <mxGeometry width="50" height="50" relative="1" as="geometry">
            <mxPoint x="390" y="510" as="sourcePoint" />
            <mxPoint x="440" y="460" as="targetPoint" />
          </mxGeometry>
        </mxCell>
        <mxCell id="tPOuBQZp9NRRLLhWcbRF-28" value="&lt;font color=&quot;#000000&quot;&gt;Drive crane by radio&lt;br&gt;(valves still accessible)&lt;br&gt;&lt;/font&gt;" style="rounded=1;whiteSpace=wrap;html=1;labelBackgroundColor=none;labelBorderColor=none;fontColor=#FF3333;" parent="1" vertex="1">
          <mxGeometry x="-510" y="730" width="120" height="60" as="geometry" />
        </mxCell>
        <mxCell id="tPOuBQZp9NRRLLhWcbRF-29" value="&lt;span style=&quot;color: rgb(255 , 51 , 51) ; font-family: &amp;#34;helvetica&amp;#34; ; font-size: 11px ; font-style: normal ; font-weight: 400 ; letter-spacing: normal ; text-align: center ; text-indent: 0px ; text-transform: none ; word-spacing: 0px ; background-color: rgb(255 , 255 , 255) ; display: inline ; float: none&quot;&gt;Switch on crane is on Radio mode&lt;/span&gt;&lt;br style=&quot;color: rgb(255 , 51 , 51) ; font-family: &amp;#34;helvetica&amp;#34; ; font-size: 11px ; font-style: normal ; font-weight: 400 ; letter-spacing: normal ; text-align: center ; text-indent: 0px ; text-transform: none ; word-spacing: 0px&quot;&gt;&lt;span style=&quot;color: rgb(255 , 51 , 51) ; font-family: &amp;#34;helvetica&amp;#34; ; font-size: 11px ; font-style: normal ; font-weight: 400 ; letter-spacing: normal ; text-align: center ; text-indent: 0px ; text-transform: none ; word-spacing: 0px ; background-color: rgb(255 , 255 , 255) ; display: inline ; float: none&quot;&gt;general start criteria for anyitem&lt;/span&gt;&lt;br style=&quot;color: rgb(255 , 51 , 51) ; font-family: &amp;#34;helvetica&amp;#34; ; font-size: 11px ; font-style: normal ; font-weight: 400 ; letter-spacing: normal ; text-align: center ; text-indent: 0px ; text-transform: none ; word-spacing: 0px&quot;&gt;&lt;span style=&quot;color: rgb(255 , 51 , 51) ; font-family: &amp;#34;helvetica&amp;#34; ; font-size: 11px ; font-style: normal ; font-weight: 400 ; letter-spacing: normal ; text-align: center ; text-indent: 0px ; text-transform: none ; word-spacing: 0px ; background-color: rgb(255 , 255 , 255) ; display: inline ; float: none&quot;&gt;emrg.stop local or facility ok&lt;br&gt;&lt;/span&gt;Radio control drive signals" style="endArrow=classic;html=1;rounded=0;fontColor=#FF3333;entryX=1;entryY=0.5;entryDx=0;entryDy=0;exitX=-0.029;exitY=0.743;exitDx=0;exitDy=0;exitPerimeter=0;" parent="1" source="tPOuBQZp9NRRLLhWcbRF-5" target="tPOuBQZp9NRRLLhWcbRF-28" edge="1">
          <mxGeometry width="50" height="50" relative="1" as="geometry">
            <mxPoint x="-200" y="750" as="sourcePoint" />
            <mxPoint x="440" y="440" as="targetPoint" />
          </mxGeometry>
        </mxCell>
        <mxCell id="tPOuBQZp9NRRLLhWcbRF-30" value="&lt;font color=&quot;#ff3333&quot;&gt;Crane active&amp;nbsp;&lt;br&gt;&lt;/font&gt;&lt;span style=&quot;color: rgb(255 , 51 , 51)&quot;&gt;Radio on canopen and&lt;/span&gt;&lt;font color=&quot;#ff3333&quot;&gt;&amp;nbsp;PDO&lt;br&gt;&lt;/font&gt;" style="endArrow=classic;html=1;rounded=0;fontColor=#000000;exitX=1;exitY=0.25;exitDx=0;exitDy=0;entryX=-0.007;entryY=0.653;entryDx=0;entryDy=0;entryPerimeter=0;" parent="1" source="tPOuBQZp9NRRLLhWcbRF-28" target="tPOuBQZp9NRRLLhWcbRF-5" edge="1">
          <mxGeometry width="50" height="50" relative="1" as="geometry">
            <mxPoint x="390" y="480" as="sourcePoint" />
            <mxPoint x="440" y="430" as="targetPoint" />
          </mxGeometry>
        </mxCell>
        <mxCell id="tPOuBQZp9NRRLLhWcbRF-31" value="&lt;font color=&quot;#000000&quot;&gt;Auto twist mode&lt;br&gt;&lt;br&gt;&lt;/font&gt;" style="rounded=1;whiteSpace=wrap;html=1;labelBackgroundColor=none;labelBorderColor=none;fontColor=#FF3333;" parent="1" vertex="1">
          <mxGeometry x="-510" y="860" width="120" height="60" as="geometry" />
        </mxCell>
        <mxCell id="tPOuBQZp9NRRLLhWcbRF-32" value="Auto twist button on radio panel&lt;br&gt;Sensors ok for both FLH and NHC" style="endArrow=classic;html=1;rounded=0;fontColor=#FF3333;exitX=0.5;exitY=1;exitDx=0;exitDy=0;entryX=0.5;entryY=0;entryDx=0;entryDy=0;" parent="1" source="tPOuBQZp9NRRLLhWcbRF-28" target="tPOuBQZp9NRRLLhWcbRF-31" edge="1">
          <mxGeometry width="50" height="50" relative="1" as="geometry">
            <mxPoint x="390" y="570" as="sourcePoint" />
            <mxPoint x="440" y="520" as="targetPoint" />
          </mxGeometry>
        </mxCell>
        <mxCell id="tPOuBQZp9NRRLLhWcbRF-33" value="&lt;font color=&quot;#000000&quot;&gt;Auto twist mode for FLH:&lt;br&gt;FLH roller head twist and are aiming after NHC roller head. This happens when NHC or FLH roller heads change positions and not by orientations&lt;br&gt;&lt;/font&gt;" style="rounded=0;whiteSpace=wrap;html=1;labelBackgroundColor=none;labelBorderColor=none;fontColor=#FF3333;" parent="1" vertex="1">
          <mxGeometry x="-530" y="930" width="160" height="100" as="geometry" />
        </mxCell>
        <mxCell id="tPOuBQZp9NRRLLhWcbRF-34" value="&lt;font color=&quot;#ff3333&quot;&gt;Crane active&lt;br&gt;Auto twist mode / calculation drive&lt;br&gt;Radio on canopen and PDO&lt;br&gt;&lt;/font&gt;" style="endArrow=classic;html=1;rounded=0;fontColor=#000000;exitX=1;exitY=0.25;exitDx=0;exitDy=0;entryX=-0.007;entryY=0.816;entryDx=0;entryDy=0;entryPerimeter=0;" parent="1" source="tPOuBQZp9NRRLLhWcbRF-31" target="tPOuBQZp9NRRLLhWcbRF-5" edge="1">
          <mxGeometry width="50" height="50" relative="1" as="geometry">
            <mxPoint x="-290" y="910" as="sourcePoint" />
            <mxPoint x="-240" y="860" as="targetPoint" />
          </mxGeometry>
        </mxCell>
        <mxCell id="tPOuBQZp9NRRLLhWcbRF-35" value="Module: NHC&amp;nbsp;" style="rounded=0;whiteSpace=wrap;html=1;labelBackgroundColor=none;labelBorderColor=none;verticalAlign=top;fillColor=#fff2cc;strokeColor=#d6b656;" parent="1" vertex="1">
          <mxGeometry x="190" y="600" width="160" height="310" as="geometry" />
        </mxCell>
        <mxCell id="tPOuBQZp9NRRLLhWcbRF-36" value="&lt;font color=&quot;#000000&quot;&gt;Drive crane by valves&lt;/font&gt;" style="rounded=1;whiteSpace=wrap;html=1;labelBackgroundColor=none;labelBorderColor=none;fontColor=#FF3333;" parent="1" vertex="1">
          <mxGeometry x="204.01999999999998" y="640" width="120" height="60" as="geometry" />
        </mxCell>
        <mxCell id="tPOuBQZp9NRRLLhWcbRF-37" value="&lt;font color=&quot;#ff3333&quot;&gt;Crane active&lt;br&gt;&lt;/font&gt;" style="endArrow=classic;html=1;rounded=0;fontColor=#000000;exitX=0;exitY=0.25;exitDx=0;exitDy=0;entryX=0.993;entryY=0.526;entryDx=0;entryDy=0;entryPerimeter=0;" parent="1" source="tPOuBQZp9NRRLLhWcbRF-36" target="tPOuBQZp9NRRLLhWcbRF-5" edge="1">
          <mxGeometry width="50" height="50" relative="1" as="geometry">
            <mxPoint x="79.01999999999998" y="573.84" as="sourcePoint" />
            <mxPoint x="40" y="602.0799999999999" as="targetPoint" />
          </mxGeometry>
        </mxCell>
        <mxCell id="tPOuBQZp9NRRLLhWcbRF-38" value="" style="endArrow=classic;html=1;rounded=0;fontColor=#FF3333;entryX=0;entryY=0.5;entryDx=0;entryDy=0;exitX=1.014;exitY=0.617;exitDx=0;exitDy=0;exitPerimeter=0;" parent="1" source="tPOuBQZp9NRRLLhWcbRF-5" target="tPOuBQZp9NRRLLhWcbRF-36" edge="1">
          <mxGeometry width="50" height="50" relative="1" as="geometry">
            <mxPoint x="51.960000000000036" y="680.28" as="sourcePoint" />
            <mxPoint x="90" y="740" as="targetPoint" />
          </mxGeometry>
        </mxCell>
        <mxCell id="tPOuBQZp9NRRLLhWcbRF-39" value="Switch on crane is on Manuel&amp;nbsp;mode&lt;br&gt;general start criteria for anyitem&lt;br&gt;emrg.stop local or facility ok" style="edgeLabel;html=1;align=center;verticalAlign=middle;resizable=0;points=[];fontColor=#FF3333;" parent="tPOuBQZp9NRRLLhWcbRF-38" vertex="1" connectable="0">
          <mxGeometry x="-0.2108" relative="1" as="geometry">
            <mxPoint x="16" as="offset" />
          </mxGeometry>
        </mxCell>
        <mxCell id="tPOuBQZp9NRRLLhWcbRF-40" value="&lt;font color=&quot;#000000&quot;&gt;Drive crane by radio&lt;br&gt;(valves still accessible)&lt;br&gt;&lt;/font&gt;" style="rounded=1;whiteSpace=wrap;html=1;labelBackgroundColor=none;labelBorderColor=none;fontColor=#FF3333;" parent="1" vertex="1">
          <mxGeometry x="204.01999999999998" y="730" width="120" height="60" as="geometry" />
        </mxCell>
        <mxCell id="tPOuBQZp9NRRLLhWcbRF-41" value="&lt;font color=&quot;#ff3333&quot;&gt;Crane active&lt;br&gt;Radio PDO&lt;br&gt;&lt;/font&gt;" style="endArrow=classic;html=1;rounded=0;fontColor=#000000;exitX=0;exitY=0.25;exitDx=0;exitDy=0;entryX=1;entryY=0.652;entryDx=0;entryDy=0;entryPerimeter=0;" parent="1" source="tPOuBQZp9NRRLLhWcbRF-40" target="tPOuBQZp9NRRLLhWcbRF-5" edge="1">
          <mxGeometry width="50" height="50" relative="1" as="geometry">
            <mxPoint x="235" y="841.08" as="sourcePoint" />
            <mxPoint y="790.0000000000001" as="targetPoint" />
          </mxGeometry>
        </mxCell>
        <mxCell id="tPOuBQZp9NRRLLhWcbRF-42" value="" style="endArrow=classic;html=1;rounded=0;fontColor=#FF3333;entryX=0;entryY=0.5;entryDx=0;entryDy=0;exitX=1;exitY=0.738;exitDx=0;exitDy=0;exitPerimeter=0;" parent="1" source="tPOuBQZp9NRRLLhWcbRF-5" target="tPOuBQZp9NRRLLhWcbRF-40" edge="1">
          <mxGeometry width="50" height="50" relative="1" as="geometry">
            <mxPoint x="10" y="797.6399999999999" as="sourcePoint" />
            <mxPoint x="242.05999999999995" y="780" as="targetPoint" />
          </mxGeometry>
        </mxCell>
        <mxCell id="tPOuBQZp9NRRLLhWcbRF-43" value="Switch on crane is on Radio mode&lt;br&gt;general start criteria for anyitem&lt;br&gt;emrg.stop local or facility ok&lt;br&gt;Radio control drive signals" style="edgeLabel;html=1;align=center;verticalAlign=middle;resizable=0;points=[];fontColor=#FF3333;" parent="tPOuBQZp9NRRLLhWcbRF-42" vertex="1" connectable="0">
          <mxGeometry x="-0.2108" relative="1" as="geometry">
            <mxPoint x="16" as="offset" />
          </mxGeometry>
        </mxCell>
        <mxCell id="tPOuBQZp9NRRLLhWcbRF-44" value="&lt;font color=&quot;#000000&quot;&gt;Auto twist mode&lt;br&gt;&lt;br&gt;&lt;/font&gt;" style="rounded=1;whiteSpace=wrap;html=1;labelBackgroundColor=none;labelBorderColor=none;fontColor=#FF3333;" parent="1" vertex="1">
          <mxGeometry x="204.01999999999998" y="840" width="120" height="60" as="geometry" />
        </mxCell>
        <mxCell id="tPOuBQZp9NRRLLhWcbRF-45" value="&lt;font color=&quot;#ff3333&quot;&gt;Crane active&lt;br&gt;Auto twist mode / calculation drive&lt;br&gt;Radio on canopen and PDO&lt;br&gt;&lt;/font&gt;" style="endArrow=classic;html=1;rounded=0;fontColor=#000000;exitX=0;exitY=0.25;exitDx=0;exitDy=0;entryX=1;entryY=0.804;entryDx=0;entryDy=0;entryPerimeter=0;" parent="1" source="tPOuBQZp9NRRLLhWcbRF-44" target="tPOuBQZp9NRRLLhWcbRF-5" edge="1">
          <mxGeometry width="50" height="50" relative="1" as="geometry">
            <mxPoint x="30.980000000000018" y="924.28" as="sourcePoint" />
            <mxPoint x="250" y="919.9999999999998" as="targetPoint" />
          </mxGeometry>
        </mxCell>
        <mxCell id="tPOuBQZp9NRRLLhWcbRF-46" value="Auto twist button on radio panel&lt;br&gt;Sensors ok for NHC" style="endArrow=classic;html=1;rounded=0;fontColor=#FF3333;exitX=0.5;exitY=1;exitDx=0;exitDy=0;entryX=0.5;entryY=0;entryDx=0;entryDy=0;" parent="1" source="tPOuBQZp9NRRLLhWcbRF-40" target="tPOuBQZp9NRRLLhWcbRF-44" edge="1">
          <mxGeometry x="-0.2" width="50" height="50" relative="1" as="geometry">
            <mxPoint x="460" y="780" as="sourcePoint" />
            <mxPoint x="460" y="850" as="targetPoint" />
            <mxPoint as="offset" />
          </mxGeometry>
        </mxCell>
        <mxCell id="tPOuBQZp9NRRLLhWcbRF-47" value="&lt;font color=&quot;#000000&quot;&gt;Auto twist mode for NHC:&lt;br&gt;NHC roller head twist and aiming for net pipe. This happens&amp;nbsp;when NHC roller head position is changed and not by orientation&lt;br&gt;&lt;/font&gt;" style="rounded=0;whiteSpace=wrap;html=1;labelBackgroundColor=none;labelBorderColor=none;fontColor=#FF3333;" parent="1" vertex="1">
          <mxGeometry x="190" y="910" width="160" height="90" as="geometry" />
        </mxCell>
        <mxCell id="tPOuBQZp9NRRLLhWcbRF-48" value="&lt;font color=&quot;#000000&quot;&gt;Auto tilt mode for NHC:&lt;br&gt;tilt for roller unit on crane will compansate when JIB and Boom angle is changed.&lt;br&gt;The tilt is to achieve vertical roller under nethandling.&amp;nbsp;&lt;br&gt;&lt;/font&gt;" style="rounded=0;whiteSpace=wrap;html=1;labelBackgroundColor=none;labelBorderColor=none;fontColor=#FF3333;" parent="1" vertex="1">
          <mxGeometry x="190" y="1000" width="160" height="90" as="geometry" />
        </mxCell>
        <mxCell id="tPOuBQZp9NRRLLhWcbRF-49" value="&lt;font color=&quot;#ff3333&quot;&gt;Crane active&lt;br&gt;&lt;/font&gt;" style="endArrow=classic;html=1;rounded=0;fontColor=#000000;exitX=0;exitY=0.25;exitDx=0;exitDy=0;entryX=1.007;entryY=0.167;entryDx=0;entryDy=0;entryPerimeter=0;" parent="1" edge="1">
          <mxGeometry width="50" height="50" relative="1" as="geometry">
            <mxPoint x="205" y="427.43999999999994" as="sourcePoint" />
            <mxPoint x="-29.019999999999982" y="370.0000000000001" as="targetPoint" />
          </mxGeometry>
        </mxCell>
        <mxCell id="tPOuBQZp9NRRLLhWcbRF-50" value="" style="endArrow=classic;html=1;rounded=0;fontColor=#FF3333;entryX=0;entryY=0.5;entryDx=0;entryDy=0;exitX=1;exitY=0.25;exitDx=0;exitDy=0;" parent="1" edge="1">
          <mxGeometry width="50" height="50" relative="1" as="geometry">
            <mxPoint x="-30" y="446.36" as="sourcePoint" />
            <mxPoint x="205" y="442.43999999999994" as="targetPoint" />
          </mxGeometry>
        </mxCell>
        <mxCell id="tPOuBQZp9NRRLLhWcbRF-51" value="Switch on crane is on Manuel&amp;nbsp;mode&lt;br&gt;general start criteria for anyitem&lt;br&gt;emrg.stop local or facility ok&lt;br&gt;Radio control drive signals" style="edgeLabel;html=1;align=center;verticalAlign=middle;resizable=0;points=[];fontColor=#FF3333;" parent="tPOuBQZp9NRRLLhWcbRF-50" vertex="1" connectable="0">
          <mxGeometry x="-0.2108" relative="1" as="geometry">
            <mxPoint x="16" as="offset" />
          </mxGeometry>
        </mxCell>
        <mxCell id="tPOuBQZp9NRRLLhWcbRF-52" value="&lt;font color=&quot;#ff3333&quot;&gt;Crane active&lt;br&gt;Radio PDO&lt;br&gt;&lt;/font&gt;" style="endArrow=classic;html=1;rounded=0;fontColor=#000000;exitX=0;exitY=0.25;exitDx=0;exitDy=0;entryX=1.007;entryY=0.304;entryDx=0;entryDy=0;entryPerimeter=0;" parent="1" edge="1">
          <mxGeometry width="50" height="50" relative="1" as="geometry">
            <mxPoint x="205" y="531.36" as="sourcePoint" />
            <mxPoint x="-29.019999999999982" y="496.0400000000001" as="targetPoint" />
          </mxGeometry>
        </mxCell>
        <mxCell id="tPOuBQZp9NRRLLhWcbRF-53" value="&lt;font color=&quot;#000000&quot;&gt;Drive crane by radio&lt;br&gt;(valves still accessible)&lt;br&gt;&lt;/font&gt;" style="rounded=1;whiteSpace=wrap;html=1;labelBackgroundColor=none;labelBorderColor=none;fontColor=#FF3333;" parent="1" vertex="1">
          <mxGeometry x="205" y="516.36" width="120" height="60" as="geometry" />
        </mxCell>
        <mxCell id="tPOuBQZp9NRRLLhWcbRF-54" value="&lt;font color=&quot;#000000&quot;&gt;Drive crane by valves&lt;/font&gt;" style="rounded=1;whiteSpace=wrap;html=1;labelBackgroundColor=none;labelBorderColor=none;fontColor=#FF3333;" parent="1" vertex="1">
          <mxGeometry x="205" y="412.44" width="120" height="60" as="geometry" />
        </mxCell>
        <mxCell id="tPOuBQZp9NRRLLhWcbRF-55" value="" style="endArrow=classic;html=1;rounded=0;fontColor=#FF3333;entryX=1;entryY=0.5;entryDx=0;entryDy=0;" parent="1" target="tPOuBQZp9NRRLLhWcbRF-53" edge="1">
          <mxGeometry width="50" height="50" relative="1" as="geometry">
            <mxPoint x="325" y="856" as="sourcePoint" />
            <mxPoint x="430" y="546.36" as="targetPoint" />
            <Array as="points">
              <mxPoint x="430" y="856.36" />
              <mxPoint x="430" y="546.36" />
            </Array>
          </mxGeometry>
        </mxCell>
        <mxCell id="tPOuBQZp9NRRLLhWcbRF-56" value="Crane select TRC from radio panel" style="endArrow=classic;html=1;rounded=0;fontColor=#FF3333;entryX=1;entryY=0.5;entryDx=0;entryDy=0;exitX=1;exitY=0.5;exitDx=0;exitDy=0;" parent="1" source="tPOuBQZp9NRRLLhWcbRF-40" target="tPOuBQZp9NRRLLhWcbRF-53" edge="1">
          <mxGeometry width="50" height="50" relative="1" as="geometry">
            <mxPoint x="370" y="769.64" as="sourcePoint" />
            <mxPoint x="370" y="460.0000000000001" as="targetPoint" />
            <Array as="points">
              <mxPoint x="430" y="760" />
              <mxPoint x="430" y="546" />
            </Array>
          </mxGeometry>
        </mxCell>
        <mxCell id="tPOuBQZp9NRRLLhWcbRF-57" value="" style="endArrow=classic;html=1;rounded=0;fontColor=#FF3333;entryX=0;entryY=0.75;entryDx=0;entryDy=0;exitX=1;exitY=0.5;exitDx=0;exitDy=0;" parent="1" source="tPOuBQZp9NRRLLhWcbRF-5" target="tPOuBQZp9NRRLLhWcbRF-53" edge="1">
          <mxGeometry width="50" height="50" relative="1" as="geometry">
            <mxPoint x="60" y="565.84" as="sourcePoint" />
            <mxPoint x="294.02" y="526.88" as="targetPoint" />
          </mxGeometry>
        </mxCell>
        <mxCell id="tPOuBQZp9NRRLLhWcbRF-58" value="Switch on crane is on Radio mode&lt;br&gt;general start criteria for anyitem&lt;br&gt;emrg.stop local or facility ok&lt;br&gt;Radio control drive signals" style="edgeLabel;html=1;align=center;verticalAlign=middle;resizable=0;points=[];fontColor=#FF3333;" parent="tPOuBQZp9NRRLLhWcbRF-57" vertex="1" connectable="0">
          <mxGeometry x="-0.2108" relative="1" as="geometry">
            <mxPoint x="16" as="offset" />
          </mxGeometry>
        </mxCell>
        <mxCell id="tPOuBQZp9NRRLLhWcbRF-59" value="&lt;font color=&quot;#000000&quot;&gt;sensors sensing check&lt;br&gt;(drive jib/boom = expect new angle values)&lt;br&gt;(drive swing and twist = expect new angle values)&lt;br&gt;&lt;br&gt;&lt;/font&gt;&lt;span style=&quot;color: rgb(0 , 0 , 0)&quot;&gt;sensors online&lt;/span&gt;&lt;br style=&quot;color: rgb(0 , 0 , 0)&quot;&gt;&lt;span style=&quot;color: rgb(0 , 0 , 0)&quot;&gt;angle and encoders.&lt;/span&gt;&lt;br style=&quot;color: rgb(0 , 0 , 0)&quot;&gt;&lt;span style=&quot;color: rgb(0 , 0 , 0)&quot;&gt;Items are within operation range&lt;/span&gt;&lt;font color=&quot;#000000&quot;&gt;&lt;br&gt;&lt;/font&gt;" style="rounded=1;whiteSpace=wrap;html=1;labelBackgroundColor=none;labelBorderColor=none;fontColor=#FF3333;" parent="1" vertex="1">
          <mxGeometry x="270" y="20" width="250" height="130" as="geometry" />
        </mxCell>
        <mxCell id="tPOuBQZp9NRRLLhWcbRF-60" value="Sensor on crane body&lt;br&gt;&amp;nbsp;always gives positions" style="endArrow=classic;html=1;rounded=0;fontColor=#FF3333;exitX=1.013;exitY=0.936;exitDx=0;exitDy=0;exitPerimeter=0;entryX=0.014;entryY=0.861;entryDx=0;entryDy=0;entryPerimeter=0;" parent="1" source="tPOuBQZp9NRRLLhWcbRF-23" target="tPOuBQZp9NRRLLhWcbRF-5" edge="1">
          <mxGeometry width="50" height="50" relative="1" as="geometry">
            <mxPoint x="-280" y="940" as="sourcePoint" />
            <mxPoint x="-230" y="890" as="targetPoint" />
          </mxGeometry>
        </mxCell>
        <mxCell id="tPOuBQZp9NRRLLhWcbRF-61" value="&lt;font color=&quot;#ff3333&quot;&gt;Sensor on crane body&lt;br&gt;always gives positions&lt;br&gt;&lt;/font&gt;" style="endArrow=classic;html=1;rounded=0;fontColor=#000000;exitX=0;exitY=0.939;exitDx=0;exitDy=0;entryX=0.993;entryY=0.851;entryDx=0;entryDy=0;entryPerimeter=0;exitPerimeter=0;" parent="1" source="tPOuBQZp9NRRLLhWcbRF-35" target="tPOuBQZp9NRRLLhWcbRF-5" edge="1">
          <mxGeometry width="50" height="50" relative="1" as="geometry">
            <mxPoint x="214.01999999999998" y="865" as="sourcePoint" />
            <mxPoint x="-20" y="869.6800000000001" as="targetPoint" />
          </mxGeometry>
        </mxCell>
        <mxCell id="tPOuBQZp9NRRLLhWcbRF-62" value="" style="endArrow=classic;startArrow=classic;html=1;rounded=0;fontColor=#FF3333;exitX=0.75;exitY=0;exitDx=0;exitDy=0;entryX=0;entryY=0.5;entryDx=0;entryDy=0;" parent="1" source="tPOuBQZp9NRRLLhWcbRF-5" target="tPOuBQZp9NRRLLhWcbRF-59" edge="1">
          <mxGeometry width="50" height="50" relative="1" as="geometry">
            <mxPoint x="190" y="340" as="sourcePoint" />
            <mxPoint x="240" y="290" as="targetPoint" />
            <Array as="points">
              <mxPoint x="-65" y="90" />
            </Array>
          </mxGeometry>
        </mxCell>
        <mxCell id="tPOuBQZp9NRRLLhWcbRF-63" value="Sensors confirmations" style="edgeLabel;html=1;align=center;verticalAlign=middle;resizable=0;points=[];fontColor=#FF3333;" parent="tPOuBQZp9NRRLLhWcbRF-62" vertex="1" connectable="0">
          <mxGeometry x="-0.0759" y="-1" relative="1" as="geometry">
            <mxPoint as="offset" />
          </mxGeometry>
        </mxCell>
        <mxCell id="n_Epf15kypgvmBv_eyfg-1" value="utpakking av datapakker fra radio (PDO)(spakfunksjonen)" style="ellipse;whiteSpace=wrap;html=1;" parent="1" vertex="1">
          <mxGeometry x="-850" y="1741.3600000000001" width="120" height="80" as="geometry" />
        </mxCell>
        <mxCell id="n_Epf15kypgvmBv_eyfg-3" value="&lt;b&gt;skalering&lt;br&gt;&lt;/b&gt;&amp;nbsp;analog input signaler til 0.0 - 1.0" style="rounded=1;whiteSpace=wrap;html=1;" parent="1" vertex="1">
          <mxGeometry x="-470" y="1660" width="130" height="60" as="geometry" />
        </mxCell>
        <mxCell id="n_Epf15kypgvmBv_eyfg-4" value="&lt;b&gt;PWM drive.&lt;/b&gt;&lt;br&gt;Skalering av input som skal tilsvare&lt;br&gt;et start pwm parameter&lt;br&gt;2s max pwm parameter" style="rounded=1;whiteSpace=wrap;html=1;" parent="1" vertex="1">
          <mxGeometry x="60" y="1666.3600000000001" width="130" height="70" as="geometry" />
        </mxCell>
        <mxCell id="n_Epf15kypgvmBv_eyfg-13" value="&lt;b&gt;funksjon selector&lt;/b&gt;&lt;br&gt;-128 &amp;lt;-&amp;gt; 0 = Z+&lt;br&gt;0 &amp;lt;-&amp;gt; 127 = Z-&lt;br&gt;setter også denne outputen til gjeldene selceted funksjon" style="rounded=1;whiteSpace=wrap;html=1;" parent="1" vertex="1">
          <mxGeometry x="-680" y="1730" width="130" height="100" as="geometry" />
        </mxCell>
        <mxCell id="CfgRg5aXCrRDhNuQEp0G-3" value="&lt;b&gt;Opp/Ned ramping&lt;/b&gt;&lt;br&gt;Parameter for opp&lt;br&gt;Parameter for ned" style="rounded=1;whiteSpace=wrap;html=1;" parent="1" vertex="1">
          <mxGeometry x="-130" y="1671.3600000000001" width="120" height="60" as="geometry" />
        </mxCell>
        <mxCell id="CfgRg5aXCrRDhNuQEp0G-7" value="&lt;b&gt;Virtuel simulator&lt;br&gt;OPC UA&lt;/b&gt;" style="shape=ext;double=1;rounded=1;whiteSpace=wrap;html=1;" parent="1" vertex="1">
          <mxGeometry x="-20" y="1750" width="120" height="80" as="geometry" />
        </mxCell>
        <mxCell id="CfgRg5aXCrRDhNuQEp0G-8" value="utpakking av datapakker fra radio (PDO) (vippebryterne)" style="ellipse;whiteSpace=wrap;html=1;" parent="1" vertex="1">
          <mxGeometry x="190" y="1750" width="120" height="80" as="geometry" />
        </mxCell>
        <mxCell id="CfgRg5aXCrRDhNuQEp0G-13" value="&lt;b&gt;skalering&lt;br&gt;&lt;/b&gt;&amp;nbsp;analog input signaler til 0.0 - 1.0" style="rounded=1;whiteSpace=wrap;html=1;" parent="1" vertex="1">
          <mxGeometry x="-470" y="1860" width="130" height="60" as="geometry" />
        </mxCell>
        <mxCell id="CfgRg5aXCrRDhNuQEp0G-14" value="&lt;b&gt;PWM drive.&lt;br&gt;&lt;/b&gt;Skalering av input som skal tilsvare&lt;br&gt;et start pwm parameter&lt;br&gt;2s max pwm parameter" style="rounded=1;whiteSpace=wrap;html=1;" parent="1" vertex="1">
          <mxGeometry x="60" y="1860" width="140" height="70" as="geometry" />
        </mxCell>
        <mxCell id="CfgRg5aXCrRDhNuQEp0G-17" value="&lt;b&gt;Opp/Ned ramping&lt;/b&gt;&lt;br&gt;Parameter for opp&lt;br&gt;Parameter for ned" style="rounded=1;whiteSpace=wrap;html=1;" parent="1" vertex="1">
          <mxGeometry x="-130" y="1865" width="120" height="60" as="geometry" />
        </mxCell>
        <mxCell id="CfgRg5aXCrRDhNuQEp0G-20" value="Z+" style="endArrow=classic;html=1;rounded=0;exitX=0.25;exitY=1;exitDx=0;exitDy=0;entryX=0.25;entryY=0;entryDx=0;entryDy=0;" parent="1" source="n_Epf15kypgvmBv_eyfg-4" target="CfgRg5aXCrRDhNuQEp0G-7" edge="1">
          <mxGeometry width="50" height="50" relative="1" as="geometry">
            <mxPoint x="-240" y="2070" as="sourcePoint" />
            <mxPoint x="-190" y="2020" as="targetPoint" />
          </mxGeometry>
        </mxCell>
        <mxCell id="CfgRg5aXCrRDhNuQEp0G-21" value="Z-" style="endArrow=classic;html=1;rounded=0;exitX=0.25;exitY=0;exitDx=0;exitDy=0;entryX=0.25;entryY=1;entryDx=0;entryDy=0;" parent="1" source="CfgRg5aXCrRDhNuQEp0G-14" target="CfgRg5aXCrRDhNuQEp0G-7" edge="1">
          <mxGeometry x="0.0703" y="1" width="50" height="50" relative="1" as="geometry">
            <mxPoint y="1750" as="sourcePoint" />
            <mxPoint x="20" y="1650" as="targetPoint" />
            <Array as="points" />
            <mxPoint as="offset" />
          </mxGeometry>
        </mxCell>
        <mxCell id="CfgRg5aXCrRDhNuQEp0G-23" value="&lt;b&gt;DEADZONE&lt;/b&gt;&lt;br&gt;som regel har alle spakene som vil takes ibruk her ha dette internt innebygd" style="rounded=1;whiteSpace=wrap;html=1;" parent="1" vertex="1">
          <mxGeometry x="-290" y="1801.3600000000001" width="120" height="90" as="geometry" />
        </mxCell>
        <mxCell id="CfgRg5aXCrRDhNuQEp0G-24" value="" style="shape=flexArrow;endArrow=classic;html=1;rounded=0;exitX=1;exitY=0.5;exitDx=0;exitDy=0;" parent="1" source="n_Epf15kypgvmBv_eyfg-4" edge="1">
          <mxGeometry width="50" height="50" relative="1" as="geometry">
            <mxPoint x="260" y="1736.3600000000001" as="sourcePoint" />
            <mxPoint x="310" y="1701.3600000000001" as="targetPoint" />
            <Array as="points" />
          </mxGeometry>
        </mxCell>
        <mxCell id="CfgRg5aXCrRDhNuQEp0G-25" value="pinout&lt;br&gt;" style="edgeLabel;html=1;align=center;verticalAlign=middle;resizable=0;points=[];" parent="CfgRg5aXCrRDhNuQEp0G-24" vertex="1" connectable="0">
          <mxGeometry x="0.2" y="-6" relative="1" as="geometry">
            <mxPoint y="-6" as="offset" />
          </mxGeometry>
        </mxCell>
        <mxCell id="CfgRg5aXCrRDhNuQEp0G-26" value="" style="shape=flexArrow;endArrow=classic;html=1;rounded=0;" parent="1" source="CfgRg5aXCrRDhNuQEp0G-14" edge="1">
          <mxGeometry width="50" height="50" relative="1" as="geometry">
            <mxPoint x="210" y="1888.1399999999999" as="sourcePoint" />
            <mxPoint x="310" y="1894.6399999999999" as="targetPoint" />
            <Array as="points" />
          </mxGeometry>
        </mxCell>
        <mxCell id="CfgRg5aXCrRDhNuQEp0G-27" value="pinout&lt;br&gt;" style="edgeLabel;html=1;align=center;verticalAlign=middle;resizable=0;points=[];" parent="CfgRg5aXCrRDhNuQEp0G-26" vertex="1" connectable="0">
          <mxGeometry x="0.2" y="-6" relative="1" as="geometry">
            <mxPoint y="-6" as="offset" />
          </mxGeometry>
        </mxCell>
        <mxCell id="CfgRg5aXCrRDhNuQEp0G-32" value="&lt;h1&gt;Swing&lt;/h1&gt;&lt;span style=&quot;text-align: center&quot;&gt;spak kjøring fra radiostyring prinsipp&lt;br&gt;parameter tilgang/ setup&amp;nbsp;på hver FB&lt;br&gt;&lt;/span&gt;" style="text;html=1;strokeColor=none;fillColor=none;spacing=5;spacingTop=-20;whiteSpace=wrap;overflow=hidden;rounded=0;" parent="1" vertex="1">
          <mxGeometry x="-310" y="1550" width="230" height="110" as="geometry" />
        </mxCell>
        <mxCell id="CfgRg5aXCrRDhNuQEp0G-44" value="&lt;b&gt;Lengde beregning&lt;/b&gt;&lt;br&gt;Beregning for gjeldende kran/ ledd&lt;br&gt;(boom + jib)&amp;nbsp; lendge/vinkel&lt;br&gt;tilt roller optional and expected" style="ellipse;whiteSpace=wrap;html=1;" parent="1" vertex="1">
          <mxGeometry x="2170" y="830.0000000000001" width="190" height="120" as="geometry" />
        </mxCell>
        <mxCell id="CfgRg5aXCrRDhNuQEp0G-45" value="Program" style="ellipse;whiteSpace=wrap;html=1;" parent="1" vertex="1">
          <mxGeometry x="-240" y="1125" width="120" height="80" as="geometry" />
        </mxCell>
        <mxCell id="CfgRg5aXCrRDhNuQEp0G-46" value="Tilknytning" style="endArrow=classic;html=1;rounded=0;exitX=1;exitY=0.5;exitDx=0;exitDy=0;entryX=0;entryY=0.5;entryDx=0;entryDy=0;" parent="1" source="CfgRg5aXCrRDhNuQEp0G-45" target="CfgRg5aXCrRDhNuQEp0G-47" edge="1">
          <mxGeometry width="50" height="50" relative="1" as="geometry">
            <mxPoint x="-80" y="1165" as="sourcePoint" />
            <mxPoint x="-40" y="1165" as="targetPoint" />
          </mxGeometry>
        </mxCell>
        <mxCell id="CfgRg5aXCrRDhNuQEp0G-47" value="Funksjonsblokk" style="rounded=1;whiteSpace=wrap;html=1;" parent="1" vertex="1">
          <mxGeometry x="10" y="1135" width="120" height="60" as="geometry" />
        </mxCell>
        <mxCell id="CfgRg5aXCrRDhNuQEp0G-50" value="&lt;h1&gt;Tema&lt;/h1&gt;&lt;div style=&quot;text-align: center&quot;&gt;&lt;span&gt;prinsipp beskrivelser&lt;/span&gt;&lt;/div&gt;" style="text;html=1;strokeColor=none;fillColor=none;spacing=5;spacingTop=-20;whiteSpace=wrap;overflow=hidden;rounded=0;" parent="1" vertex="1">
          <mxGeometry x="-400" y="1110" width="160" height="110" as="geometry" />
        </mxCell>
        <mxCell id="CfgRg5aXCrRDhNuQEp0G-89" value="&lt;h1&gt;Kalibrering setup/instruks for orientasjon&lt;/h1&gt;&lt;p&gt;kalibrering mode, = bypass på tidligere endpoints, vil ikke gå ut av denne moden før alle nødvendige punkt er kalibrert.&lt;br&gt;signalet blir sendt videre for å kunne vite orientasjon på leddene.&lt;br&gt;Her blir signalet referert til total angle operation range, with reference position(parked crane and facing forward the boat).&lt;br&gt;&lt;/p&gt;" style="text;html=1;strokeColor=none;fillColor=none;spacing=5;spacingTop=-20;whiteSpace=wrap;overflow=hidden;rounded=0;" parent="1" vertex="1">
          <mxGeometry x="990" y="146.82000000000016" width="670" height="120" as="geometry" />
        </mxCell>
        <mxCell id="CfgRg5aXCrRDhNuQEp0G-90" value="&lt;h1&gt;Basic kran kjøring fra radiostyringen&lt;/h1&gt;&lt;p&gt;pakker ut datapakkene som blir sendt fra radiostyringen på canbus. Disse PDO&#39;ene er pre mappet.&lt;/p&gt;&lt;p&gt;i 1 byte inneholder informasjon for å kjøre en funksjon begge retningene, disse må skilles og dermed håndtere denne input signalet skal tilsvare proposjonal PWM styring på outputen&lt;/p&gt;&lt;p&gt;dette forslaget er prinsippet bak alle funksjonene, tillegg funksjoner vil etterhvert knyttes til for å kunne foreta ønsket forriglinger osv&amp;nbsp;&lt;/p&gt;" style="text;html=1;strokeColor=none;fillColor=none;spacing=5;spacingTop=-20;whiteSpace=wrap;overflow=hidden;rounded=0;" parent="1" vertex="1">
          <mxGeometry x="-425" y="1360" width="560" height="180" as="geometry" />
        </mxCell>
        <mxCell id="CfgRg5aXCrRDhNuQEp0G-91" value="utpakking av absolute multiturn encoder (PDO)" style="ellipse;whiteSpace=wrap;html=1;" parent="1" vertex="1">
          <mxGeometry x="970" y="351.82000000000016" width="120" height="90" as="geometry" />
        </mxCell>
        <mxCell id="CfgRg5aXCrRDhNuQEp0G-92" value="data" style="shape=flexArrow;endArrow=classic;html=1;rounded=0;exitX=1;exitY=0.5;exitDx=0;exitDy=0;entryX=0;entryY=0.5;entryDx=0;entryDy=0;" parent="1" source="CfgRg5aXCrRDhNuQEp0G-91" target="CfgRg5aXCrRDhNuQEp0G-141" edge="1">
          <mxGeometry width="50" height="50" relative="1" as="geometry">
            <mxPoint x="1175" y="411.82000000000016" as="sourcePoint" />
            <mxPoint x="1135" y="396.82000000000016" as="targetPoint" />
          </mxGeometry>
        </mxCell>
        <mxCell id="CfgRg5aXCrRDhNuQEp0G-93" value="&lt;b&gt;Kalibrering&lt;br&gt;&amp;nbsp; E&lt;/b&gt;ndpoints&lt;br&gt;for CW/CCW. &lt;br&gt;Har et referansepunkt.&lt;br&gt;Også ønsket total turn count" style="rounded=1;whiteSpace=wrap;html=1;" parent="1" vertex="1">
          <mxGeometry x="1340" y="286.82000000000016" width="120" height="100" as="geometry" />
        </mxCell>
        <mxCell id="CfgRg5aXCrRDhNuQEp0G-142" value="parameter" style="edgeStyle=orthogonalEdgeStyle;rounded=0;orthogonalLoop=1;jettySize=auto;html=1;exitX=0.5;exitY=1;exitDx=0;exitDy=0;entryX=0.5;entryY=0;entryDx=0;entryDy=0;" parent="1" source="CfgRg5aXCrRDhNuQEp0G-94" target="CfgRg5aXCrRDhNuQEp0G-141" edge="1">
          <mxGeometry relative="1" as="geometry" />
        </mxCell>
        <mxCell id="CfgRg5aXCrRDhNuQEp0G-94" value="&lt;b&gt;ledd utveksning&lt;/b&gt;,&lt;br&gt;runed once by setup" style="rounded=1;whiteSpace=wrap;html=1;" parent="1" vertex="1">
          <mxGeometry x="1190" y="306.82000000000016" width="120" height="60" as="geometry" />
        </mxCell>
        <mxCell id="CfgRg5aXCrRDhNuQEp0G-95" value="&lt;h1&gt;sensor swing&lt;/h1&gt;&lt;p&gt;encoder på swing, sender PDO som er mappet og må utpakkes,&amp;nbsp;&amp;nbsp;&lt;/p&gt;" style="text;html=1;strokeColor=none;fillColor=none;spacing=5;spacingTop=-20;whiteSpace=wrap;overflow=hidden;rounded=0;" parent="1" vertex="1">
          <mxGeometry x="980" y="266.82000000000016" width="190" height="120" as="geometry" />
        </mxCell>
        <mxCell id="CfgRg5aXCrRDhNuQEp0G-97" value="&lt;b&gt;DEADZONE&lt;/b&gt;&lt;br&gt;som regel har alle spakene som vil takes ibruk her ha dette internt innebygd" style="rounded=1;whiteSpace=wrap;html=1;" parent="1" vertex="1">
          <mxGeometry x="-290" y="1695" width="120" height="90" as="geometry" />
        </mxCell>
        <mxCell id="CfgRg5aXCrRDhNuQEp0G-134" value="&lt;b&gt;HMI reading value pages&lt;/b&gt;&lt;br&gt;tilgang til vinkel og range verdiene samt totale lengen, visuelt for vinsj" style="ellipse;whiteSpace=wrap;html=1;" parent="1" vertex="1">
          <mxGeometry x="2250" y="585.0000000000001" width="160" height="110" as="geometry" />
        </mxCell>
        <mxCell id="CfgRg5aXCrRDhNuQEp0G-136" value="div verdier" style="endArrow=classic;html=1;rounded=0;exitX=1;exitY=0;exitDx=0;exitDy=0;" parent="1" source="CfgRg5aXCrRDhNuQEp0G-44" target="CfgRg5aXCrRDhNuQEp0G-134" edge="1">
          <mxGeometry x="-0.5095" width="50" height="50" relative="1" as="geometry">
            <mxPoint x="2465" y="930.0000000000001" as="sourcePoint" />
            <mxPoint x="2515" y="880.0000000000001" as="targetPoint" />
            <mxPoint as="offset" />
          </mxGeometry>
        </mxCell>
        <mxCell id="CfgRg5aXCrRDhNuQEp0G-138" value="&lt;b&gt;&lt;font style=&quot;font-size: 36px&quot;&gt;SCRAP&lt;/font&gt;&lt;/b&gt;" style="text;html=1;strokeColor=none;fillColor=none;align=center;verticalAlign=middle;whiteSpace=wrap;rounded=0;" parent="1" vertex="1">
          <mxGeometry x="90" y="220" width="80" height="40" as="geometry" />
        </mxCell>
        <mxCell id="CfgRg5aXCrRDhNuQEp0G-139" value="&lt;b&gt;Virtuel simulator&lt;br&gt;OPC UA&lt;/b&gt;" style="shape=ext;double=1;rounded=1;whiteSpace=wrap;html=1;" parent="1" vertex="1">
          <mxGeometry x="970" y="451.82000000000016" width="120" height="80" as="geometry" />
        </mxCell>
        <mxCell id="CfgRg5aXCrRDhNuQEp0G-140" value="setup/hmi call" style="shape=flexArrow;endArrow=classic;html=1;rounded=0;entryX=1;entryY=0.5;entryDx=0;entryDy=0;" parent="1" target="CfgRg5aXCrRDhNuQEp0G-93" edge="1">
          <mxGeometry width="50" height="50" relative="1" as="geometry">
            <mxPoint x="1570" y="336.82000000000016" as="sourcePoint" />
            <mxPoint x="1470" y="326.82000000000016" as="targetPoint" />
            <mxPoint as="offset" />
          </mxGeometry>
        </mxCell>
        <mxCell id="CfgRg5aXCrRDhNuQEp0G-141" value="&lt;b&gt;Reference&lt;br&gt;&amp;nbsp;&lt;/b&gt;analog input verdier som beregning tilsvarende grader:&lt;br&gt;X = 1grad" style="rounded=1;whiteSpace=wrap;html=1;" parent="1" vertex="1">
          <mxGeometry x="1180" y="396.82000000000016" width="140" height="90" as="geometry" />
        </mxCell>
        <mxCell id="CfgRg5aXCrRDhNuQEp0G-143" value="drive&lt;br&gt;signal" style="endArrow=classic;html=1;rounded=0;exitX=1;exitY=0.5;exitDx=0;exitDy=0;entryX=0;entryY=0.5;entryDx=0;entryDy=0;" parent="1" source="CfgRg5aXCrRDhNuQEp0G-139" target="CfgRg5aXCrRDhNuQEp0G-141" edge="1">
          <mxGeometry width="50" height="50" relative="1" as="geometry">
            <mxPoint x="1160" y="511.82000000000016" as="sourcePoint" />
            <mxPoint x="1135" y="396.82000000000016" as="targetPoint" />
          </mxGeometry>
        </mxCell>
        <mxCell id="CfgRg5aXCrRDhNuQEp0G-145" value="Parameters" style="endArrow=classic;html=1;rounded=0;entryX=0;entryY=0.25;entryDx=0;entryDy=0;exitX=1;exitY=1;exitDx=0;exitDy=0;" parent="1" source="CfgRg5aXCrRDhNuQEp0G-93" target="4Zit7KkpfHQfQK_u-nDv-26" edge="1">
          <mxGeometry x="-0.1605" y="8" width="50" height="50" relative="1" as="geometry">
            <mxPoint x="1620" y="16.820000000000164" as="sourcePoint" />
            <mxPoint x="1600" y="406.82000000000016" as="targetPoint" />
            <mxPoint as="offset" />
          </mxGeometry>
        </mxCell>
        <mxCell id="CfgRg5aXCrRDhNuQEp0G-147" value="signal value program will use for &lt;br&gt;calculation / drive in modes&amp;nbsp;" style="shape=flexArrow;endArrow=classic;html=1;rounded=0;entryX=0;entryY=0.5;entryDx=0;entryDy=0;exitX=1;exitY=0.5;exitDx=0;exitDy=0;" parent="1" source="CfgRg5aXCrRDhNuQEp0G-141" target="4Zit7KkpfHQfQK_u-nDv-26" edge="1">
          <mxGeometry x="-0.0326" y="5" width="50" height="50" relative="1" as="geometry">
            <mxPoint x="1470" y="-58.179999999999836" as="sourcePoint" />
            <mxPoint x="1520" y="451.82000000000016" as="targetPoint" />
            <mxPoint as="offset" />
          </mxGeometry>
        </mxCell>
        <mxCell id="CfgRg5aXCrRDhNuQEp0G-150" value="" style="shape=flexArrow;endArrow=classic;html=1;rounded=0;exitX=1;exitY=0.5;exitDx=0;exitDy=0;entryX=0;entryY=0.5;entryDx=0;entryDy=0;" parent="1" source="n_Epf15kypgvmBv_eyfg-1" target="n_Epf15kypgvmBv_eyfg-13" edge="1">
          <mxGeometry width="50" height="50" relative="1" as="geometry">
            <mxPoint x="-630" y="2040" as="sourcePoint" />
            <mxPoint x="-580" y="1990" as="targetPoint" />
          </mxGeometry>
        </mxCell>
        <mxCell id="CfgRg5aXCrRDhNuQEp0G-151" value="Z+" style="shape=flexArrow;endArrow=classic;html=1;rounded=0;exitX=1;exitY=0.25;exitDx=0;exitDy=0;entryX=0;entryY=0.5;entryDx=0;entryDy=0;" parent="1" source="n_Epf15kypgvmBv_eyfg-13" target="n_Epf15kypgvmBv_eyfg-3" edge="1">
          <mxGeometry width="50" height="50" relative="1" as="geometry">
            <mxPoint x="-630" y="2040" as="sourcePoint" />
            <mxPoint x="-580" y="1990" as="targetPoint" />
          </mxGeometry>
        </mxCell>
        <mxCell id="CfgRg5aXCrRDhNuQEp0G-152" value="Z-" style="shape=flexArrow;endArrow=classic;html=1;rounded=0;entryX=0;entryY=0.5;entryDx=0;entryDy=0;exitX=1;exitY=0.75;exitDx=0;exitDy=0;" parent="1" source="n_Epf15kypgvmBv_eyfg-13" target="CfgRg5aXCrRDhNuQEp0G-13" edge="1">
          <mxGeometry width="50" height="50" relative="1" as="geometry">
            <mxPoint x="-550" y="1780" as="sourcePoint" />
            <mxPoint x="-570" y="2000" as="targetPoint" />
          </mxGeometry>
        </mxCell>
        <mxCell id="CfgRg5aXCrRDhNuQEp0G-153" value="" style="shape=flexArrow;endArrow=classic;html=1;rounded=0;exitX=1;exitY=0.5;exitDx=0;exitDy=0;entryX=0;entryY=0.5;entryDx=0;entryDy=0;" parent="1" source="n_Epf15kypgvmBv_eyfg-3" target="CfgRg5aXCrRDhNuQEp0G-97" edge="1">
          <mxGeometry width="50" height="50" relative="1" as="geometry">
            <mxPoint x="-610" y="2060" as="sourcePoint" />
            <mxPoint x="-560" y="2010" as="targetPoint" />
          </mxGeometry>
        </mxCell>
        <mxCell id="CfgRg5aXCrRDhNuQEp0G-154" value="" style="shape=flexArrow;endArrow=classic;html=1;rounded=0;exitX=1;exitY=0.5;exitDx=0;exitDy=0;entryX=0;entryY=0.5;entryDx=0;entryDy=0;" parent="1" source="CfgRg5aXCrRDhNuQEp0G-13" target="CfgRg5aXCrRDhNuQEp0G-23" edge="1">
          <mxGeometry width="50" height="50" relative="1" as="geometry">
            <mxPoint x="-600" y="2070" as="sourcePoint" />
            <mxPoint x="-550" y="2020" as="targetPoint" />
          </mxGeometry>
        </mxCell>
        <mxCell id="CfgRg5aXCrRDhNuQEp0G-155" value="" style="shape=flexArrow;endArrow=classic;html=1;rounded=0;exitX=1;exitY=0.5;exitDx=0;exitDy=0;entryX=0;entryY=0.5;entryDx=0;entryDy=0;" parent="1" source="CfgRg5aXCrRDhNuQEp0G-23" target="CfgRg5aXCrRDhNuQEp0G-17" edge="1">
          <mxGeometry width="50" height="50" relative="1" as="geometry">
            <mxPoint x="-590" y="2080" as="sourcePoint" />
            <mxPoint x="-540" y="2030" as="targetPoint" />
          </mxGeometry>
        </mxCell>
        <mxCell id="CfgRg5aXCrRDhNuQEp0G-156" value="" style="shape=flexArrow;endArrow=classic;html=1;rounded=0;exitX=1;exitY=0.5;exitDx=0;exitDy=0;entryX=0;entryY=0.5;entryDx=0;entryDy=0;" parent="1" source="CfgRg5aXCrRDhNuQEp0G-97" target="CfgRg5aXCrRDhNuQEp0G-3" edge="1">
          <mxGeometry width="50" height="50" relative="1" as="geometry">
            <mxPoint x="-580" y="2090" as="sourcePoint" />
            <mxPoint x="-530" y="2040" as="targetPoint" />
          </mxGeometry>
        </mxCell>
        <mxCell id="CfgRg5aXCrRDhNuQEp0G-157" value="" style="shape=flexArrow;endArrow=classic;html=1;rounded=0;exitX=1;exitY=0.5;exitDx=0;exitDy=0;entryX=0;entryY=0.5;entryDx=0;entryDy=0;" parent="1" source="CfgRg5aXCrRDhNuQEp0G-17" target="CfgRg5aXCrRDhNuQEp0G-14" edge="1">
          <mxGeometry width="50" height="50" relative="1" as="geometry">
            <mxPoint x="-570" y="2148.64" as="sourcePoint" />
            <mxPoint x="-520" y="2098.64" as="targetPoint" />
          </mxGeometry>
        </mxCell>
        <mxCell id="CfgRg5aXCrRDhNuQEp0G-158" value="" style="shape=flexArrow;endArrow=classic;html=1;rounded=0;exitX=1;exitY=0.5;exitDx=0;exitDy=0;entryX=0;entryY=0.5;entryDx=0;entryDy=0;" parent="1" source="CfgRg5aXCrRDhNuQEp0G-3" target="n_Epf15kypgvmBv_eyfg-4" edge="1">
          <mxGeometry width="50" height="50" relative="1" as="geometry">
            <mxPoint x="-560" y="2071.36" as="sourcePoint" />
            <mxPoint x="-510" y="2021.3600000000001" as="targetPoint" />
          </mxGeometry>
        </mxCell>
        <mxCell id="CfgRg5aXCrRDhNuQEp0G-159" value="main run route" style="shape=flexArrow;endArrow=classic;html=1;rounded=0;exitX=1;exitY=1;exitDx=0;exitDy=0;entryX=0;entryY=1;entryDx=0;entryDy=0;" parent="1" edge="1" target="CfgRg5aXCrRDhNuQEp0G-47" source="CfgRg5aXCrRDhNuQEp0G-45">
          <mxGeometry width="50" height="50" relative="1" as="geometry">
            <mxPoint x="-130.0035931288072" y="1230.0042712474624" as="sourcePoint" />
            <mxPoint x="42.569999999999936" y="1231.72" as="targetPoint" />
          </mxGeometry>
        </mxCell>
        <mxCell id="CfgRg5aXCrRDhNuQEp0G-161" value="utpakking av absolute multiturn encoder (PDO)" style="ellipse;whiteSpace=wrap;html=1;" parent="1" vertex="1">
          <mxGeometry x="1130" y="608.1800000000001" width="120" height="90" as="geometry" />
        </mxCell>
        <mxCell id="CfgRg5aXCrRDhNuQEp0G-162" value="data" style="shape=flexArrow;endArrow=classic;html=1;rounded=0;exitX=1;exitY=0.5;exitDx=0;exitDy=0;entryX=0;entryY=0.5;entryDx=0;entryDy=0;" parent="1" source="CfgRg5aXCrRDhNuQEp0G-161" target="CfgRg5aXCrRDhNuQEp0G-169" edge="1">
          <mxGeometry width="50" height="50" relative="1" as="geometry">
            <mxPoint x="1335" y="668.1800000000001" as="sourcePoint" />
            <mxPoint x="1295" y="653.1800000000001" as="targetPoint" />
          </mxGeometry>
        </mxCell>
        <mxCell id="CfgRg5aXCrRDhNuQEp0G-163" value="&lt;b&gt;Kalibrering&lt;br&gt;&amp;nbsp; E&lt;/b&gt;ndpoints&lt;br&gt;for CW/CCW. &lt;br&gt;Har et referansepunkt.&lt;br&gt;Også ønsket total turn count" style="rounded=1;whiteSpace=wrap;html=1;" parent="1" vertex="1">
          <mxGeometry x="1500" y="743.1800000000001" width="120" height="100" as="geometry" />
        </mxCell>
        <mxCell id="CfgRg5aXCrRDhNuQEp0G-179" value="parameter" style="edgeStyle=orthogonalEdgeStyle;rounded=0;orthogonalLoop=1;jettySize=auto;html=1;exitX=0.5;exitY=0;exitDx=0;exitDy=0;entryX=0.5;entryY=1;entryDx=0;entryDy=0;" parent="1" source="CfgRg5aXCrRDhNuQEp0G-165" target="CfgRg5aXCrRDhNuQEp0G-169" edge="1">
          <mxGeometry relative="1" as="geometry" />
        </mxCell>
        <mxCell id="CfgRg5aXCrRDhNuQEp0G-165" value="&lt;b&gt;ledd utveksning&lt;/b&gt;,&lt;br&gt;runed once by setup" style="rounded=1;whiteSpace=wrap;html=1;" parent="1" vertex="1">
          <mxGeometry x="1350" y="793.1800000000001" width="120" height="60" as="geometry" />
        </mxCell>
        <mxCell id="CfgRg5aXCrRDhNuQEp0G-166" value="&lt;h1&gt;sensor twist&lt;/h1&gt;&lt;p&gt;encoder på swing, sender PDO som er mappet og må utpakkes,&amp;nbsp;&amp;nbsp;&lt;/p&gt;" style="text;html=1;strokeColor=none;fillColor=none;spacing=5;spacingTop=-20;whiteSpace=wrap;overflow=hidden;rounded=0;" parent="1" vertex="1">
          <mxGeometry x="1120" y="503.18000000000006" width="190" height="120" as="geometry" />
        </mxCell>
        <mxCell id="CfgRg5aXCrRDhNuQEp0G-167" value="&lt;b&gt;Virtuel simulator&lt;br&gt;OPC UA&lt;/b&gt;" style="shape=ext;double=1;rounded=1;whiteSpace=wrap;html=1;" parent="1" vertex="1">
          <mxGeometry x="1130" y="708.1800000000001" width="120" height="80" as="geometry" />
        </mxCell>
        <mxCell id="CfgRg5aXCrRDhNuQEp0G-168" value="setup/hmi call" style="shape=flexArrow;endArrow=classic;html=1;rounded=0;entryX=1;entryY=0.5;entryDx=0;entryDy=0;" parent="1" target="CfgRg5aXCrRDhNuQEp0G-163" edge="1">
          <mxGeometry width="50" height="50" relative="1" as="geometry">
            <mxPoint x="1730" y="793.1800000000001" as="sourcePoint" />
            <mxPoint x="1630" y="583.1800000000001" as="targetPoint" />
            <mxPoint as="offset" />
          </mxGeometry>
        </mxCell>
        <mxCell id="CfgRg5aXCrRDhNuQEp0G-169" value="&lt;b&gt;Reference&lt;br&gt;&amp;nbsp;&lt;/b&gt;analog input verdier som beregning tilsvarende grader:&lt;br&gt;X = 1grad" style="rounded=1;whiteSpace=wrap;html=1;" parent="1" vertex="1">
          <mxGeometry x="1340" y="673.1800000000001" width="140" height="90" as="geometry" />
        </mxCell>
        <mxCell id="CfgRg5aXCrRDhNuQEp0G-170" value="drive&lt;br&gt;signal" style="endArrow=classic;html=1;rounded=0;exitX=1;exitY=0.5;exitDx=0;exitDy=0;entryX=0;entryY=0.5;entryDx=0;entryDy=0;" parent="1" source="CfgRg5aXCrRDhNuQEp0G-167" target="CfgRg5aXCrRDhNuQEp0G-169" edge="1">
          <mxGeometry width="50" height="50" relative="1" as="geometry">
            <mxPoint x="1320" y="768.1800000000001" as="sourcePoint" />
            <mxPoint x="1295" y="653.1800000000001" as="targetPoint" />
          </mxGeometry>
        </mxCell>
        <mxCell id="CfgRg5aXCrRDhNuQEp0G-172" value="Parameters" style="endArrow=classic;html=1;rounded=0;entryX=0;entryY=0.75;entryDx=0;entryDy=0;exitX=1;exitY=0.25;exitDx=0;exitDy=0;" parent="1" source="CfgRg5aXCrRDhNuQEp0G-163" target="4Zit7KkpfHQfQK_u-nDv-27" edge="1">
          <mxGeometry x="-0.1605" y="8" width="50" height="50" relative="1" as="geometry">
            <mxPoint x="1780" y="273.18000000000006" as="sourcePoint" />
            <mxPoint x="1703.4314575050767" y="739.9998051533946" as="targetPoint" />
            <mxPoint as="offset" />
          </mxGeometry>
        </mxCell>
        <mxCell id="CfgRg5aXCrRDhNuQEp0G-173" value="signal value program will use for &lt;br&gt;calculation / drive in modes&amp;nbsp;" style="shape=flexArrow;endArrow=classic;html=1;rounded=0;entryX=0;entryY=0.5;entryDx=0;entryDy=0;exitX=1;exitY=0.5;exitDx=0;exitDy=0;" parent="1" source="CfgRg5aXCrRDhNuQEp0G-169" target="4Zit7KkpfHQfQK_u-nDv-27" edge="1">
          <mxGeometry x="-0.0326" y="5" width="50" height="50" relative="1" as="geometry">
            <mxPoint x="1630" y="198.18000000000006" as="sourcePoint" />
            <mxPoint x="1680" y="708.1800000000001" as="targetPoint" />
            <mxPoint as="offset" />
          </mxGeometry>
        </mxCell>
        <mxCell id="CfgRg5aXCrRDhNuQEp0G-174" value="sig" style="endArrow=classic;html=1;rounded=0;entryX=0;entryY=0;entryDx=0;entryDy=0;exitX=1;exitY=0.5;exitDx=0;exitDy=0;" parent="1" source="CfgRg5aXCrRDhNuQEp0G-169" target="CfgRg5aXCrRDhNuQEp0G-163" edge="1">
          <mxGeometry width="50" height="50" relative="1" as="geometry">
            <mxPoint x="1480" y="698.1800000000001" as="sourcePoint" />
            <mxPoint x="1430" y="533.1800000000001" as="targetPoint" />
          </mxGeometry>
        </mxCell>
        <mxCell id="CfgRg5aXCrRDhNuQEp0G-175" value="sig" style="endArrow=classic;html=1;rounded=0;entryX=0;entryY=1;entryDx=0;entryDy=0;exitX=1;exitY=0.5;exitDx=0;exitDy=0;" parent="1" source="CfgRg5aXCrRDhNuQEp0G-141" target="CfgRg5aXCrRDhNuQEp0G-93" edge="1">
          <mxGeometry width="50" height="50" relative="1" as="geometry">
            <mxPoint x="1330" y="801.8200000000002" as="sourcePoint" />
            <mxPoint x="1380" y="726.8200000000002" as="targetPoint" />
          </mxGeometry>
        </mxCell>
        <mxCell id="CfgRg5aXCrRDhNuQEp0G-204" value="Boom/Jib and roller tilt angle" style="shape=flexArrow;endArrow=classic;html=1;rounded=0;exitX=1;exitY=0.5;exitDx=0;exitDy=0;entryX=0;entryY=0;entryDx=0;entryDy=0;endWidth=17.647058823529413;endSize=5.152941176470589;" parent="1" source="CfgRg5aXCrRDhNuQEp0G-44" target="4Zit7KkpfHQfQK_u-nDv-2" edge="1">
          <mxGeometry x="0.3336" y="5" width="50" height="50" relative="1" as="geometry">
            <mxPoint x="1700" y="940.0000000000001" as="sourcePoint" />
            <mxPoint x="2410" y="972.5000000000001" as="targetPoint" />
            <mxPoint as="offset" />
          </mxGeometry>
        </mxCell>
        <mxCell id="CfgRg5aXCrRDhNuQEp0G-206" value="&lt;b&gt;PWM drive.&lt;/b&gt;&lt;br&gt;Skalering av input som skal tilsvare&lt;br&gt;et start pwm parameter&lt;br&gt;2s max pwm parameter" style="rounded=1;whiteSpace=wrap;html=1;" parent="1" vertex="1">
          <mxGeometry x="3180" y="982.5000000000001" width="130" height="70" as="geometry" />
        </mxCell>
        <mxCell id="CfgRg5aXCrRDhNuQEp0G-207" value="&lt;b&gt;Opp/Ned ramping&lt;/b&gt;&lt;br&gt;Parameter for opp&lt;br&gt;Parameter for ned" style="rounded=1;whiteSpace=wrap;html=1;" parent="1" vertex="1">
          <mxGeometry x="2990" y="987.5000000000001" width="120" height="60" as="geometry" />
        </mxCell>
        <mxCell id="CfgRg5aXCrRDhNuQEp0G-208" value="&lt;b&gt;Virtuel simulator&lt;br&gt;OPC UA&lt;/b&gt;" style="shape=ext;double=1;rounded=1;whiteSpace=wrap;html=1;" parent="1" vertex="1">
          <mxGeometry x="3090" y="1072.5000000000002" width="120" height="80" as="geometry" />
        </mxCell>
        <mxCell id="CfgRg5aXCrRDhNuQEp0G-209" value="" style="endArrow=classic;html=1;rounded=0;entryX=0.5;entryY=1;entryDx=0;entryDy=0;exitX=0.5;exitY=1;exitDx=0;exitDy=0;" parent="1" source="CfgRg5aXCrRDhNuQEp0G-208" target="CfgRg5aXCrRDhNuQEp0G-208" edge="1">
          <mxGeometry width="50" height="50" relative="1" as="geometry">
            <mxPoint x="3150" y="977.5000000000001" as="sourcePoint" />
            <mxPoint x="2930" y="1297.5000000000002" as="targetPoint" />
          </mxGeometry>
        </mxCell>
        <mxCell id="CfgRg5aXCrRDhNuQEp0G-210" value="&lt;b&gt;PWM drive.&lt;br&gt;&lt;/b&gt;Skalering av input som skal tilsvare&lt;br&gt;et start pwm parameter&lt;br&gt;2s max pwm parameter" style="rounded=1;whiteSpace=wrap;html=1;" parent="1" vertex="1">
          <mxGeometry x="3180" y="1177.5000000000002" width="130" height="70" as="geometry" />
        </mxCell>
        <mxCell id="CfgRg5aXCrRDhNuQEp0G-211" value="&lt;b&gt;Opp/Ned ramping&lt;/b&gt;&lt;br&gt;Parameter for opp&lt;br&gt;Parameter for ned" style="rounded=1;whiteSpace=wrap;html=1;" parent="1" vertex="1">
          <mxGeometry x="2990" y="1182.5000000000002" width="120" height="60" as="geometry" />
        </mxCell>
        <mxCell id="CfgRg5aXCrRDhNuQEp0G-213" value="Z+" style="endArrow=classic;html=1;rounded=0;exitX=1;exitY=0.5;exitDx=0;exitDy=0;entryX=0.25;entryY=0;entryDx=0;entryDy=0;" parent="1" source="CfgRg5aXCrRDhNuQEp0G-207" target="CfgRg5aXCrRDhNuQEp0G-208" edge="1">
          <mxGeometry width="50" height="50" relative="1" as="geometry">
            <mxPoint x="2880" y="1347.5000000000002" as="sourcePoint" />
            <mxPoint x="3120" y="1062.5000000000002" as="targetPoint" />
          </mxGeometry>
        </mxCell>
        <mxCell id="CfgRg5aXCrRDhNuQEp0G-214" value="Z-" style="endArrow=classic;html=1;rounded=0;exitX=1;exitY=0.5;exitDx=0;exitDy=0;entryX=0.25;entryY=1;entryDx=0;entryDy=0;" parent="1" source="CfgRg5aXCrRDhNuQEp0G-211" target="CfgRg5aXCrRDhNuQEp0G-208" edge="1">
          <mxGeometry x="-0.027" y="5" width="50" height="50" relative="1" as="geometry">
            <mxPoint x="3120" y="1057.5000000000002" as="sourcePoint" />
            <mxPoint x="3140" y="957.5000000000001" as="targetPoint" />
            <Array as="points" />
            <mxPoint as="offset" />
          </mxGeometry>
        </mxCell>
        <mxCell id="CfgRg5aXCrRDhNuQEp0G-215" value="" style="shape=flexArrow;endArrow=classic;html=1;rounded=0;exitX=1;exitY=0.5;exitDx=0;exitDy=0;" parent="1" source="CfgRg5aXCrRDhNuQEp0G-206" edge="1">
          <mxGeometry width="50" height="50" relative="1" as="geometry">
            <mxPoint x="3380" y="1052.5000000000002" as="sourcePoint" />
            <mxPoint x="3360" y="1017.5000000000002" as="targetPoint" />
            <Array as="points" />
          </mxGeometry>
        </mxCell>
        <mxCell id="CfgRg5aXCrRDhNuQEp0G-216" value="pinout&lt;br&gt;" style="edgeLabel;html=1;align=center;verticalAlign=middle;resizable=0;points=[];" parent="CfgRg5aXCrRDhNuQEp0G-215" vertex="1" connectable="0">
          <mxGeometry x="0.2" y="-6" relative="1" as="geometry">
            <mxPoint x="-11" y="-6" as="offset" />
          </mxGeometry>
        </mxCell>
        <mxCell id="CfgRg5aXCrRDhNuQEp0G-217" value="" style="shape=flexArrow;endArrow=classic;html=1;rounded=0;" parent="1" source="CfgRg5aXCrRDhNuQEp0G-210" edge="1">
          <mxGeometry width="50" height="50" relative="1" as="geometry">
            <mxPoint x="3320" y="1205.64" as="sourcePoint" />
            <mxPoint x="3360" y="1212.5000000000002" as="targetPoint" />
            <Array as="points" />
          </mxGeometry>
        </mxCell>
        <mxCell id="CfgRg5aXCrRDhNuQEp0G-218" value="pinout&lt;br&gt;" style="edgeLabel;html=1;align=center;verticalAlign=middle;resizable=0;points=[];" parent="CfgRg5aXCrRDhNuQEp0G-217" vertex="1" connectable="0">
          <mxGeometry x="0.2" y="-6" relative="1" as="geometry">
            <mxPoint x="-11" y="-6" as="offset" />
          </mxGeometry>
        </mxCell>
        <mxCell id="CfgRg5aXCrRDhNuQEp0G-219" value="" style="shape=flexArrow;endArrow=classic;html=1;rounded=0;exitX=1;exitY=0.5;exitDx=0;exitDy=0;entryX=0;entryY=0.5;entryDx=0;entryDy=0;" parent="1" source="CfgRg5aXCrRDhNuQEp0G-211" target="CfgRg5aXCrRDhNuQEp0G-210" edge="1">
          <mxGeometry width="50" height="50" relative="1" as="geometry">
            <mxPoint x="2540" y="1466.14" as="sourcePoint" />
            <mxPoint x="2590" y="1416.14" as="targetPoint" />
          </mxGeometry>
        </mxCell>
        <mxCell id="CfgRg5aXCrRDhNuQEp0G-220" value="" style="shape=flexArrow;endArrow=classic;html=1;rounded=0;exitX=1;exitY=0.5;exitDx=0;exitDy=0;entryX=0;entryY=0.5;entryDx=0;entryDy=0;" parent="1" source="CfgRg5aXCrRDhNuQEp0G-207" target="CfgRg5aXCrRDhNuQEp0G-206" edge="1">
          <mxGeometry width="50" height="50" relative="1" as="geometry">
            <mxPoint x="2560" y="1387.5000000000002" as="sourcePoint" />
            <mxPoint x="2610" y="1337.5000000000002" as="targetPoint" />
          </mxGeometry>
        </mxCell>
        <mxCell id="CfgRg5aXCrRDhNuQEp0G-221" value="&lt;h1&gt;Auto Roller Tilt&lt;/h1&gt;&lt;div&gt;summerer boom/jib og roller tilt vinkel, og beregner til ønske roller tilt vinkel som skal være loddrett&lt;/div&gt;&lt;div&gt;PID regulering og der igjen er form for drive signal til roller tilt inntil ønsket verdi/posisjon&lt;/div&gt;&lt;div&gt;div kvalitetssjekk må kontrolleres&amp;nbsp;&lt;/div&gt;&lt;div&gt;* vil ikke funke innenfor en hvis range ved parkering av rolleren, og ikke hvis cylinderen ikke kan kjøre lengere ut, dette skal man få feedback på&lt;/div&gt;" style="text;html=1;strokeColor=none;fillColor=none;spacing=5;spacingTop=-20;whiteSpace=wrap;overflow=hidden;rounded=0;" parent="1" vertex="1">
          <mxGeometry x="2800" y="840.0000000000001" width="584" height="130" as="geometry" />
        </mxCell>
        <mxCell id="CfgRg5aXCrRDhNuQEp0G-222" value="&lt;b&gt;DEADZONE&lt;/b&gt;&lt;br&gt;en hvis minimum vinkel verdi for å slippe div småkjøringer" style="rounded=1;whiteSpace=wrap;html=1;" parent="1" vertex="1">
          <mxGeometry x="2650" y="1167.5000000000002" width="120" height="90" as="geometry" />
        </mxCell>
        <mxCell id="CfgRg5aXCrRDhNuQEp0G-223" value="&lt;b&gt;Selector&lt;/b&gt;&lt;br&gt;retning må vi regulere på" style="rounded=1;whiteSpace=wrap;html=1;" parent="1" vertex="1">
          <mxGeometry x="2450" y="1092.5000000000002" width="120" height="60" as="geometry" />
        </mxCell>
        <mxCell id="CfgRg5aXCrRDhNuQEp0G-224" value="&lt;b&gt;PID REGULATOR&lt;/b&gt;&lt;br&gt;" style="rounded=1;whiteSpace=wrap;html=1;" parent="1" vertex="1">
          <mxGeometry x="2840" y="1182.5000000000002" width="120" height="60" as="geometry" />
        </mxCell>
        <mxCell id="CfgRg5aXCrRDhNuQEp0G-225" value="" style="shape=flexArrow;endArrow=classic;html=1;rounded=0;exitX=0.5;exitY=1;exitDx=0;exitDy=0;entryX=0.5;entryY=0;entryDx=0;entryDy=0;" parent="1" source="4Zit7KkpfHQfQK_u-nDv-2" target="CfgRg5aXCrRDhNuQEp0G-223" edge="1">
          <mxGeometry width="50" height="50" relative="1" as="geometry">
            <mxPoint x="2500" y="1032.5000000000002" as="sourcePoint" />
            <mxPoint x="2500" y="790.0000000000001" as="targetPoint" />
          </mxGeometry>
        </mxCell>
        <mxCell id="CfgRg5aXCrRDhNuQEp0G-232" value="" style="shape=flexArrow;endArrow=classic;html=1;rounded=0;exitX=1;exitY=0.5;exitDx=0;exitDy=0;entryX=0;entryY=0.5;entryDx=0;entryDy=0;" parent="1" source="CfgRg5aXCrRDhNuQEp0G-222" target="CfgRg5aXCrRDhNuQEp0G-224" edge="1">
          <mxGeometry width="50" height="50" relative="1" as="geometry">
            <mxPoint x="2990" y="900.0000000000001" as="sourcePoint" />
            <mxPoint x="3070" y="900.0000000000001" as="targetPoint" />
          </mxGeometry>
        </mxCell>
        <mxCell id="CfgRg5aXCrRDhNuQEp0G-233" value="snail/hare" style="endArrow=classic;html=1;rounded=0;exitX=0;exitY=0.5;exitDx=0;exitDy=0;entryX=1;entryY=0.5;entryDx=0;entryDy=0;" parent="1" source="CfgRg5aXCrRDhNuQEp0G-8" target="CfgRg5aXCrRDhNuQEp0G-7" edge="1">
          <mxGeometry width="50" height="50" relative="1" as="geometry">
            <mxPoint x="450" y="2140" as="sourcePoint" />
            <mxPoint x="500" y="2090" as="targetPoint" />
          </mxGeometry>
        </mxCell>
        <mxCell id="CfgRg5aXCrRDhNuQEp0G-234" value="snail/hare" style="endArrow=classic;html=1;rounded=0;exitX=0;exitY=1;exitDx=0;exitDy=0;entryX=0.75;entryY=0;entryDx=0;entryDy=0;" parent="1" source="CfgRg5aXCrRDhNuQEp0G-8" target="CfgRg5aXCrRDhNuQEp0G-14" edge="1">
          <mxGeometry width="50" height="50" relative="1" as="geometry">
            <mxPoint x="200.00000000003456" y="1800" as="sourcePoint" />
            <mxPoint x="110" y="1800" as="targetPoint" />
          </mxGeometry>
        </mxCell>
        <mxCell id="CfgRg5aXCrRDhNuQEp0G-235" value="snail/hare" style="endArrow=classic;html=1;rounded=0;exitX=0;exitY=0;exitDx=0;exitDy=0;entryX=0.75;entryY=1;entryDx=0;entryDy=0;" parent="1" source="CfgRg5aXCrRDhNuQEp0G-8" target="n_Epf15kypgvmBv_eyfg-4" edge="1">
          <mxGeometry width="50" height="50" relative="1" as="geometry">
            <mxPoint x="210.00000000003456" y="1810" as="sourcePoint" />
            <mxPoint x="120" y="1810" as="targetPoint" />
          </mxGeometry>
        </mxCell>
        <mxCell id="CfgRg5aXCrRDhNuQEp0G-236" value="utpakking av datapakker fra radio (PDO) (vippebryterne)" style="ellipse;whiteSpace=wrap;html=1;" parent="1" vertex="1">
          <mxGeometry x="3280" y="1072.4999999999998" width="120" height="80" as="geometry" />
        </mxCell>
        <mxCell id="CfgRg5aXCrRDhNuQEp0G-237" value="snail/hare" style="endArrow=classic;html=1;rounded=0;exitX=0;exitY=0.5;exitDx=0;exitDy=0;entryX=1;entryY=0.5;entryDx=0;entryDy=0;" parent="1" source="CfgRg5aXCrRDhNuQEp0G-236" target="CfgRg5aXCrRDhNuQEp0G-208" edge="1">
          <mxGeometry width="50" height="50" relative="1" as="geometry">
            <mxPoint x="3590" y="1466.14" as="sourcePoint" />
            <mxPoint x="3240" y="1116.14" as="targetPoint" />
          </mxGeometry>
        </mxCell>
        <mxCell id="CfgRg5aXCrRDhNuQEp0G-238" value="snail/hare" style="endArrow=classic;html=1;rounded=0;exitX=0;exitY=1;exitDx=0;exitDy=0;entryX=0.75;entryY=0;entryDx=0;entryDy=0;" parent="1" source="CfgRg5aXCrRDhNuQEp0G-236" target="CfgRg5aXCrRDhNuQEp0G-210" edge="1">
          <mxGeometry width="50" height="50" relative="1" as="geometry">
            <mxPoint x="3340.0000000000346" y="1126.14" as="sourcePoint" />
            <mxPoint x="3305" y="1186.14" as="targetPoint" />
          </mxGeometry>
        </mxCell>
        <mxCell id="CfgRg5aXCrRDhNuQEp0G-239" value="snail/hare" style="endArrow=classic;html=1;rounded=0;exitX=0;exitY=0;exitDx=0;exitDy=0;entryX=0.75;entryY=1;entryDx=0;entryDy=0;" parent="1" source="CfgRg5aXCrRDhNuQEp0G-236" target="CfgRg5aXCrRDhNuQEp0G-206" edge="1">
          <mxGeometry width="50" height="50" relative="1" as="geometry">
            <mxPoint x="3350.0000000000346" y="1136.14" as="sourcePoint" />
            <mxPoint x="3297.5" y="1062.5000000000007" as="targetPoint" />
          </mxGeometry>
        </mxCell>
        <mxCell id="CfgRg5aXCrRDhNuQEp0G-241" value="" style="shape=flexArrow;endArrow=classic;html=1;rounded=0;exitX=1;exitY=0.5;exitDx=0;exitDy=0;entryX=0;entryY=0.5;entryDx=0;entryDy=0;" parent="1" source="CfgRg5aXCrRDhNuQEp0G-224" target="CfgRg5aXCrRDhNuQEp0G-211" edge="1">
          <mxGeometry width="50" height="50" relative="1" as="geometry">
            <mxPoint x="2720" y="1035.0000000000002" as="sourcePoint" />
            <mxPoint x="2720" y="1090.0000000000002" as="targetPoint" />
          </mxGeometry>
        </mxCell>
        <mxCell id="CfgRg5aXCrRDhNuQEp0G-242" value="" style="shape=flexArrow;endArrow=classic;html=1;rounded=0;exitX=1;exitY=0.5;exitDx=0;exitDy=0;entryX=0;entryY=0.5;entryDx=0;entryDy=0;" parent="1" source="CfgRg5aXCrRDhNuQEp0G-244" target="CfgRg5aXCrRDhNuQEp0G-207" edge="1">
          <mxGeometry width="50" height="50" relative="1" as="geometry">
            <mxPoint x="2730" y="1045.0000000000002" as="sourcePoint" />
            <mxPoint x="2730" y="1100.0000000000002" as="targetPoint" />
          </mxGeometry>
        </mxCell>
        <mxCell id="CfgRg5aXCrRDhNuQEp0G-243" value="&lt;b&gt;DEADZONE&lt;/b&gt;&lt;br&gt;en hvis minimum vinkel verdi for å slippe div småkjøringer" style="rounded=1;whiteSpace=wrap;html=1;" parent="1" vertex="1">
          <mxGeometry x="2650" y="972.5000000000001" width="120" height="90" as="geometry" />
        </mxCell>
        <mxCell id="CfgRg5aXCrRDhNuQEp0G-244" value="&lt;b&gt;PID REGULATOR&lt;/b&gt;&lt;br&gt;" style="rounded=1;whiteSpace=wrap;html=1;" parent="1" vertex="1">
          <mxGeometry x="2840" y="987.5000000000001" width="120" height="60" as="geometry" />
        </mxCell>
        <mxCell id="CfgRg5aXCrRDhNuQEp0G-245" value="" style="shape=flexArrow;endArrow=classic;html=1;rounded=0;exitX=1;exitY=0.5;exitDx=0;exitDy=0;entryX=0;entryY=0.5;entryDx=0;entryDy=0;" parent="1" source="CfgRg5aXCrRDhNuQEp0G-243" target="CfgRg5aXCrRDhNuQEp0G-244" edge="1">
          <mxGeometry width="50" height="50" relative="1" as="geometry">
            <mxPoint x="2980" y="772.5000000000001" as="sourcePoint" />
            <mxPoint x="3060" y="772.5000000000001" as="targetPoint" />
          </mxGeometry>
        </mxCell>
        <mxCell id="CfgRg5aXCrRDhNuQEp0G-249" value="" style="shape=flexArrow;endArrow=classic;html=1;rounded=0;exitX=1;exitY=1;exitDx=0;exitDy=0;entryX=0;entryY=0.5;entryDx=0;entryDy=0;" parent="1" source="CfgRg5aXCrRDhNuQEp0G-223" target="CfgRg5aXCrRDhNuQEp0G-222" edge="1">
          <mxGeometry width="50" height="50" relative="1" as="geometry">
            <mxPoint x="2710" y="930.0000000000001" as="sourcePoint" />
            <mxPoint x="2530" y="990.0000000000001" as="targetPoint" />
          </mxGeometry>
        </mxCell>
        <mxCell id="CfgRg5aXCrRDhNuQEp0G-250" value="" style="shape=flexArrow;endArrow=classic;html=1;rounded=0;exitX=1;exitY=0;exitDx=0;exitDy=0;entryX=0;entryY=0.5;entryDx=0;entryDy=0;" parent="1" source="CfgRg5aXCrRDhNuQEp0G-223" target="CfgRg5aXCrRDhNuQEp0G-243" edge="1">
          <mxGeometry width="50" height="50" relative="1" as="geometry">
            <mxPoint x="2720" y="940.0000000000001" as="sourcePoint" />
            <mxPoint x="2540" y="1000.0000000000002" as="targetPoint" />
          </mxGeometry>
        </mxCell>
        <mxCell id="CfgRg5aXCrRDhNuQEp0G-251" value="&lt;b&gt;quality code/&lt;br&gt;Watch dog&lt;/b&gt;" style="rounded=1;whiteSpace=wrap;html=1;" parent="1" vertex="1">
          <mxGeometry x="2280" y="1092.5000000000002" width="120" height="60" as="geometry" />
        </mxCell>
        <mxCell id="CfgRg5aXCrRDhNuQEp0G-252" value="&lt;b&gt;HMI program/&lt;br&gt;operating screen&amp;nbsp;&lt;/b&gt;" style="ellipse;whiteSpace=wrap;html=1;" parent="1" vertex="1">
          <mxGeometry x="2280" y="1200.0000000000002" width="120" height="80" as="geometry" />
        </mxCell>
        <mxCell id="CfgRg5aXCrRDhNuQEp0G-253" value="alarm/feedback" style="endArrow=classic;html=1;rounded=0;exitX=0.5;exitY=1;exitDx=0;exitDy=0;entryX=0.5;entryY=0;entryDx=0;entryDy=0;" parent="1" source="CfgRg5aXCrRDhNuQEp0G-251" target="CfgRg5aXCrRDhNuQEp0G-252" edge="1">
          <mxGeometry width="50" height="50" relative="1" as="geometry">
            <mxPoint x="2480" y="1585.0000000000002" as="sourcePoint" />
            <mxPoint x="2530" y="1535.0000000000002" as="targetPoint" />
          </mxGeometry>
        </mxCell>
        <mxCell id="CfgRg5aXCrRDhNuQEp0G-254" value="pro 3&lt;br&gt;outside drive range" style="endArrow=classic;html=1;rounded=0;exitX=0;exitY=1;exitDx=0;exitDy=0;entryX=0.5;entryY=0;entryDx=0;entryDy=0;" parent="1" source="4Zit7KkpfHQfQK_u-nDv-2" target="CfgRg5aXCrRDhNuQEp0G-251" edge="1">
          <mxGeometry width="50" height="50" relative="1" as="geometry">
            <mxPoint x="2455" y="1032.5000000000002" as="sourcePoint" />
            <mxPoint x="2340" y="1250.0000000000002" as="targetPoint" />
          </mxGeometry>
        </mxCell>
        <mxCell id="CfgRg5aXCrRDhNuQEp0G-255" value="utpakking av datapakker fra radio (PDO) (vippebryterne)" style="ellipse;whiteSpace=wrap;html=1;" parent="1" vertex="1">
          <mxGeometry x="2460" y="770.0000000000001" width="120" height="80" as="geometry" />
        </mxCell>
        <mxCell id="CfgRg5aXCrRDhNuQEp0G-256" value="Auto Roller tilt" style="endArrow=classic;html=1;rounded=0;exitX=0.5;exitY=1;exitDx=0;exitDy=0;entryX=0.5;entryY=0;entryDx=0;entryDy=0;" parent="1" source="CfgRg5aXCrRDhNuQEp0G-255" target="4Zit7KkpfHQfQK_u-nDv-2" edge="1">
          <mxGeometry width="50" height="50" relative="1" as="geometry">
            <mxPoint x="2290" y="470" as="sourcePoint" />
            <mxPoint x="2500" y="972.5000000000001" as="targetPoint" />
          </mxGeometry>
        </mxCell>
        <mxCell id="CfgRg5aXCrRDhNuQEp0G-259" value="&lt;h1&gt;Heavy lift&lt;/h1&gt;&lt;p&gt;Heavy lift mode har flere spec, eks, vanlig lengde begrensning, m/u vinsj trykk/flow bypass, deselect av 2. vinsj osv, dette må på sikt fåes en oversikt over, men vi forholder oss til lengde begrensning.&lt;/p&gt;&lt;p&gt;* vil ikke kunne aktivere heavylift hvis man er utenfor heavylift range, i operasjon og når endepunktene er nådd så skal man få en form for feedback&lt;br&gt;* legge til ekstra pwm reduksjon?&lt;/p&gt;" style="text;html=1;strokeColor=none;fillColor=none;spacing=5;spacingTop=-20;whiteSpace=wrap;overflow=hidden;rounded=0;" parent="1" vertex="1">
          <mxGeometry x="2550" y="222.44" width="560" height="157.56" as="geometry" />
        </mxCell>
        <mxCell id="CfgRg5aXCrRDhNuQEp0G-260" value="Boom/Jib angle" style="shape=flexArrow;endArrow=classic;html=1;rounded=0;exitX=0.961;exitY=0.23;exitDx=0;exitDy=0;exitPerimeter=0;entryX=0;entryY=1;entryDx=0;entryDy=0;" parent="1" source="CfgRg5aXCrRDhNuQEp0G-44" target="4Zit7KkpfHQfQK_u-nDv-1" edge="1">
          <mxGeometry width="50" height="50" relative="1" as="geometry">
            <mxPoint x="2520" y="770.0000000000001" as="sourcePoint" />
            <mxPoint x="2510" y="500" as="targetPoint" />
          </mxGeometry>
        </mxCell>
        <mxCell id="CfgRg5aXCrRDhNuQEp0G-264" value="Heavy lift" style="endArrow=classic;html=1;rounded=0;exitX=0.5;exitY=0;exitDx=0;exitDy=0;entryX=0.5;entryY=1;entryDx=0;entryDy=0;" parent="1" source="CfgRg5aXCrRDhNuQEp0G-255" target="4Zit7KkpfHQfQK_u-nDv-1" edge="1">
          <mxGeometry x="-0.0292" y="-6" width="50" height="50" relative="1" as="geometry">
            <mxPoint x="2530" y="860.0000000000001" as="sourcePoint" />
            <mxPoint x="2580" y="500" as="targetPoint" />
            <mxPoint as="offset" />
          </mxGeometry>
        </mxCell>
        <mxCell id="4Zit7KkpfHQfQK_u-nDv-1" value="&lt;b&gt;Heavy lift&lt;/b&gt;&lt;br&gt;heavy lift spec and control&lt;br&gt;execution" style="ellipse;whiteSpace=wrap;html=1;" vertex="1" parent="1">
          <mxGeometry x="2460" y="465" width="165" height="120" as="geometry" />
        </mxCell>
        <mxCell id="4Zit7KkpfHQfQK_u-nDv-2" value="&#xa;&#xa;&lt;b style=&quot;color: rgb(0, 0, 0); font-family: helvetica; font-size: 12px; font-style: normal; letter-spacing: normal; text-align: center; text-indent: 0px; text-transform: none; word-spacing: 0px; background-color: rgb(248, 249, 250);&quot;&gt;Roller tilt beregninger&lt;/b&gt;&lt;br style=&quot;color: rgb(0, 0, 0); font-family: helvetica; font-size: 12px; font-style: normal; font-weight: 400; letter-spacing: normal; text-align: center; text-indent: 0px; text-transform: none; word-spacing: 0px; background-color: rgb(248, 249, 250);&quot;&gt;&lt;span style=&quot;color: rgb(0, 0, 0); font-family: helvetica; font-size: 12px; font-style: normal; font-weight: 400; letter-spacing: normal; text-align: center; text-indent: 0px; text-transform: none; word-spacing: 0px; background-color: rgb(248, 249, 250); display: inline; float: none;&quot;&gt;summerer vinklene og beregner avviket mellom roller vinkel til loddrett.&lt;/span&gt;&#xa;&#xa;" style="ellipse;whiteSpace=wrap;html=1;" vertex="1" parent="1">
          <mxGeometry x="2420" y="925.0000000000001" width="180" height="110" as="geometry" />
        </mxCell>
        <mxCell id="4Zit7KkpfHQfQK_u-nDv-3" value="&lt;b&gt;Operation range&lt;/b&gt;&lt;br&gt;crane is in heavy life mode, and operating" style="rounded=1;whiteSpace=wrap;html=1;" vertex="1" parent="1">
          <mxGeometry x="2880" y="350" width="120" height="60" as="geometry" />
        </mxCell>
        <mxCell id="4Zit7KkpfHQfQK_u-nDv-6" value="&lt;b&gt;Lengde begrensninger&lt;/b&gt;&lt;br&gt;&lt;span&gt;maximum and minimum or other heavy lift length range operation&lt;/span&gt;" style="rounded=1;whiteSpace=wrap;html=1;" vertex="1" parent="1">
          <mxGeometry x="2680" y="420" width="160" height="80" as="geometry" />
        </mxCell>
        <mxCell id="4Zit7KkpfHQfQK_u-nDv-7" value="" style="shape=flexArrow;endArrow=classic;html=1;rounded=0;exitX=1;exitY=0;exitDx=0;exitDy=0;entryX=0;entryY=0.5;entryDx=0;entryDy=0;" edge="1" parent="1" source="4Zit7KkpfHQfQK_u-nDv-1" target="4Zit7KkpfHQfQK_u-nDv-6">
          <mxGeometry width="50" height="50" relative="1" as="geometry">
            <mxPoint x="2260" y="510.00000000000006" as="sourcePoint" />
            <mxPoint x="2310" y="460" as="targetPoint" />
          </mxGeometry>
        </mxCell>
        <mxCell id="4Zit7KkpfHQfQK_u-nDv-8" value="div verdier" style="endArrow=classic;html=1;rounded=0;exitX=0;exitY=0.5;exitDx=0;exitDy=0;entryX=1;entryY=0;entryDx=0;entryDy=0;" edge="1" parent="1" source="4Zit7KkpfHQfQK_u-nDv-1" target="CfgRg5aXCrRDhNuQEp0G-134">
          <mxGeometry x="-0.1298" y="3" width="50" height="50" relative="1" as="geometry">
            <mxPoint x="2342.1751442127215" y="857.5735931288078" as="sourcePoint" />
            <mxPoint x="2340.5313892436034" y="704.9987867129968" as="targetPoint" />
            <mxPoint as="offset" />
          </mxGeometry>
        </mxCell>
        <mxCell id="4Zit7KkpfHQfQK_u-nDv-9" value="" style="shape=flexArrow;endArrow=classic;html=1;rounded=0;entryX=0;entryY=0.5;entryDx=0;entryDy=0;exitX=1;exitY=0;exitDx=0;exitDy=0;" edge="1" parent="1" source="4Zit7KkpfHQfQK_u-nDv-6" target="4Zit7KkpfHQfQK_u-nDv-3">
          <mxGeometry width="50" height="50" relative="1" as="geometry">
            <mxPoint x="2260" y="610.0000000000001" as="sourcePoint" />
            <mxPoint x="2310" y="560.0000000000001" as="targetPoint" />
          </mxGeometry>
        </mxCell>
        <mxCell id="4Zit7KkpfHQfQK_u-nDv-10" value="" style="shape=flexArrow;endArrow=classic;html=1;rounded=0;exitX=1;exitY=1;exitDx=0;exitDy=0;entryX=0;entryY=0.5;entryDx=0;entryDy=0;" edge="1" parent="1" source="4Zit7KkpfHQfQK_u-nDv-6" target="4Zit7KkpfHQfQK_u-nDv-11">
          <mxGeometry width="50" height="50" relative="1" as="geometry">
            <mxPoint x="2850" y="585.0000000000001" as="sourcePoint" />
            <mxPoint x="2860" y="510.00000000000006" as="targetPoint" />
          </mxGeometry>
        </mxCell>
        <mxCell id="4Zit7KkpfHQfQK_u-nDv-11" value="Range barriers&lt;br&gt;&lt;span style=&quot;font-weight: normal&quot;&gt;preventing operation outside heavy lift range&lt;/span&gt;" style="rounded=1;whiteSpace=wrap;html=1;fontStyle=1" vertex="1" parent="1">
          <mxGeometry x="2880" y="510.00000000000006" width="120" height="60" as="geometry" />
        </mxCell>
        <mxCell id="4Zit7KkpfHQfQK_u-nDv-13" value="&lt;b&gt;quality code/&lt;br&gt;Watch dog&lt;/b&gt;" style="rounded=1;whiteSpace=wrap;html=1;" vertex="1" parent="1">
          <mxGeometry x="2880" y="610.0000000000001" width="120" height="60" as="geometry" />
        </mxCell>
        <mxCell id="4Zit7KkpfHQfQK_u-nDv-14" value="&lt;b&gt;HMI program/&lt;br&gt;operating screen&amp;nbsp;&lt;/b&gt;" style="ellipse;whiteSpace=wrap;html=1;" vertex="1" parent="1">
          <mxGeometry x="2880" y="705.0000000000001" width="120" height="80" as="geometry" />
        </mxCell>
        <mxCell id="4Zit7KkpfHQfQK_u-nDv-15" value="alarm/feedback" style="endArrow=classic;html=1;rounded=0;exitX=0.5;exitY=1;exitDx=0;exitDy=0;entryX=0.5;entryY=0;entryDx=0;entryDy=0;" edge="1" parent="1" source="4Zit7KkpfHQfQK_u-nDv-13" target="4Zit7KkpfHQfQK_u-nDv-14">
          <mxGeometry width="50" height="50" relative="1" as="geometry">
            <mxPoint x="3080" y="1102.5000000000002" as="sourcePoint" />
            <mxPoint x="3130" y="1052.5000000000002" as="targetPoint" />
          </mxGeometry>
        </mxCell>
        <mxCell id="4Zit7KkpfHQfQK_u-nDv-16" value="pro 3&lt;br&gt;outside drive range" style="endArrow=classic;html=1;rounded=0;exitX=0.5;exitY=1;exitDx=0;exitDy=0;entryX=0.5;entryY=0;entryDx=0;entryDy=0;" edge="1" parent="1" target="4Zit7KkpfHQfQK_u-nDv-13" source="4Zit7KkpfHQfQK_u-nDv-11">
          <mxGeometry width="50" height="50" relative="1" as="geometry">
            <mxPoint x="2806.360389693211" y="519.4408729652599" as="sourcePoint" />
            <mxPoint x="2700" y="750.5500000000001" as="targetPoint" />
          </mxGeometry>
        </mxCell>
        <mxCell id="4Zit7KkpfHQfQK_u-nDv-17" value="block PWM output signal in program&lt;br&gt;and deaktivate stop valves on crane" style="shape=flexArrow;endArrow=classic;html=1;rounded=0;exitX=1;exitY=0.5;exitDx=0;exitDy=0;" edge="1" parent="1" source="4Zit7KkpfHQfQK_u-nDv-11">
          <mxGeometry width="50" height="50" relative="1" as="geometry">
            <mxPoint x="3140" y="585.0000000000001" as="sourcePoint" />
            <mxPoint x="3230" y="540.0000000000001" as="targetPoint" />
          </mxGeometry>
        </mxCell>
        <mxCell id="4Zit7KkpfHQfQK_u-nDv-20" value="heavy lift drive/execution" style="shape=flexArrow;endArrow=classic;html=1;rounded=0;exitX=1;exitY=0.5;exitDx=0;exitDy=0;" edge="1" parent="1" source="4Zit7KkpfHQfQK_u-nDv-3">
          <mxGeometry width="50" height="50" relative="1" as="geometry">
            <mxPoint x="3110" y="440" as="sourcePoint" />
            <mxPoint x="3230" y="380" as="targetPoint" />
          </mxGeometry>
        </mxCell>
        <mxCell id="4Zit7KkpfHQfQK_u-nDv-21" value="&lt;b&gt;Virtuel simulator&lt;br&gt;OPC UA&lt;/b&gt;" style="shape=ext;double=1;rounded=1;whiteSpace=wrap;html=1;" vertex="1" parent="1">
          <mxGeometry x="-465" y="1750" width="120" height="80" as="geometry" />
        </mxCell>
        <mxCell id="4Zit7KkpfHQfQK_u-nDv-22" value="drive" style="endArrow=classic;html=1;rounded=0;exitX=0.5;exitY=0;exitDx=0;exitDy=0;entryX=0.5;entryY=1;entryDx=0;entryDy=0;" edge="1" parent="1" source="4Zit7KkpfHQfQK_u-nDv-21" target="n_Epf15kypgvmBv_eyfg-3">
          <mxGeometry width="50" height="50" relative="1" as="geometry">
            <mxPoint x="-260" y="1940" as="sourcePoint" />
            <mxPoint x="-210" y="1890" as="targetPoint" />
          </mxGeometry>
        </mxCell>
        <mxCell id="4Zit7KkpfHQfQK_u-nDv-23" value="drive" style="endArrow=classic;html=1;rounded=0;exitX=0.5;exitY=1;exitDx=0;exitDy=0;entryX=0.5;entryY=0;entryDx=0;entryDy=0;" edge="1" parent="1" source="4Zit7KkpfHQfQK_u-nDv-21" target="CfgRg5aXCrRDhNuQEp0G-13">
          <mxGeometry width="50" height="50" relative="1" as="geometry">
            <mxPoint x="-260" y="1940" as="sourcePoint" />
            <mxPoint x="-210" y="1890" as="targetPoint" />
          </mxGeometry>
        </mxCell>
        <mxCell id="4Zit7KkpfHQfQK_u-nDv-24" value="crane length" style="shape=flexArrow;endArrow=classic;html=1;rounded=0;exitX=0;exitY=0;exitDx=0;exitDy=0;entryX=1;entryY=1;entryDx=0;entryDy=0;" edge="1" parent="1" source="CfgRg5aXCrRDhNuQEp0G-44" target="4Zit7KkpfHQfQK_u-nDv-25">
          <mxGeometry width="50" height="50" relative="1" as="geometry">
            <mxPoint x="1750" y="1200.0000000000002" as="sourcePoint" />
            <mxPoint x="2220" y="1520.0000000000002" as="targetPoint" />
          </mxGeometry>
        </mxCell>
        <mxCell id="4Zit7KkpfHQfQK_u-nDv-25" value="&lt;b&gt;Crane length and orientation&lt;/b&gt;&lt;br&gt;sums length and where it is facing" style="ellipse;whiteSpace=wrap;html=1;" vertex="1" parent="1">
          <mxGeometry x="1890" y="650.0000000000002" width="170" height="110" as="geometry" />
        </mxCell>
        <mxCell id="4Zit7KkpfHQfQK_u-nDv-26" value="&lt;b&gt;Orientasjon beregning&lt;/b&gt;&lt;br&gt;&lt;span&gt;vinkel beregninger i forhold til referansen/parkert stilling og antall omdreining teller&lt;/span&gt;" style="rounded=1;whiteSpace=wrap;html=1;" vertex="1" parent="1">
          <mxGeometry x="1530" y="406.82000000000016" width="160" height="70" as="geometry" />
        </mxCell>
        <mxCell id="4Zit7KkpfHQfQK_u-nDv-27" value="&lt;b&gt;Orientasjon beregning&lt;/b&gt;&lt;br&gt;&lt;span&gt;vinkel beregninger i forhold til referansen/parkert stilling og antall omdreining teller&lt;/span&gt;" style="rounded=1;whiteSpace=wrap;html=1;" vertex="1" parent="1">
          <mxGeometry x="1690" y="683.1800000000001" width="160" height="70" as="geometry" />
        </mxCell>
        <mxCell id="4Zit7KkpfHQfQK_u-nDv-28" value="" style="shape=flexArrow;endArrow=classic;html=1;rounded=0;exitX=1;exitY=0.5;exitDx=0;exitDy=0;entryX=0;entryY=1;entryDx=0;entryDy=0;" edge="1" parent="1" source="4Zit7KkpfHQfQK_u-nDv-27" target="4Zit7KkpfHQfQK_u-nDv-25">
          <mxGeometry width="50" height="50" relative="1" as="geometry">
            <mxPoint x="2020" y="1780.0000000000002" as="sourcePoint" />
            <mxPoint x="2070" y="1730.0000000000002" as="targetPoint" />
          </mxGeometry>
        </mxCell>
        <mxCell id="4Zit7KkpfHQfQK_u-nDv-29" value="" style="shape=flexArrow;endArrow=classic;html=1;rounded=0;exitX=1;exitY=0.5;exitDx=0;exitDy=0;entryX=0;entryY=0;entryDx=0;entryDy=0;" edge="1" parent="1" source="4Zit7KkpfHQfQK_u-nDv-26" target="4Zit7KkpfHQfQK_u-nDv-25">
          <mxGeometry width="50" height="50" relative="1" as="geometry">
            <mxPoint x="2020" y="1780.0000000000002" as="sourcePoint" />
            <mxPoint x="2070" y="1730.0000000000002" as="targetPoint" />
          </mxGeometry>
        </mxCell>
        <mxCell id="4Zit7KkpfHQfQK_u-nDv-31" value="&lt;font style=&quot;font-size: 12px&quot;&gt;vi tar dette gjit&lt;/font&gt;" style="text;html=1;align=center;verticalAlign=middle;resizable=0;points=[];autosize=1;strokeColor=none;fillColor=none;fontSize=36;" vertex="1" parent="1">
          <mxGeometry x="55" y="240" width="90" height="60" as="geometry" />
        </mxCell>
        <mxCell id="4Zit7KkpfHQfQK_u-nDv-33" value="&lt;b&gt;Unpack PDO&lt;/b&gt;&lt;br&gt;data from radio&lt;br&gt;levers&lt;br&gt;" style="ellipse;whiteSpace=wrap;html=1;" vertex="1" parent="1">
          <mxGeometry x="-850" y="2171.36" width="120" height="80" as="geometry" />
        </mxCell>
        <mxCell id="4Zit7KkpfHQfQK_u-nDv-34" value="&lt;b&gt;Scaling&lt;br&gt;&lt;/b&gt;&amp;nbsp;analog input signals to 0.0 - 1.0" style="rounded=1;whiteSpace=wrap;html=1;" vertex="1" parent="1">
          <mxGeometry x="-470" y="2180" width="130" height="60" as="geometry" />
        </mxCell>
        <mxCell id="4Zit7KkpfHQfQK_u-nDv-81" value="drive value for Z+ or Z-&amp;nbsp;" style="edgeStyle=orthogonalEdgeStyle;rounded=0;orthogonalLoop=1;jettySize=auto;html=1;exitX=0.25;exitY=1;exitDx=0;exitDy=0;entryX=1;entryY=0.5;entryDx=0;entryDy=0;fontSize=12;" edge="1" parent="1" source="4Zit7KkpfHQfQK_u-nDv-35" target="4Zit7KkpfHQfQK_u-nDv-64">
          <mxGeometry relative="1" as="geometry" />
        </mxCell>
        <mxCell id="4Zit7KkpfHQfQK_u-nDv-35" value="&lt;b&gt;PWM Drive.&lt;/b&gt;&lt;br&gt;1 start range and 2 max range depending on snail/hare" style="rounded=1;whiteSpace=wrap;html=1;" vertex="1" parent="1">
          <mxGeometry x="-20" y="2175" width="130" height="70" as="geometry" />
        </mxCell>
        <mxCell id="4Zit7KkpfHQfQK_u-nDv-78" style="edgeStyle=orthogonalEdgeStyle;rounded=0;orthogonalLoop=1;jettySize=auto;html=1;exitX=0.75;exitY=0;exitDx=0;exitDy=0;entryX=0;entryY=0;entryDx=0;entryDy=0;fontSize=12;" edge="1" parent="1" source="4Zit7KkpfHQfQK_u-nDv-36" target="4Zit7KkpfHQfQK_u-nDv-35">
          <mxGeometry relative="1" as="geometry">
            <Array as="points">
              <mxPoint x="-582" y="2150" />
              <mxPoint x="-20" y="2150" />
            </Array>
          </mxGeometry>
        </mxCell>
        <mxCell id="4Zit7KkpfHQfQK_u-nDv-79" value="Z+ or Z-&amp;nbsp;" style="edgeLabel;html=1;align=center;verticalAlign=middle;resizable=0;points=[];fontSize=12;" vertex="1" connectable="0" parent="4Zit7KkpfHQfQK_u-nDv-78">
          <mxGeometry x="0.133" y="4" relative="1" as="geometry">
            <mxPoint as="offset" />
          </mxGeometry>
        </mxCell>
        <mxCell id="4Zit7KkpfHQfQK_u-nDv-36" value="&lt;b&gt;function selector&lt;/b&gt;&lt;br&gt;-128 &amp;lt;-&amp;gt; 0 = Z+&lt;br&gt;0 &amp;lt;-&amp;gt; 127 = Z-&lt;br&gt;Select function direction" style="rounded=1;whiteSpace=wrap;html=1;" vertex="1" parent="1">
          <mxGeometry x="-680" y="2160" width="130" height="100" as="geometry" />
        </mxCell>
        <mxCell id="4Zit7KkpfHQfQK_u-nDv-37" value="&lt;b&gt;Ramping&lt;/b&gt;&lt;br&gt;up/down" style="rounded=1;whiteSpace=wrap;html=1;" vertex="1" parent="1">
          <mxGeometry x="-130" y="2190" width="60" height="40" as="geometry" />
        </mxCell>
        <mxCell id="4Zit7KkpfHQfQK_u-nDv-77" value="Snail/hare" style="edgeStyle=orthogonalEdgeStyle;rounded=0;orthogonalLoop=1;jettySize=auto;html=1;exitX=1;exitY=0.5;exitDx=0;exitDy=0;entryX=0.25;entryY=0;entryDx=0;entryDy=0;fontSize=12;" edge="1" parent="1" source="4Zit7KkpfHQfQK_u-nDv-39" target="4Zit7KkpfHQfQK_u-nDv-35">
          <mxGeometry relative="1" as="geometry" />
        </mxCell>
        <mxCell id="4Zit7KkpfHQfQK_u-nDv-39" value="&lt;b&gt;Unpack PDO&lt;/b&gt;&lt;br&gt;data from radio&lt;br&gt;buttons/switch" style="ellipse;whiteSpace=wrap;html=1;" vertex="1" parent="1">
          <mxGeometry x="-850" y="2086.36" width="120" height="80" as="geometry" />
        </mxCell>
        <mxCell id="4Zit7KkpfHQfQK_u-nDv-46" value="Z+ pinout" style="shape=flexArrow;endArrow=classic;html=1;rounded=0;exitX=1;exitY=0.25;exitDx=0;exitDy=0;" edge="1" parent="1" source="4Zit7KkpfHQfQK_u-nDv-35">
          <mxGeometry width="50" height="50" relative="1" as="geometry">
            <mxPoint x="260" y="2166.36" as="sourcePoint" />
            <mxPoint x="280" y="2194" as="targetPoint" />
            <Array as="points" />
          </mxGeometry>
        </mxCell>
        <mxCell id="4Zit7KkpfHQfQK_u-nDv-50" value="&lt;h1&gt;Swing&lt;/h1&gt;&lt;span style=&quot;text-align: center&quot;&gt;lever drive from radio controller principle, Parameter access / setup on FB&#39;s is defined below&lt;br&gt;&lt;/span&gt;" style="text;html=1;strokeColor=none;fillColor=none;spacing=5;spacingTop=-20;whiteSpace=wrap;overflow=hidden;rounded=0;" vertex="1" parent="1">
          <mxGeometry x="-320" y="2010" width="210" height="110" as="geometry" />
        </mxCell>
        <mxCell id="4Zit7KkpfHQfQK_u-nDv-51" value="&lt;b&gt;Deadzone&lt;/b&gt;" style="rounded=1;whiteSpace=wrap;html=1;" vertex="1" parent="1">
          <mxGeometry x="-280" y="2193.41" width="100" height="33.18" as="geometry" />
        </mxCell>
        <mxCell id="4Zit7KkpfHQfQK_u-nDv-52" value="data" style="shape=flexArrow;endArrow=classic;html=1;rounded=0;exitX=1;exitY=0.5;exitDx=0;exitDy=0;entryX=0;entryY=0.5;entryDx=0;entryDy=0;" edge="1" parent="1" source="4Zit7KkpfHQfQK_u-nDv-33" target="4Zit7KkpfHQfQK_u-nDv-36">
          <mxGeometry width="50" height="50" relative="1" as="geometry">
            <mxPoint x="-630" y="2470" as="sourcePoint" />
            <mxPoint x="-580" y="2420" as="targetPoint" />
          </mxGeometry>
        </mxCell>
        <mxCell id="4Zit7KkpfHQfQK_u-nDv-53" value="Z+ or Z-" style="shape=flexArrow;endArrow=classic;html=1;rounded=0;exitX=1;exitY=0.5;exitDx=0;exitDy=0;entryX=0;entryY=0.5;entryDx=0;entryDy=0;" edge="1" parent="1" source="4Zit7KkpfHQfQK_u-nDv-36" target="4Zit7KkpfHQfQK_u-nDv-34">
          <mxGeometry width="50" height="50" relative="1" as="geometry">
            <mxPoint x="-630" y="2470" as="sourcePoint" />
            <mxPoint x="-580" y="2420" as="targetPoint" />
          </mxGeometry>
        </mxCell>
        <mxCell id="4Zit7KkpfHQfQK_u-nDv-55" value="" style="shape=flexArrow;endArrow=classic;html=1;rounded=0;exitX=1;exitY=0.5;exitDx=0;exitDy=0;entryX=0;entryY=0.5;entryDx=0;entryDy=0;" edge="1" parent="1" source="4Zit7KkpfHQfQK_u-nDv-34" target="4Zit7KkpfHQfQK_u-nDv-51">
          <mxGeometry width="50" height="50" relative="1" as="geometry">
            <mxPoint x="-610" y="2490" as="sourcePoint" />
            <mxPoint x="-560" y="2440" as="targetPoint" />
          </mxGeometry>
        </mxCell>
        <mxCell id="4Zit7KkpfHQfQK_u-nDv-58" value="" style="shape=flexArrow;endArrow=classic;html=1;rounded=0;exitX=1;exitY=0.5;exitDx=0;exitDy=0;entryX=0;entryY=0.5;entryDx=0;entryDy=0;" edge="1" parent="1" source="4Zit7KkpfHQfQK_u-nDv-51" target="4Zit7KkpfHQfQK_u-nDv-37">
          <mxGeometry width="50" height="50" relative="1" as="geometry">
            <mxPoint x="-580" y="2520" as="sourcePoint" />
            <mxPoint x="-530" y="2470" as="targetPoint" />
          </mxGeometry>
        </mxCell>
        <mxCell id="4Zit7KkpfHQfQK_u-nDv-60" value="" style="shape=flexArrow;endArrow=classic;html=1;rounded=0;exitX=1;exitY=0.5;exitDx=0;exitDy=0;entryX=0;entryY=0.5;entryDx=0;entryDy=0;" edge="1" parent="1" source="4Zit7KkpfHQfQK_u-nDv-37" target="4Zit7KkpfHQfQK_u-nDv-35">
          <mxGeometry width="50" height="50" relative="1" as="geometry">
            <mxPoint x="-560" y="2501.36" as="sourcePoint" />
            <mxPoint x="-510" y="2451.36" as="targetPoint" />
          </mxGeometry>
        </mxCell>
        <mxCell id="4Zit7KkpfHQfQK_u-nDv-73" value="user drive req(sig value) for Z+ or Z-&amp;nbsp;" style="edgeStyle=orthogonalEdgeStyle;rounded=0;orthogonalLoop=1;jettySize=auto;html=1;exitX=0;exitY=0.5;exitDx=0;exitDy=0;entryX=0;entryY=0.75;entryDx=0;entryDy=0;fontSize=12;" edge="1" parent="1" source="4Zit7KkpfHQfQK_u-nDv-64" target="4Zit7KkpfHQfQK_u-nDv-36">
          <mxGeometry relative="1" as="geometry" />
        </mxCell>
        <mxCell id="4Zit7KkpfHQfQK_u-nDv-64" value="&lt;b&gt;Virtuel simulator&lt;br&gt;OPC UA&lt;/b&gt;" style="shape=ext;double=1;rounded=1;whiteSpace=wrap;html=1;" vertex="1" parent="1">
          <mxGeometry x="-390" y="2251.36" width="105" height="60" as="geometry" />
        </mxCell>
        <mxCell id="4Zit7KkpfHQfQK_u-nDv-67" value="&lt;font style=&quot;font-size: 48px&quot;&gt;Forslag1&lt;/font&gt;" style="text;html=1;strokeColor=none;fillColor=none;align=center;verticalAlign=middle;whiteSpace=wrap;rounded=0;fontSize=12;" vertex="1" parent="1">
          <mxGeometry x="-690" y="1585" width="60" height="30" as="geometry" />
        </mxCell>
        <mxCell id="4Zit7KkpfHQfQK_u-nDv-68" value="&lt;font style=&quot;font-size: 48px&quot;&gt;Forslag2&lt;/font&gt;" style="text;html=1;strokeColor=none;fillColor=none;align=center;verticalAlign=middle;whiteSpace=wrap;rounded=0;fontSize=12;" vertex="1" parent="1">
          <mxGeometry x="-690" y="2020" width="60" height="30" as="geometry" />
        </mxCell>
        <mxCell id="4Zit7KkpfHQfQK_u-nDv-74" value="Z- pinout" style="shape=flexArrow;endArrow=classic;html=1;rounded=0;exitX=1;exitY=0.75;exitDx=0;exitDy=0;" edge="1" parent="1" source="4Zit7KkpfHQfQK_u-nDv-35">
          <mxGeometry width="50" height="50" relative="1" as="geometry">
            <mxPoint x="180" y="2240" as="sourcePoint" />
            <mxPoint x="280" y="2230" as="targetPoint" />
            <Array as="points" />
          </mxGeometry>
        </mxCell>
        <mxCell id="4Zit7KkpfHQfQK_u-nDv-87" value="Long Real &amp;lt;3" style="ellipse;shape=cloud;whiteSpace=wrap;html=1;fontSize=12;" vertex="1" parent="1">
          <mxGeometry x="-520" y="1087.5" width="120" height="80" as="geometry" />
        </mxCell>
        <mxCell id="4Zit7KkpfHQfQK_u-nDv-88" value="Actor" style="shape=umlActor;verticalLabelPosition=bottom;verticalAlign=top;html=1;outlineConnect=0;fontSize=12;" vertex="1" parent="1">
          <mxGeometry x="-540" y="1150" width="30" height="60" as="geometry" />
        </mxCell>
        <mxCell id="4Zit7KkpfHQfQK_u-nDv-90" value="&lt;h1&gt;Scaling&lt;/h1&gt;&lt;p&gt;&lt;b&gt;Inputs:&lt;/b&gt;&lt;/p&gt;&lt;p&gt;&lt;span&gt;	&lt;/span&gt;X&lt;span&gt;		&lt;/span&gt;:&amp;nbsp; Unscaled input on long real, no error check possible&lt;/p&gt;&lt;p&gt;&lt;span&gt;	&lt;/span&gt;XF&lt;span&gt;		&lt;/span&gt;:&amp;nbsp; Quality code from input module or calculation, on boolean&amp;nbsp;&lt;/p&gt;&lt;p&gt;XFP : Function in Positive range, on boolean&lt;/p&gt;&lt;p&gt;XFN : Function in Negative range, on boolean&lt;/p&gt;&lt;p&gt;&lt;b&gt;Outputs:&lt;/b&gt;&lt;/p&gt;&lt;p&gt;&lt;span&gt;	&lt;/span&gt;Y&lt;span&gt;		&lt;/span&gt;:&amp;nbsp; Scaled output on long real&amp;nbsp;&lt;/p&gt;&lt;p&gt;&lt;span&gt;	&lt;/span&gt;YF&lt;span&gt;		&lt;/span&gt;:&amp;nbsp; Quality code for further processing, on boolean&lt;/p&gt;&lt;p&gt;&lt;b&gt;Parameters:&lt;/b&gt;&lt;/p&gt;&lt;p&gt;&lt;span&gt;	&lt;/span&gt;PXPHR&lt;span&gt;	&lt;/span&gt;:&lt;span&gt;&amp;nbsp;Positive&amp;nbsp;&lt;/span&gt;Maximum range for&amp;nbsp;long real input (X)&lt;/p&gt;&lt;p&gt;&lt;span&gt;	&lt;/span&gt;PXPLR&lt;span&gt;	&lt;/span&gt;:&lt;span&gt;&amp;nbsp;Positive&amp;nbsp;&lt;/span&gt;Minimum range for long&amp;nbsp;real input (X)&lt;/p&gt;&lt;p&gt;PXNHR : Negative Maximum range on long real input (X)&lt;/p&gt;&lt;p&gt;PXNLR : Negative Minimum range on long real input (X)&lt;/p&gt;&lt;p&gt;&lt;span&gt;PYHR&lt;/span&gt;&lt;span&gt;	&lt;/span&gt;&lt;span&gt;:&lt;/span&gt;&lt;span&gt;	&lt;/span&gt;&lt;span&gt;Maximum range for long&amp;nbsp;real output (Y)&lt;/span&gt;&lt;/p&gt;&lt;p&gt;&lt;span&gt;	&lt;/span&gt;PYLR&lt;span&gt;	&lt;/span&gt;:&lt;span&gt;	&lt;/span&gt;Minimum range for long&amp;nbsp;real output (Y)&lt;/p&gt;&lt;p&gt;&lt;span&gt;	&lt;/span&gt;PLIM : Limit Scaling to min and max range, on boolean&lt;/p&gt;&lt;p&gt;&lt;b&gt;Description:&lt;/b&gt;&lt;/p&gt;&lt;p&gt;Depending on input range, this FB scale that range into 0-1 for further standard signal processing&amp;nbsp;&lt;/p&gt;" style="text;html=1;strokeColor=none;fillColor=none;spacing=5;spacingTop=-20;whiteSpace=wrap;overflow=hidden;rounded=0;fontSize=12;" vertex="1" parent="1">
          <mxGeometry x="-480" y="2360" width="360" height="560" as="geometry" />
        </mxCell>
        <mxCell id="4Zit7KkpfHQfQK_u-nDv-91" value="&lt;h1&gt;Deadzone&lt;/h1&gt;&lt;p&gt;&lt;b&gt;Inputs:&lt;/b&gt;&lt;/p&gt;&lt;p&gt;&lt;span&gt;	&lt;/span&gt;X&lt;span&gt;		&lt;/span&gt;:&amp;nbsp; input on long real&lt;/p&gt;&lt;p&gt;&lt;span&gt;	&lt;/span&gt;XF&lt;span&gt;		&lt;/span&gt;:&amp;nbsp; Quality code from input module or calculation, on boolean&lt;span&gt;&amp;nbsp;&lt;/span&gt;&lt;/p&gt;&lt;p&gt;&lt;b&gt;Outputs:&lt;/b&gt;&lt;/p&gt;&lt;p&gt;&lt;span&gt;	&lt;/span&gt;Y&lt;span&gt;		&lt;/span&gt;:&amp;nbsp; Compensated input on long real format&lt;br&gt;&lt;/p&gt;&lt;p&gt;YDZ : In dead zone on boolean&lt;/p&gt;&lt;p&gt;&lt;span&gt;	&lt;/span&gt;YF&lt;span&gt;		&lt;/span&gt;:&amp;nbsp; Quality code for further processing, on boolean&lt;/p&gt;&lt;p&gt;&lt;b&gt;Parameters:&lt;/b&gt;&lt;/p&gt;&lt;p&gt;PEF : Enable this function block on boolean&lt;/p&gt;&lt;p&gt;&lt;span&gt;	&lt;/span&gt;PPDZ : Deadzone in % on long real&lt;br&gt;&lt;/p&gt;&lt;p&gt;PHR : Maximum range on long real&lt;/p&gt;&lt;p&gt;PDZC : Deadzone center on long real&lt;/p&gt;&lt;p&gt;PLR : Minimum range on long real&lt;/p&gt;&lt;p&gt;&lt;b&gt;Description:&lt;/b&gt;&lt;/p&gt;&lt;p&gt;This FB exist to handle unwanted / accidental or rather small input from operator, in case of an bump in the joystick in radio controller or where ever this drive signal would have come from. In this case this already exist in the physical joystick on radio controller we use so this FB is expected to&amp;nbsp; be denable and will just pas the signal though.&amp;nbsp;&lt;/p&gt;" style="text;html=1;strokeColor=none;fillColor=none;spacing=5;spacingTop=-20;whiteSpace=wrap;overflow=hidden;rounded=0;fontSize=12;" vertex="1" parent="1">
          <mxGeometry x="-120" y="2360" width="360" height="560" as="geometry" />
        </mxCell>
        <mxCell id="4Zit7KkpfHQfQK_u-nDv-96" value="&lt;b&gt;PWM Dither&lt;/b&gt;&lt;br&gt;hva/hvilken tilknytning?" style="rounded=1;whiteSpace=wrap;html=1;fontSize=12;" vertex="1" parent="1">
          <mxGeometry x="20" y="2060" width="120" height="60" as="geometry" />
        </mxCell>
        <mxCell id="4Zit7KkpfHQfQK_u-nDv-97" value="&lt;h1&gt;Ramping&lt;/h1&gt;&lt;p&gt;&lt;b&gt;Inputs:&lt;/b&gt;&lt;/p&gt;&lt;p&gt;&lt;span&gt;	&lt;/span&gt;X&lt;span&gt;		&lt;/span&gt;:&amp;nbsp; input on long real&lt;/p&gt;&lt;p&gt;&lt;span&gt;	&lt;/span&gt;XF&lt;span&gt;		&lt;/span&gt;:&amp;nbsp; Quality code from input module or calculation, on boolean&lt;span&gt;&amp;nbsp;&lt;/span&gt;&lt;/p&gt;&lt;p&gt;&lt;b&gt;Outputs:&lt;/b&gt;&lt;/p&gt;&lt;p&gt;&lt;span&gt;	&lt;/span&gt;Y&lt;span&gt;		&lt;/span&gt;:&amp;nbsp;Ramped output on long real&lt;/p&gt;&lt;p&gt;&lt;span&gt;	&lt;/span&gt;YF&lt;span&gt;		&lt;/span&gt;:&amp;nbsp; Quality code for further processing, on boolean&lt;/p&gt;&lt;p&gt;&lt;b&gt;Parameters:&lt;/b&gt;&lt;/p&gt;&lt;p&gt;PEF : Enable this function block on boolean&lt;/p&gt;&lt;p&gt;&lt;span&gt;	&lt;/span&gt;PRT : Ramping time constant&lt;br&gt;&lt;/p&gt;&lt;p&gt;PTS : Filter sampling time&lt;/p&gt;&lt;p&gt;PHR : High range for output&lt;/p&gt;&lt;p&gt;PLR : Low range for output&lt;/p&gt;&lt;p&gt;PFSV : Substitute value&lt;/p&gt;&lt;p&gt;&lt;b&gt;Description:&lt;/b&gt;&lt;/p&gt;&lt;p&gt;We would like to at least ramp up our function so the handling of the crane moments smoothes out, ramping down is something we might consider later but that developing and commissioning should be executed with extreme care since we are talking about if the operator stop handling the crane incase of danger of crushing / crashing the crane on something or somebody the crane here will still drive a bit furtherer with this smoothening instead of a original stop, at least have up / down parameter with a lock on down parameter for dangerous values&amp;nbsp;&lt;/p&gt;" style="text;html=1;strokeColor=none;fillColor=none;spacing=5;spacingTop=-20;whiteSpace=wrap;overflow=hidden;rounded=0;fontSize=12;" vertex="1" parent="1">
          <mxGeometry x="-840" y="2920" width="360" height="560" as="geometry" />
        </mxCell>
        <mxCell id="4Zit7KkpfHQfQK_u-nDv-98" value="+?" style="endArrow=classic;html=1;rounded=0;fontSize=12;exitX=0.5;exitY=1;exitDx=0;exitDy=0;entryX=0.75;entryY=0;entryDx=0;entryDy=0;" edge="1" parent="1" source="4Zit7KkpfHQfQK_u-nDv-96" target="4Zit7KkpfHQfQK_u-nDv-35">
          <mxGeometry width="50" height="50" relative="1" as="geometry">
            <mxPoint x="70" y="2390" as="sourcePoint" />
            <mxPoint x="120" y="2340" as="targetPoint" />
          </mxGeometry>
        </mxCell>
        <mxCell id="4Zit7KkpfHQfQK_u-nDv-99" value="&lt;b&gt;quality code/&lt;br&gt;Watch dog&lt;/b&gt;" style="rounded=1;whiteSpace=wrap;html=1;" vertex="1" parent="1">
          <mxGeometry x="-15" y="2290" width="120" height="60" as="geometry" />
        </mxCell>
        <mxCell id="4Zit7KkpfHQfQK_u-nDv-100" value="&lt;b&gt;HMI program&lt;/b&gt;&lt;br&gt;operating screen / eventhandler&amp;nbsp;" style="ellipse;whiteSpace=wrap;html=1;" vertex="1" parent="1">
          <mxGeometry x="180" y="2280" width="120" height="80" as="geometry" />
        </mxCell>
        <mxCell id="4Zit7KkpfHQfQK_u-nDv-102" value="Handling&lt;br&gt;failed" style="endArrow=classic;html=1;rounded=0;fontSize=12;exitX=0.5;exitY=1;exitDx=0;exitDy=0;entryX=0.5;entryY=0;entryDx=0;entryDy=0;" edge="1" parent="1" source="4Zit7KkpfHQfQK_u-nDv-35" target="4Zit7KkpfHQfQK_u-nDv-99">
          <mxGeometry width="50" height="50" relative="1" as="geometry">
            <mxPoint x="-110" y="2100" as="sourcePoint" />
            <mxPoint x="-60" y="2050" as="targetPoint" />
          </mxGeometry>
        </mxCell>
        <mxCell id="4Zit7KkpfHQfQK_u-nDv-103" value="Prio low&lt;br&gt;notice /&amp;nbsp;&lt;br&gt;feedback" style="endArrow=classic;html=1;rounded=0;fontSize=12;exitX=1;exitY=0.5;exitDx=0;exitDy=0;entryX=0;entryY=0.5;entryDx=0;entryDy=0;" edge="1" parent="1" source="4Zit7KkpfHQfQK_u-nDv-99" target="4Zit7KkpfHQfQK_u-nDv-100">
          <mxGeometry width="50" height="50" relative="1" as="geometry">
            <mxPoint x="55" y="2255" as="sourcePoint" />
            <mxPoint x="55" y="2300" as="targetPoint" />
          </mxGeometry>
        </mxCell>
        <mxCell id="4Zit7KkpfHQfQK_u-nDv-104" value="&lt;h1&gt;PWM Drive&lt;/h1&gt;&lt;p&gt;&lt;b&gt;Inputs:&lt;/b&gt;&lt;/p&gt;&lt;p&gt;&lt;span&gt;	&lt;/span&gt;X&lt;span&gt;		&lt;/span&gt;:&amp;nbsp; input on long real&lt;/p&gt;&lt;p&gt;&lt;span&gt;	&lt;/span&gt;XF&lt;span&gt;		&lt;/span&gt;:&amp;nbsp; Quality code from input module or calculation, on boolean&lt;span&gt;&amp;nbsp;&lt;/span&gt;&lt;/p&gt;&lt;p&gt;&lt;b&gt;Outputs:&lt;/b&gt;&lt;/p&gt;&lt;p&gt;&lt;span&gt;	&lt;/span&gt;Y&lt;span&gt;		&lt;/span&gt;:&amp;nbsp; Compensated input on long real format&lt;br&gt;&lt;/p&gt;&lt;p&gt;YDZ : In dead zone on boolean&lt;/p&gt;&lt;p&gt;&lt;span&gt;	&lt;/span&gt;YF&lt;span&gt;		&lt;/span&gt;:&amp;nbsp; Quality code for further processing, on boolean&lt;/p&gt;&lt;p&gt;&lt;b&gt;Parameters:&lt;/b&gt;&lt;/p&gt;&lt;p&gt;PEF : Enable this function block on boolean&lt;/p&gt;&lt;p&gt;&lt;span&gt;	&lt;/span&gt;PPDZ : Deadzone in % on long real&lt;br&gt;&lt;/p&gt;&lt;p&gt;PHR : Maximum range on long real&lt;/p&gt;&lt;p&gt;PDZC : Deadzone center on long real&lt;/p&gt;&lt;p&gt;PLR : Minimum range on long real&lt;br&gt;&lt;/p&gt;&lt;p&gt;&lt;b&gt;Description:&lt;/b&gt;&lt;/p&gt;&lt;p&gt;må jobbe mer med denne, tilsvarende skalering for outputen?&lt;/p&gt;" style="text;html=1;strokeColor=none;fillColor=none;spacing=5;spacingTop=-20;whiteSpace=wrap;overflow=hidden;rounded=0;fontSize=12;" vertex="1" parent="1">
          <mxGeometry x="-480" y="2920" width="360" height="560" as="geometry" />
        </mxCell>
        <mxCell id="4Zit7KkpfHQfQK_u-nDv-105" value="&lt;h1&gt;PWM Dither&lt;/h1&gt;&lt;p&gt;&lt;b&gt;Inputs:&lt;/b&gt;&lt;/p&gt;&lt;p&gt;&lt;span&gt;	&lt;/span&gt;X&lt;span&gt;		&lt;/span&gt;:&amp;nbsp; input on long real&lt;/p&gt;&lt;p&gt;&lt;span&gt;	&lt;/span&gt;XF&lt;span&gt;		&lt;/span&gt;:&amp;nbsp; Quality code from input module or calculation, on boolean&lt;span&gt;&amp;nbsp;&lt;/span&gt;&lt;/p&gt;&lt;p&gt;&lt;b&gt;Outputs:&lt;/b&gt;&lt;/p&gt;&lt;p&gt;&lt;span&gt;	&lt;/span&gt;Y&lt;span&gt;		&lt;/span&gt;:&amp;nbsp; Compensated input on long real format&lt;br&gt;&lt;/p&gt;&lt;p&gt;YDZ : In dead zone on boolean&lt;/p&gt;&lt;p&gt;&lt;span&gt;	&lt;/span&gt;YF&lt;span&gt;		&lt;/span&gt;:&amp;nbsp; Quality code for further processing, on boolean&lt;/p&gt;&lt;p&gt;&lt;b&gt;Parameters:&lt;/b&gt;&lt;/p&gt;&lt;p&gt;PEF : Enable this function block on boolean&lt;/p&gt;&lt;p&gt;&lt;span&gt;	&lt;/span&gt;PPDZ : Deadzone in % on long real&lt;br&gt;&lt;/p&gt;&lt;p&gt;PHR : Maximum range on long real&lt;/p&gt;&lt;p&gt;PDZC : Deadzone center on long real&lt;/p&gt;&lt;p&gt;PLR : Minimum range on long real&lt;/p&gt;&lt;p&gt;&lt;b&gt;Description:&lt;/b&gt;&lt;/p&gt;&lt;p&gt;sums / addering? ihvertfall&amp;nbsp; ønsket!&lt;/p&gt;" style="text;html=1;strokeColor=none;fillColor=none;spacing=5;spacingTop=-20;whiteSpace=wrap;overflow=hidden;rounded=0;fontSize=12;" vertex="1" parent="1">
          <mxGeometry x="-120" y="2920" width="360" height="560" as="geometry" />
        </mxCell>
        <mxCell id="4Zit7KkpfHQfQK_u-nDv-106" value="&lt;h1&gt;&lt;b&gt;Function selector&lt;/b&gt;&lt;/h1&gt;&lt;h1&gt;&lt;b style=&quot;font-size: 12px&quot;&gt;Inputs:&lt;/b&gt;&lt;br&gt;&lt;/h1&gt;&lt;p&gt;&lt;span&gt;	&lt;/span&gt;X&lt;span&gt;		&lt;/span&gt;:&amp;nbsp; input on long real&lt;/p&gt;&lt;p&gt;&lt;span&gt;	&lt;/span&gt;XF&lt;span&gt;		&lt;/span&gt;:&amp;nbsp; Quality code from input module or calculation, on boolean&lt;span&gt;&amp;nbsp;&lt;/span&gt;&lt;/p&gt;&lt;p&gt;&lt;b&gt;Outputs:&lt;/b&gt;&lt;/p&gt;&lt;p&gt;&lt;span&gt;	&lt;/span&gt;Y&lt;span&gt;		&lt;/span&gt;:&amp;nbsp; Raw input on long real format&lt;br&gt;&lt;/p&gt;&lt;p&gt;YP : Function in positive range, on boolean&lt;/p&gt;&lt;p&gt;&lt;span&gt;	&lt;/span&gt;YN&lt;span&gt;&amp;nbsp;&lt;/span&gt;: Function in negative range, on boolean&lt;/p&gt;&lt;p&gt;YF : Quality code for further processing, on boolean&lt;/p&gt;&lt;p&gt;&lt;b&gt;Parameters:&lt;/b&gt;&lt;/p&gt;&lt;p&gt;PEF : Enable this function block on boolean&lt;/p&gt;&lt;p&gt;&lt;b&gt;Description:&lt;/b&gt;&lt;/p&gt;&lt;p&gt;If check value if above or under 0, then sends further information to the Scaling FB to scale to a different input range.&lt;/p&gt;" style="text;html=1;strokeColor=none;fillColor=none;spacing=5;spacingTop=-20;whiteSpace=wrap;overflow=hidden;rounded=0;fontSize=12;" vertex="1" parent="1">
          <mxGeometry x="-840" y="2360" width="360" height="560" as="geometry" />
        </mxCell>
        <mxCell id="4Zit7KkpfHQfQK_u-nDv-107" value="pininn" style="shape=flexArrow;endArrow=classic;html=1;rounded=0;entryX=0;entryY=0.5;entryDx=0;entryDy=0;" edge="1" parent="1" target="4Zit7KkpfHQfQK_u-nDv-108">
          <mxGeometry width="50" height="50" relative="1" as="geometry">
            <mxPoint x="620" y="2221.5800000000004" as="sourcePoint" />
            <mxPoint x="700" y="2221.5800000000004" as="targetPoint" />
          </mxGeometry>
        </mxCell>
        <mxCell id="4Zit7KkpfHQfQK_u-nDv-108" value="&lt;b&gt;Exponential filter&lt;/b&gt;&lt;br&gt;Noise reduction" style="rounded=1;whiteSpace=wrap;html=1;" vertex="1" parent="1">
          <mxGeometry x="710" y="2202.15" width="107.74" height="38.86" as="geometry" />
        </mxCell>
        <mxCell id="4Zit7KkpfHQfQK_u-nDv-109" value="&lt;h1&gt;sensor boom&lt;/h1&gt;&lt;span style=&quot;text-align: center&quot;&gt;4-20mA input prinsipp&lt;br&gt;&lt;br&gt;&lt;/span&gt;" style="text;html=1;strokeColor=none;fillColor=none;spacing=5;spacingTop=-20;whiteSpace=wrap;overflow=hidden;rounded=0;" vertex="1" parent="1">
          <mxGeometry x="490" y="2171.5800000000004" width="160" height="100" as="geometry" />
        </mxCell>
        <mxCell id="4Zit7KkpfHQfQK_u-nDv-110" value="&lt;b&gt;Scaling&lt;br&gt;&amp;nbsp;&lt;/b&gt;analog input signals to 0.0 - 1.0" style="rounded=1;whiteSpace=wrap;html=1;" vertex="1" parent="1">
          <mxGeometry x="870" y="2191.5800000000004" width="127.74" height="60" as="geometry" />
        </mxCell>
        <mxCell id="4Zit7KkpfHQfQK_u-nDv-145" value="Parameters" style="edgeStyle=orthogonalEdgeStyle;rounded=0;orthogonalLoop=1;jettySize=auto;html=1;exitX=0.5;exitY=0;exitDx=0;exitDy=0;entryX=0.5;entryY=0;entryDx=0;entryDy=0;fontSize=12;" edge="1" parent="1" source="4Zit7KkpfHQfQK_u-nDv-111" target="4Zit7KkpfHQfQK_u-nDv-116">
          <mxGeometry relative="1" as="geometry">
            <Array as="points">
              <mxPoint x="1250" y="1920" />
              <mxPoint x="623" y="1920" />
            </Array>
          </mxGeometry>
        </mxCell>
        <mxCell id="4Zit7KkpfHQfQK_u-nDv-111" value="&lt;b&gt;Calibrating&lt;/b&gt;&lt;br&gt;Upper/lower limit med referanse til horison planet, og mappet opp total range" style="rounded=1;whiteSpace=wrap;html=1;" vertex="1" parent="1">
          <mxGeometry x="1190" y="2062.04" width="120" height="80" as="geometry" />
        </mxCell>
        <mxCell id="4Zit7KkpfHQfQK_u-nDv-112" value="signal" style="endArrow=classic;html=1;rounded=0;exitX=1;exitY=0.5;exitDx=0;exitDy=0;entryX=0;entryY=0.75;entryDx=0;entryDy=0;" edge="1" parent="1" source="4Zit7KkpfHQfQK_u-nDv-110" target="4Zit7KkpfHQfQK_u-nDv-111">
          <mxGeometry width="50" height="50" relative="1" as="geometry">
            <mxPoint x="1070" y="2141.5800000000004" as="sourcePoint" />
            <mxPoint x="1120" y="2091.5800000000004" as="targetPoint" />
          </mxGeometry>
        </mxCell>
        <mxCell id="4Zit7KkpfHQfQK_u-nDv-113" value="&lt;b&gt;quality code/&lt;br&gt;Watch dog&lt;/b&gt;" style="rounded=1;whiteSpace=wrap;html=1;" vertex="1" parent="1">
          <mxGeometry x="870" y="1946.3600000000001" width="120" height="60" as="geometry" />
        </mxCell>
        <mxCell id="4Zit7KkpfHQfQK_u-nDv-114" value="Alarm Prio 1&lt;br&gt;fault input&lt;br&gt;under 4mA /&lt;br&gt;over 20mA" style="endArrow=classic;html=1;rounded=0;exitX=0.5;exitY=0;exitDx=0;exitDy=0;entryX=0;entryY=1;entryDx=0;entryDy=0;" edge="1" parent="1" source="4Zit7KkpfHQfQK_u-nDv-108" target="4Zit7KkpfHQfQK_u-nDv-113">
          <mxGeometry width="50" height="50" relative="1" as="geometry">
            <mxPoint x="1070" y="2111.5800000000004" as="sourcePoint" />
            <mxPoint x="1120" y="2061.5800000000004" as="targetPoint" />
          </mxGeometry>
        </mxCell>
        <mxCell id="4Zit7KkpfHQfQK_u-nDv-115" value="Alarm Prio 2&lt;br&gt;outside calibrated range" style="endArrow=classic;html=1;rounded=0;exitX=0;exitY=0.25;exitDx=0;exitDy=0;entryX=1;entryY=1;entryDx=0;entryDy=0;" edge="1" parent="1" source="4Zit7KkpfHQfQK_u-nDv-111" target="4Zit7KkpfHQfQK_u-nDv-113">
          <mxGeometry x="0.065" width="50" height="50" relative="1" as="geometry">
            <mxPoint x="740" y="2201.5800000000004" as="sourcePoint" />
            <mxPoint x="980" y="2022.7199999999996" as="targetPoint" />
            <mxPoint as="offset" />
          </mxGeometry>
        </mxCell>
        <mxCell id="4Zit7KkpfHQfQK_u-nDv-116" value="&lt;b&gt;Virtuel simulator&lt;br&gt;OPC UA&lt;/b&gt;" style="shape=ext;double=1;rounded=1;whiteSpace=wrap;html=1;" vertex="1" parent="1">
          <mxGeometry x="567.74" y="2092.5" width="110" height="48.86" as="geometry" />
        </mxCell>
        <mxCell id="4Zit7KkpfHQfQK_u-nDv-117" value="simulated angle&lt;br&gt;signal" style="endArrow=classic;html=1;rounded=0;exitX=1;exitY=0.5;exitDx=0;exitDy=0;entryX=0;entryY=0.25;entryDx=0;entryDy=0;" edge="1" parent="1" source="4Zit7KkpfHQfQK_u-nDv-116" target="4Zit7KkpfHQfQK_u-nDv-108">
          <mxGeometry width="50" height="50" relative="1" as="geometry">
            <mxPoint x="1020" y="2281.5800000000004" as="sourcePoint" />
            <mxPoint x="860" y="2311.5800000000004" as="targetPoint" />
          </mxGeometry>
        </mxCell>
        <mxCell id="4Zit7KkpfHQfQK_u-nDv-118" value="signal value program will use for &lt;br&gt;calculation / drive in modes&amp;nbsp;" style="shape=flexArrow;endArrow=classic;html=1;rounded=0;exitX=1;exitY=0.75;exitDx=0;exitDy=0;entryX=0.396;entryY=0.143;entryDx=0;entryDy=0;entryPerimeter=0;" edge="1" parent="1" source="4Zit7KkpfHQfQK_u-nDv-110" target="4Zit7KkpfHQfQK_u-nDv-146">
          <mxGeometry x="-0.0326" y="5" width="50" height="50" relative="1" as="geometry">
            <mxPoint x="1430" y="2331.5800000000004" as="sourcePoint" />
            <mxPoint x="1137.74" y="2331.36" as="targetPoint" />
            <mxPoint as="offset" />
          </mxGeometry>
        </mxCell>
        <mxCell id="4Zit7KkpfHQfQK_u-nDv-119" value="Parameters" style="endArrow=classic;html=1;rounded=0;exitX=0.5;exitY=1;exitDx=0;exitDy=0;entryX=0.505;entryY=0.029;entryDx=0;entryDy=0;entryPerimeter=0;" edge="1" parent="1" source="4Zit7KkpfHQfQK_u-nDv-111" target="4Zit7KkpfHQfQK_u-nDv-146">
          <mxGeometry x="-0.1579" width="50" height="50" relative="1" as="geometry">
            <mxPoint x="750" y="2461.5800000000004" as="sourcePoint" />
            <mxPoint x="1167.74" y="2311.36" as="targetPoint" />
            <mxPoint as="offset" />
          </mxGeometry>
        </mxCell>
        <mxCell id="4Zit7KkpfHQfQK_u-nDv-120" value="&lt;b&gt;HMI program/&lt;br&gt;operating screen&amp;nbsp;&lt;/b&gt;" style="ellipse;whiteSpace=wrap;html=1;" vertex="1" parent="1">
          <mxGeometry x="900" y="2062.0400000000004" width="120" height="80" as="geometry" />
        </mxCell>
        <mxCell id="4Zit7KkpfHQfQK_u-nDv-121" value="alarm&lt;br&gt;noticeable&lt;br&gt;feedback" style="endArrow=classic;html=1;rounded=0;entryX=0.5;entryY=0;entryDx=0;entryDy=0;exitX=0.75;exitY=1;exitDx=0;exitDy=0;" edge="1" parent="1" source="4Zit7KkpfHQfQK_u-nDv-113" target="4Zit7KkpfHQfQK_u-nDv-120">
          <mxGeometry width="50" height="50" relative="1" as="geometry">
            <mxPoint x="853.87" y="2125.68" as="sourcePoint" />
            <mxPoint x="833.87" y="2414.54" as="targetPoint" />
          </mxGeometry>
        </mxCell>
        <mxCell id="4Zit7KkpfHQfQK_u-nDv-123" value="" style="shape=flexArrow;endArrow=classic;html=1;rounded=0;exitX=1;exitY=0.5;exitDx=0;exitDy=0;entryX=0;entryY=0.5;entryDx=0;entryDy=0;" edge="1" parent="1" source="4Zit7KkpfHQfQK_u-nDv-108" target="4Zit7KkpfHQfQK_u-nDv-110">
          <mxGeometry width="50" height="50" relative="1" as="geometry">
            <mxPoint x="750" y="2581.5800000000004" as="sourcePoint" />
            <mxPoint x="800" y="2531.5800000000004" as="targetPoint" />
          </mxGeometry>
        </mxCell>
        <mxCell id="4Zit7KkpfHQfQK_u-nDv-141" value="&lt;h1&gt;Basic sensor signal handling for joint who doesn&#39;t revolute&lt;/h1&gt;&lt;p&gt;vinkel givere som utgir 4-20mA = 0-360grader, som sagt vinkler på ledd som ikke kan fysisk omgå 1 omdreining.&amp;nbsp;&lt;/p&gt;&lt;p&gt;kalibrering av upper/lower endpoints, med referanse til horisonplanet, mappet opp nåverende verdi innenfor total range, teller naturligvis oppover med økning av verdi&lt;/p&gt;&lt;p&gt;expected joints: Boom, Jib, Roller tilt&lt;/p&gt;&lt;p&gt;Roller tilt depends on physical crane construction, same for jib but not expected to have any need for measuring on low functionally cranes&lt;/p&gt;" style="text;html=1;strokeColor=none;fillColor=none;spacing=5;spacingTop=-20;whiteSpace=wrap;overflow=hidden;rounded=0;" vertex="1" parent="1">
          <mxGeometry x="613.87" y="1360" width="632.26" height="260" as="geometry" />
        </mxCell>
        <mxCell id="4Zit7KkpfHQfQK_u-nDv-142" value="signal" style="endArrow=classic;html=1;rounded=0;exitX=0.75;exitY=0;exitDx=0;exitDy=0;entryX=0.5;entryY=1;entryDx=0;entryDy=0;" edge="1" parent="1" source="4Zit7KkpfHQfQK_u-nDv-110" target="4Zit7KkpfHQfQK_u-nDv-120">
          <mxGeometry width="50" height="50" relative="1" as="geometry">
            <mxPoint x="1007.74" y="2231.580000000001" as="sourcePoint" />
            <mxPoint x="1067.74" y="2141.36" as="targetPoint" />
          </mxGeometry>
        </mxCell>
        <mxCell id="4Zit7KkpfHQfQK_u-nDv-143" value="Parameters" style="endArrow=classic;html=1;rounded=0;exitX=0;exitY=0.5;exitDx=0;exitDy=0;entryX=1;entryY=0.5;entryDx=0;entryDy=0;" edge="1" parent="1" source="4Zit7KkpfHQfQK_u-nDv-111" target="4Zit7KkpfHQfQK_u-nDv-120">
          <mxGeometry x="-0.1579" width="50" height="50" relative="1" as="geometry">
            <mxPoint x="1127.74" y="2161.36" as="sourcePoint" />
            <mxPoint x="1127.74" y="2351.36" as="targetPoint" />
            <mxPoint as="offset" />
          </mxGeometry>
        </mxCell>
        <mxCell id="4Zit7KkpfHQfQK_u-nDv-144" value="HMI call / setup" style="endArrow=classic;html=1;rounded=0;fontSize=12;exitX=1;exitY=1;exitDx=0;exitDy=0;entryX=0.002;entryY=0.625;entryDx=0;entryDy=0;entryPerimeter=0;" edge="1" parent="1" source="4Zit7KkpfHQfQK_u-nDv-120" target="4Zit7KkpfHQfQK_u-nDv-111">
          <mxGeometry width="50" height="50" relative="1" as="geometry">
            <mxPoint x="877.74" y="2341.36" as="sourcePoint" />
            <mxPoint x="927.74" y="2291.36" as="targetPoint" />
          </mxGeometry>
        </mxCell>
        <mxCell id="4Zit7KkpfHQfQK_u-nDv-146" value="Signal handling end /&lt;br&gt;further program / calculations" style="html=1;whiteSpace=wrap;aspect=fixed;shape=isoRectangle;fontSize=12;" vertex="1" parent="1">
          <mxGeometry x="1140" y="2211.3599999999997" width="210" height="126" as="geometry" />
        </mxCell>
        <mxCell id="4Zit7KkpfHQfQK_u-nDv-147" value="Prinsipp start/slutt" style="html=1;whiteSpace=wrap;aspect=fixed;shape=isoRectangle;fontSize=12;" vertex="1" parent="1">
          <mxGeometry x="195" y="1115" width="150" height="90" as="geometry" />
        </mxCell>
        <mxCell id="4Zit7KkpfHQfQK_u-nDv-148" value="" style="shape=flexArrow;endArrow=classic;html=1;rounded=0;fontSize=12;exitX=1;exitY=0.5;exitDx=0;exitDy=0;entryX=-0.012;entryY=0.523;entryDx=0;entryDy=0;entryPerimeter=0;" edge="1" parent="1" source="CfgRg5aXCrRDhNuQEp0G-47" target="4Zit7KkpfHQfQK_u-nDv-147">
          <mxGeometry width="50" height="50" relative="1" as="geometry">
            <mxPoint x="880" y="1670" as="sourcePoint" />
            <mxPoint x="930" y="1620" as="targetPoint" />
          </mxGeometry>
        </mxCell>
        <mxCell id="4Zit7KkpfHQfQK_u-nDv-149" value="pininn" style="shape=flexArrow;endArrow=classic;html=1;rounded=0;entryX=0;entryY=0.5;entryDx=0;entryDy=0;" edge="1" parent="1" target="4Zit7KkpfHQfQK_u-nDv-150">
          <mxGeometry width="50" height="50" relative="1" as="geometry">
            <mxPoint x="630" y="1741.3599999999997" as="sourcePoint" />
            <mxPoint x="710" y="1741.3600000000001" as="targetPoint" />
          </mxGeometry>
        </mxCell>
        <mxCell id="4Zit7KkpfHQfQK_u-nDv-150" value="&lt;b&gt;expofilter&lt;/b&gt;&lt;br&gt;støy reduksjon" style="rounded=1;whiteSpace=wrap;html=1;" vertex="1" parent="1">
          <mxGeometry x="710" y="1711.3600000000001" width="120" height="60" as="geometry" />
        </mxCell>
        <mxCell id="4Zit7KkpfHQfQK_u-nDv-151" value="&lt;h1&gt;sensor boom&lt;/h1&gt;&lt;span style=&quot;text-align: center&quot;&gt;4-20mA input prinsipp&lt;br&gt;parameter tilgang/ setup&amp;nbsp;på hver FB&lt;/span&gt;" style="text;html=1;strokeColor=none;fillColor=none;spacing=5;spacingTop=-20;whiteSpace=wrap;overflow=hidden;rounded=0;" vertex="1" parent="1">
          <mxGeometry x="500" y="1691.3600000000001" width="160" height="100" as="geometry" />
        </mxCell>
        <mxCell id="4Zit7KkpfHQfQK_u-nDv-152" value="&lt;b&gt;skalering&lt;br&gt;&amp;nbsp;&lt;/b&gt;analog input signaler til 0.0 - 1.0" style="rounded=1;whiteSpace=wrap;html=1;" vertex="1" parent="1">
          <mxGeometry x="880" y="1711.3600000000001" width="120" height="60" as="geometry" />
        </mxCell>
        <mxCell id="4Zit7KkpfHQfQK_u-nDv-153" value="&lt;b&gt;Kalibrering&lt;/b&gt;&lt;br&gt;Upper/lower limit med referanse til horison planet, og mappet opp total range" style="rounded=1;whiteSpace=wrap;html=1;" vertex="1" parent="1">
          <mxGeometry x="1040" y="1611.3600000000001" width="120" height="80" as="geometry" />
        </mxCell>
        <mxCell id="4Zit7KkpfHQfQK_u-nDv-154" value="signal" style="endArrow=classic;html=1;rounded=0;exitX=1;exitY=0.5;exitDx=0;exitDy=0;entryX=0;entryY=0.5;entryDx=0;entryDy=0;" edge="1" parent="1" source="4Zit7KkpfHQfQK_u-nDv-152" target="4Zit7KkpfHQfQK_u-nDv-153">
          <mxGeometry width="50" height="50" relative="1" as="geometry">
            <mxPoint x="1080" y="1661.3600000000001" as="sourcePoint" />
            <mxPoint x="1130" y="1611.3600000000001" as="targetPoint" />
          </mxGeometry>
        </mxCell>
        <mxCell id="4Zit7KkpfHQfQK_u-nDv-155" value="&lt;b&gt;quality code/&lt;br&gt;Watch dog&lt;/b&gt;" style="rounded=1;whiteSpace=wrap;html=1;" vertex="1" parent="1">
          <mxGeometry x="710" y="1601.3600000000001" width="120" height="60" as="geometry" />
        </mxCell>
        <mxCell id="4Zit7KkpfHQfQK_u-nDv-156" value="Prio 1&lt;br&gt;fault input" style="endArrow=classic;html=1;rounded=0;exitX=0.25;exitY=0;exitDx=0;exitDy=0;entryX=0.25;entryY=1;entryDx=0;entryDy=0;" edge="1" parent="1" source="4Zit7KkpfHQfQK_u-nDv-150" target="4Zit7KkpfHQfQK_u-nDv-155">
          <mxGeometry width="50" height="50" relative="1" as="geometry">
            <mxPoint x="1080" y="1631.3600000000001" as="sourcePoint" />
            <mxPoint x="1130" y="1581.3600000000001" as="targetPoint" />
          </mxGeometry>
        </mxCell>
        <mxCell id="4Zit7KkpfHQfQK_u-nDv-157" value="Prio 2&lt;br&gt;outside calibrated range" style="endArrow=classic;html=1;rounded=0;exitX=0;exitY=0.25;exitDx=0;exitDy=0;entryX=1;entryY=0.5;entryDx=0;entryDy=0;" edge="1" parent="1" source="4Zit7KkpfHQfQK_u-nDv-153" target="4Zit7KkpfHQfQK_u-nDv-155">
          <mxGeometry x="0.065" width="50" height="50" relative="1" as="geometry">
            <mxPoint x="750" y="1721.3600000000001" as="sourcePoint" />
            <mxPoint x="750" y="1683.8000000000002" as="targetPoint" />
            <mxPoint as="offset" />
          </mxGeometry>
        </mxCell>
        <mxCell id="4Zit7KkpfHQfQK_u-nDv-158" value="&lt;b&gt;Virtuel simulator&lt;br&gt;OPC UA&lt;/b&gt;" style="shape=ext;double=1;rounded=1;whiteSpace=wrap;html=1;" vertex="1" parent="1">
          <mxGeometry x="530" y="1801.3599999999997" width="120" height="80" as="geometry" />
        </mxCell>
        <mxCell id="4Zit7KkpfHQfQK_u-nDv-159" value="simulated angle&lt;br&gt;signal" style="endArrow=classic;html=1;rounded=0;exitX=1;exitY=0.5;exitDx=0;exitDy=0;entryX=0;entryY=0.75;entryDx=0;entryDy=0;" edge="1" parent="1" source="4Zit7KkpfHQfQK_u-nDv-158" target="4Zit7KkpfHQfQK_u-nDv-150">
          <mxGeometry width="50" height="50" relative="1" as="geometry">
            <mxPoint x="1030" y="1801.3599999999997" as="sourcePoint" />
            <mxPoint x="870" y="1831.3599999999997" as="targetPoint" />
          </mxGeometry>
        </mxCell>
        <mxCell id="4Zit7KkpfHQfQK_u-nDv-160" value="signal value program will use for &lt;br&gt;calculation / drive in modes&amp;nbsp;" style="shape=flexArrow;endArrow=classic;html=1;rounded=0;entryX=0.172;entryY=0.351;entryDx=0;entryDy=0;exitX=1;exitY=0.5;exitDx=0;exitDy=0;entryPerimeter=0;" edge="1" parent="1" source="4Zit7KkpfHQfQK_u-nDv-152" target="4Zit7KkpfHQfQK_u-nDv-168">
          <mxGeometry x="-0.0326" y="5" width="50" height="50" relative="1" as="geometry">
            <mxPoint x="1440" y="1851.3599999999997" as="sourcePoint" />
            <mxPoint x="1218.9300000000003" y="1868.3199999999997" as="targetPoint" />
            <mxPoint as="offset" />
          </mxGeometry>
        </mxCell>
        <mxCell id="4Zit7KkpfHQfQK_u-nDv-161" value="Parameters" style="endArrow=classic;html=1;rounded=0;entryX=0.458;entryY=0.024;entryDx=0;entryDy=0;entryPerimeter=0;exitX=1;exitY=0.75;exitDx=0;exitDy=0;" edge="1" parent="1" source="4Zit7KkpfHQfQK_u-nDv-153" target="4Zit7KkpfHQfQK_u-nDv-168">
          <mxGeometry x="-0.1605" y="8" width="50" height="50" relative="1" as="geometry">
            <mxPoint x="760" y="1981.3599999999997" as="sourcePoint" />
            <mxPoint x="1265.4800000000005" y="1835.92" as="targetPoint" />
            <mxPoint as="offset" />
          </mxGeometry>
        </mxCell>
        <mxCell id="4Zit7KkpfHQfQK_u-nDv-162" value="&lt;b&gt;HMI program/&lt;br&gt;operating screen&amp;nbsp;&lt;/b&gt;" style="ellipse;whiteSpace=wrap;html=1;" vertex="1" parent="1">
          <mxGeometry x="540" y="1586.3600000000001" width="120" height="80" as="geometry" />
        </mxCell>
        <mxCell id="4Zit7KkpfHQfQK_u-nDv-163" value="alarm" style="endArrow=classic;html=1;rounded=0;exitX=0;exitY=0.5;exitDx=0;exitDy=0;entryX=1.017;entryY=0.588;entryDx=0;entryDy=0;entryPerimeter=0;" edge="1" parent="1" source="4Zit7KkpfHQfQK_u-nDv-155" target="4Zit7KkpfHQfQK_u-nDv-162">
          <mxGeometry width="50" height="50" relative="1" as="geometry">
            <mxPoint x="760" y="1971.3599999999997" as="sourcePoint" />
            <mxPoint x="810" y="1921.3599999999997" as="targetPoint" />
          </mxGeometry>
        </mxCell>
        <mxCell id="4Zit7KkpfHQfQK_u-nDv-164" value="setup/hmi call" style="shape=flexArrow;endArrow=classic;html=1;rounded=0;entryX=1;entryY=0.25;entryDx=0;entryDy=0;" edge="1" parent="1" target="4Zit7KkpfHQfQK_u-nDv-153">
          <mxGeometry width="50" height="50" relative="1" as="geometry">
            <mxPoint x="1260" y="1631.3599999999997" as="sourcePoint" />
            <mxPoint x="1280" y="1601.3600000000001" as="targetPoint" />
          </mxGeometry>
        </mxCell>
        <mxCell id="4Zit7KkpfHQfQK_u-nDv-165" value="" style="shape=flexArrow;endArrow=classic;html=1;rounded=0;exitX=1;exitY=0.5;exitDx=0;exitDy=0;entryX=0;entryY=0.5;entryDx=0;entryDy=0;" edge="1" parent="1" source="4Zit7KkpfHQfQK_u-nDv-150" target="4Zit7KkpfHQfQK_u-nDv-152">
          <mxGeometry width="50" height="50" relative="1" as="geometry">
            <mxPoint x="760" y="2101.36" as="sourcePoint" />
            <mxPoint x="810" y="2051.36" as="targetPoint" />
          </mxGeometry>
        </mxCell>
        <mxCell id="4Zit7KkpfHQfQK_u-nDv-166" value="" style="shape=link;html=1;rounded=0;fontSize=12;" edge="1" parent="1">
          <mxGeometry width="100" relative="1" as="geometry">
            <mxPoint x="394.41" y="1360" as="sourcePoint" />
            <mxPoint x="394" y="3570" as="targetPoint" />
          </mxGeometry>
        </mxCell>
        <mxCell id="4Zit7KkpfHQfQK_u-nDv-167" value="&lt;font style=&quot;font-size: 48px&quot;&gt;Forslag1&lt;/font&gt;" style="text;html=1;strokeColor=none;fillColor=none;align=center;verticalAlign=middle;whiteSpace=wrap;rounded=0;fontSize=12;" vertex="1" parent="1">
          <mxGeometry x="480" y="1530" width="60" height="30" as="geometry" />
        </mxCell>
        <mxCell id="4Zit7KkpfHQfQK_u-nDv-168" value="Signal handling end /&lt;br&gt;further program / calculations" style="html=1;whiteSpace=wrap;aspect=fixed;shape=isoRectangle;fontSize=12;" vertex="1" parent="1">
          <mxGeometry x="1180" y="1731.3599999999997" width="210" height="126" as="geometry" />
        </mxCell>
        <mxCell id="4Zit7KkpfHQfQK_u-nDv-169" value="&lt;font style=&quot;font-size: 48px&quot;&gt;Forslag2&lt;/font&gt;" style="text;html=1;strokeColor=none;fillColor=none;align=center;verticalAlign=middle;whiteSpace=wrap;rounded=0;fontSize=12;" vertex="1" parent="1">
          <mxGeometry x="480" y="1956.36" width="60" height="30" as="geometry" />
        </mxCell>
        <mxCell id="4Zit7KkpfHQfQK_u-nDv-170" value="&lt;h1&gt;Exponential filter&lt;/h1&gt;&lt;p&gt;&lt;b&gt;Inputs:&lt;/b&gt;&lt;/p&gt;&lt;p&gt;&lt;span&gt;	&lt;/span&gt;X&lt;span&gt;		&lt;/span&gt;:&amp;nbsp; input on long real&lt;/p&gt;&lt;p&gt;&lt;span&gt;	&lt;/span&gt;XF&lt;span&gt;		&lt;/span&gt;:&amp;nbsp; Quality code from input module or calculation, on boolean&lt;span&gt;&amp;nbsp;&lt;/span&gt;&lt;/p&gt;&lt;p&gt;&lt;b&gt;Outputs:&lt;/b&gt;&lt;/p&gt;&lt;p&gt;&lt;span&gt;	&lt;/span&gt;Y&lt;span&gt;		&lt;/span&gt;:&amp;nbsp; Compensated input on long real format&lt;br&gt;&lt;/p&gt;&lt;p&gt;YDZ : In dead zone on boolean&lt;/p&gt;&lt;p&gt;&lt;span&gt;	&lt;/span&gt;YF&lt;span&gt;		&lt;/span&gt;:&amp;nbsp; Quality code for further processing, on boolean&lt;/p&gt;&lt;p&gt;&lt;b&gt;Parameters:&lt;/b&gt;&lt;/p&gt;&lt;p&gt;PEF : Enable this function block on boolean&lt;/p&gt;&lt;p&gt;&lt;span&gt;	&lt;/span&gt;PPDZ : Deadzone in % on long real&lt;br&gt;&lt;/p&gt;&lt;p&gt;PHR : Maximum range on long real&lt;/p&gt;&lt;p&gt;PDZC : Deadzone center on long real&lt;/p&gt;&lt;p&gt;PLR : Minimum range on long real&lt;/p&gt;&lt;p&gt;&lt;b&gt;Description:&lt;/b&gt;&lt;/p&gt;&lt;p&gt;words&lt;/p&gt;" style="text;html=1;strokeColor=none;fillColor=none;spacing=5;spacingTop=-20;whiteSpace=wrap;overflow=hidden;rounded=0;fontSize=12;" vertex="1" parent="1">
          <mxGeometry x="400" y="2360" width="360" height="560" as="geometry" />
        </mxCell>
        <mxCell id="4Zit7KkpfHQfQK_u-nDv-171" value="&lt;h1&gt;Scaling&lt;/h1&gt;&lt;p&gt;&lt;b&gt;Inputs:&lt;/b&gt;&lt;/p&gt;&lt;p&gt;&lt;span&gt;	&lt;/span&gt;X&lt;span&gt;		&lt;/span&gt;:&amp;nbsp; input on long real&lt;/p&gt;&lt;p&gt;&lt;span&gt;	&lt;/span&gt;XF&lt;span&gt;		&lt;/span&gt;:&amp;nbsp; Quality code from input module or calculation, on boolean&lt;span&gt;&amp;nbsp;&lt;/span&gt;&lt;/p&gt;&lt;p&gt;&lt;b&gt;Outputs:&lt;/b&gt;&lt;/p&gt;&lt;p&gt;&lt;span&gt;	&lt;/span&gt;Y&lt;span&gt;		&lt;/span&gt;:&amp;nbsp; Compensated input on long real format&lt;br&gt;&lt;/p&gt;&lt;p&gt;YDZ : In dead zone on boolean&lt;/p&gt;&lt;p&gt;&lt;span&gt;	&lt;/span&gt;YF&lt;span&gt;		&lt;/span&gt;:&amp;nbsp; Quality code for further processing, on boolean&lt;/p&gt;&lt;p&gt;&lt;b&gt;Parameters:&lt;/b&gt;&lt;/p&gt;&lt;p&gt;PEF : Enable this function block on boolean&lt;/p&gt;&lt;p&gt;&lt;span&gt;	&lt;/span&gt;PPDZ : Deadzone in % on long real&lt;br&gt;&lt;/p&gt;&lt;p&gt;PHR : Maximum range on long real&lt;/p&gt;&lt;p&gt;PDZC : Deadzone center on long real&lt;/p&gt;&lt;p&gt;PLR : Minimum range on long real&lt;/p&gt;&lt;p&gt;&lt;b&gt;Description:&lt;/b&gt;&lt;/p&gt;&lt;p&gt;words&lt;/p&gt;" style="text;html=1;strokeColor=none;fillColor=none;spacing=5;spacingTop=-20;whiteSpace=wrap;overflow=hidden;rounded=0;fontSize=12;" vertex="1" parent="1">
          <mxGeometry x="760" y="2360" width="360" height="560" as="geometry" />
        </mxCell>
        <mxCell id="4Zit7KkpfHQfQK_u-nDv-172" value="&lt;h1&gt;Exponential filter&lt;/h1&gt;&lt;p&gt;&lt;b&gt;Inputs:&lt;/b&gt;&lt;/p&gt;&lt;p&gt;&lt;span&gt;	&lt;/span&gt;X&lt;span&gt;		&lt;/span&gt;:&amp;nbsp; input on long real&lt;/p&gt;&lt;p&gt;&lt;span&gt;	&lt;/span&gt;XF&lt;span&gt;		&lt;/span&gt;:&amp;nbsp; Quality code from input module or calculation, on boolean&lt;span&gt;&amp;nbsp;&lt;/span&gt;&lt;/p&gt;&lt;p&gt;&lt;b&gt;Outputs:&lt;/b&gt;&lt;/p&gt;&lt;p&gt;&lt;span&gt;	&lt;/span&gt;Y&lt;span&gt;		&lt;/span&gt;:&amp;nbsp; Compensated input on long real format&lt;br&gt;&lt;/p&gt;&lt;p&gt;YDZ : In dead zone on boolean&lt;/p&gt;&lt;p&gt;&lt;span&gt;	&lt;/span&gt;YF&lt;span&gt;		&lt;/span&gt;:&amp;nbsp; Quality code for further processing, on boolean&lt;/p&gt;&lt;p&gt;&lt;b&gt;Parameters:&lt;/b&gt;&lt;/p&gt;&lt;p&gt;PEF : Enable this function block on boolean&lt;/p&gt;&lt;p&gt;&lt;span&gt;	&lt;/span&gt;PPDZ : Deadzone in % on long real&lt;br&gt;&lt;/p&gt;&lt;p&gt;PHR : Maximum range on long real&lt;/p&gt;&lt;p&gt;PDZC : Deadzone center on long real&lt;/p&gt;&lt;p&gt;PLR : Minimum range on long real&lt;/p&gt;&lt;p&gt;&lt;b&gt;Description:&lt;/b&gt;&lt;/p&gt;&lt;p&gt;words&lt;/p&gt;" style="text;html=1;strokeColor=none;fillColor=none;spacing=5;spacingTop=-20;whiteSpace=wrap;overflow=hidden;rounded=0;fontSize=12;" vertex="1" parent="1">
          <mxGeometry x="1120" y="2360" width="360" height="560" as="geometry" />
        </mxCell>
        <mxCell id="4Zit7KkpfHQfQK_u-nDv-175" value="Handling failed" style="endArrow=classic;html=1;rounded=0;fontSize=12;exitX=0.25;exitY=0;exitDx=0;exitDy=0;entryX=1;entryY=0.25;entryDx=0;entryDy=0;" edge="1" parent="1" source="4Zit7KkpfHQfQK_u-nDv-111" target="4Zit7KkpfHQfQK_u-nDv-113">
          <mxGeometry width="50" height="50" relative="1" as="geometry">
            <mxPoint x="911.9349999999995" y="2201.5800000000004" as="sourcePoint" />
            <mxPoint x="913.8699999999999" y="2030.6799999999998" as="targetPoint" />
          </mxGeometry>
        </mxCell>
        <mxCell id="4Zit7KkpfHQfQK_u-nDv-176" value="&lt;h1&gt;calibrating&lt;/h1&gt;&lt;p&gt;&lt;b&gt;Inputs:&lt;/b&gt;&lt;/p&gt;&lt;p&gt;&lt;span&gt;	&lt;/span&gt;X&lt;span&gt;		&lt;/span&gt;:&amp;nbsp; input on long real&lt;/p&gt;&lt;p&gt;&lt;span&gt;	&lt;/span&gt;XF&lt;span&gt;		&lt;/span&gt;:&amp;nbsp; Quality code from input module or calculation, on boolean&lt;span&gt;&amp;nbsp;&lt;/span&gt;&lt;/p&gt;&lt;p&gt;&lt;b&gt;Outputs:&lt;/b&gt;&lt;/p&gt;&lt;p&gt;&lt;span&gt;	&lt;/span&gt;Y&lt;span&gt;		&lt;/span&gt;:&amp;nbsp; Compensated input on long real format&lt;br&gt;&lt;/p&gt;&lt;p&gt;YDZ : In dead zone on boolean&lt;/p&gt;&lt;p&gt;&lt;span&gt;	&lt;/span&gt;YF&lt;span&gt;		&lt;/span&gt;:&amp;nbsp; Quality code for further processing, on boolean&lt;/p&gt;&lt;p&gt;&lt;b&gt;Parameters:&lt;/b&gt;&lt;/p&gt;&lt;p&gt;PEF : Enable this function block on boolean&lt;/p&gt;&lt;p&gt;&lt;span&gt;	&lt;/span&gt;PPDZ : Deadzone in % on long real&lt;br&gt;&lt;/p&gt;&lt;p&gt;PHR : Maximum range on long real&lt;/p&gt;&lt;p&gt;PDZC : Deadzone center on long real&lt;/p&gt;&lt;p&gt;PLR : Minimum range on long real&lt;/p&gt;&lt;p&gt;&lt;b&gt;Description:&lt;/b&gt;&lt;/p&gt;&lt;p&gt;words&lt;/p&gt;" style="text;html=1;strokeColor=none;fillColor=none;spacing=5;spacingTop=-20;whiteSpace=wrap;overflow=hidden;rounded=0;fontSize=12;" vertex="1" parent="1">
          <mxGeometry x="400" y="2920" width="360" height="560" as="geometry" />
        </mxCell>
        <mxCell id="4Zit7KkpfHQfQK_u-nDv-177" value="&lt;h1&gt;&lt;b&gt;Quality code&lt;/b&gt;&lt;/h1&gt;&lt;h1&gt;&lt;b style=&quot;font-size: 12px&quot;&gt;Inputs:&lt;/b&gt;&lt;br&gt;&lt;/h1&gt;&lt;p&gt;&lt;span&gt;	&lt;/span&gt;X&lt;span&gt;		&lt;/span&gt;:&amp;nbsp; input on long real&lt;/p&gt;&lt;p&gt;&lt;span&gt;	&lt;/span&gt;XF&lt;span&gt;		&lt;/span&gt;:&amp;nbsp; Quality code from input module or calculation, on boolean&lt;span&gt;&amp;nbsp;&lt;/span&gt;&lt;/p&gt;&lt;p&gt;&lt;b&gt;Outputs:&lt;/b&gt;&lt;/p&gt;&lt;p&gt;&lt;span&gt;	&lt;/span&gt;Y&lt;span&gt;		&lt;/span&gt;:&amp;nbsp; Compensated input on long real format&lt;br&gt;&lt;/p&gt;&lt;p&gt;YDZ : In dead zone on boolean&lt;/p&gt;&lt;p&gt;&lt;span&gt;	&lt;/span&gt;YF&lt;span&gt;		&lt;/span&gt;:&amp;nbsp; Quality code for further processing, on boolean&lt;/p&gt;&lt;p&gt;&lt;b&gt;Parameters:&lt;/b&gt;&lt;/p&gt;&lt;p&gt;PEF : Enable this function block on boolean&lt;/p&gt;&lt;p&gt;&lt;span&gt;	&lt;/span&gt;PPDZ : Deadzone in % on long real&lt;br&gt;&lt;/p&gt;&lt;p&gt;PHR : Maximum range on long real&lt;/p&gt;&lt;p&gt;PDZC : Deadzone center on long real&lt;/p&gt;&lt;p&gt;PLR : Minimum range on long real&lt;/p&gt;&lt;p&gt;&lt;b&gt;Description:&lt;/b&gt;&lt;/p&gt;&lt;p&gt;words&lt;/p&gt;" style="text;html=1;strokeColor=none;fillColor=none;spacing=5;spacingTop=-20;whiteSpace=wrap;overflow=hidden;rounded=0;fontSize=12;" vertex="1" parent="1">
          <mxGeometry x="-840" y="3480" width="360" height="560" as="geometry" />
        </mxCell>
        <mxCell id="4Zit7KkpfHQfQK_u-nDv-178" value="&lt;h1&gt;HMI program&lt;/h1&gt;&lt;p&gt;&lt;b&gt;Inputs:&lt;/b&gt;&lt;/p&gt;&lt;p&gt;&lt;span&gt;	&lt;/span&gt;X&lt;span&gt;		&lt;/span&gt;:&amp;nbsp; input on long real&lt;/p&gt;&lt;p&gt;&lt;span&gt;	&lt;/span&gt;XF&lt;span&gt;		&lt;/span&gt;:&amp;nbsp; Quality code from input module or calculation, on boolean&lt;span&gt;&amp;nbsp;&lt;/span&gt;&lt;/p&gt;&lt;p&gt;&lt;b&gt;Outputs:&lt;/b&gt;&lt;/p&gt;&lt;p&gt;&lt;span&gt;	&lt;/span&gt;Y&lt;span&gt;		&lt;/span&gt;:&amp;nbsp; Compensated input on long real format&lt;br&gt;&lt;/p&gt;&lt;p&gt;YDZ : In dead zone on boolean&lt;/p&gt;&lt;p&gt;&lt;span&gt;	&lt;/span&gt;YF&lt;span&gt;		&lt;/span&gt;:&amp;nbsp; Quality code for further processing, on boolean&lt;/p&gt;&lt;p&gt;&lt;b&gt;Parameters:&lt;/b&gt;&lt;/p&gt;&lt;p&gt;PEF : Enable this function block on boolean&lt;/p&gt;&lt;p&gt;&lt;span&gt;	&lt;/span&gt;PPDZ : Deadzone in % on long real&lt;br&gt;&lt;/p&gt;&lt;p&gt;PHR : Maximum range on long real&lt;/p&gt;&lt;p&gt;PDZC : Deadzone center on long real&lt;/p&gt;&lt;p&gt;PLR : Minimum range on long real&lt;/p&gt;&lt;p&gt;&lt;b&gt;Description:&lt;/b&gt;&lt;/p&gt;&lt;p&gt;words&lt;/p&gt;" style="text;html=1;strokeColor=none;fillColor=none;spacing=5;spacingTop=-20;whiteSpace=wrap;overflow=hidden;rounded=0;fontSize=12;" vertex="1" parent="1">
          <mxGeometry x="-480" y="3480" width="360" height="560" as="geometry" />
        </mxCell>
        <mxCell id="4Zit7KkpfHQfQK_u-nDv-179" value="" style="shape=link;html=1;rounded=0;fontSize=12;" edge="1" parent="1">
          <mxGeometry width="100" relative="1" as="geometry">
            <mxPoint x="1510.4099999999999" y="1360" as="sourcePoint" />
            <mxPoint x="1510" y="3570" as="targetPoint" />
          </mxGeometry>
        </mxCell>
        <mxCell id="4Zit7KkpfHQfQK_u-nDv-180" value="&lt;h1&gt;&lt;b&gt;Quality code&lt;/b&gt;&lt;/h1&gt;&lt;h1&gt;&lt;b style=&quot;font-size: 12px&quot;&gt;Inputs:&lt;/b&gt;&lt;br&gt;&lt;/h1&gt;&lt;p&gt;&lt;span&gt;	&lt;/span&gt;X&lt;span&gt;		&lt;/span&gt;:&amp;nbsp; input on long real&lt;/p&gt;&lt;p&gt;&lt;span&gt;	&lt;/span&gt;XF&lt;span&gt;		&lt;/span&gt;:&amp;nbsp; Quality code from input module or calculation, on boolean&lt;span&gt;&amp;nbsp;&lt;/span&gt;&lt;/p&gt;&lt;p&gt;&lt;b&gt;Outputs:&lt;/b&gt;&lt;/p&gt;&lt;p&gt;&lt;span&gt;	&lt;/span&gt;Y&lt;span&gt;		&lt;/span&gt;:&amp;nbsp; Compensated input on long real format&lt;br&gt;&lt;/p&gt;&lt;p&gt;YDZ : In dead zone on boolean&lt;/p&gt;&lt;p&gt;&lt;span&gt;	&lt;/span&gt;YF&lt;span&gt;		&lt;/span&gt;:&amp;nbsp; Quality code for further processing, on boolean&lt;/p&gt;&lt;p&gt;&lt;b&gt;Parameters:&lt;/b&gt;&lt;/p&gt;&lt;p&gt;PEF : Enable this function block on boolean&lt;/p&gt;&lt;p&gt;&lt;span&gt;	&lt;/span&gt;PPDZ : Deadzone in % on long real&lt;br&gt;&lt;/p&gt;&lt;p&gt;PHR : Maximum range on long real&lt;/p&gt;&lt;p&gt;PDZC : Deadzone center on long real&lt;/p&gt;&lt;p&gt;PLR : Minimum range on long real&lt;/p&gt;&lt;p&gt;&lt;b&gt;Description:&lt;/b&gt;&lt;/p&gt;&lt;p&gt;words&lt;/p&gt;" style="text;html=1;strokeColor=none;fillColor=none;spacing=5;spacingTop=-20;whiteSpace=wrap;overflow=hidden;rounded=0;fontSize=12;" vertex="1" parent="1">
          <mxGeometry x="760" y="2920" width="360" height="560" as="geometry" />
        </mxCell>
        <mxCell id="4Zit7KkpfHQfQK_u-nDv-181" value="&lt;h1&gt;HMI program&lt;/h1&gt;&lt;p&gt;&lt;b&gt;Inputs:&lt;/b&gt;&lt;/p&gt;&lt;p&gt;&lt;span&gt;	&lt;/span&gt;X&lt;span&gt;		&lt;/span&gt;:&amp;nbsp; input on long real&lt;/p&gt;&lt;p&gt;&lt;span&gt;	&lt;/span&gt;XF&lt;span&gt;		&lt;/span&gt;:&amp;nbsp; Quality code from input module or calculation, on boolean&lt;span&gt;&amp;nbsp;&lt;/span&gt;&lt;/p&gt;&lt;p&gt;&lt;b&gt;Outputs:&lt;/b&gt;&lt;/p&gt;&lt;p&gt;&lt;span&gt;	&lt;/span&gt;Y&lt;span&gt;		&lt;/span&gt;:&amp;nbsp; Compensated input on long real format&lt;br&gt;&lt;/p&gt;&lt;p&gt;YDZ : In dead zone on boolean&lt;/p&gt;&lt;p&gt;&lt;span&gt;	&lt;/span&gt;YF&lt;span&gt;		&lt;/span&gt;:&amp;nbsp; Quality code for further processing, on boolean&lt;/p&gt;&lt;p&gt;&lt;b&gt;Parameters:&lt;/b&gt;&lt;/p&gt;&lt;p&gt;PEF : Enable this function block on boolean&lt;/p&gt;&lt;p&gt;&lt;span&gt;	&lt;/span&gt;PPDZ : Deadzone in % on long real&lt;br&gt;&lt;/p&gt;&lt;p&gt;PHR : Maximum range on long real&lt;/p&gt;&lt;p&gt;PDZC : Deadzone center on long real&lt;/p&gt;&lt;p&gt;PLR : Minimum range on long real&lt;/p&gt;&lt;p&gt;&lt;b&gt;Description:&lt;/b&gt;&lt;/p&gt;&lt;p&gt;words&lt;/p&gt;" style="text;html=1;strokeColor=none;fillColor=none;spacing=5;spacingTop=-20;whiteSpace=wrap;overflow=hidden;rounded=0;fontSize=12;" vertex="1" parent="1">
          <mxGeometry x="1120" y="2920" width="360" height="560" as="geometry" />
        </mxCell>
        <mxCell id="4Zit7KkpfHQfQK_u-nDv-182" value="&lt;h1&gt;Basic sensor signal handling for joint who revolute&lt;/h1&gt;&lt;p&gt;vinkel givere som er av absolute encodere (teller selv om offline), disse sender PDO som må pakkes ut.&lt;br&gt;&lt;/p&gt;&lt;p&gt;kalibrering referansepunkt, (parkert eller rett fram mot bauen av båten&lt;span&gt;) av turnlimits, max CW/CCW, teller oppover ved kjøring mot CCW selv om encoder verdien vil minker i verdi&lt;br&gt;visualisering av grader, beregning i radianer&lt;/span&gt;&lt;/p&gt;&lt;p&gt;&lt;span&gt;expected joints: Swing, Twist, Winch&lt;/span&gt;&lt;/p&gt;&lt;p&gt;&lt;span&gt;winch will have other parameter during calibrating, but not looked on here&lt;/span&gt;&lt;/p&gt;" style="text;html=1;strokeColor=none;fillColor=none;spacing=5;spacingTop=-20;whiteSpace=wrap;overflow=hidden;rounded=0;" vertex="1" parent="1">
          <mxGeometry x="1730" y="1361.36" width="560" height="240" as="geometry" />
        </mxCell>
        <mxCell id="4Zit7KkpfHQfQK_u-nDv-183" value="" style="shape=link;html=1;rounded=0;fontSize=12;" edge="1" parent="1">
          <mxGeometry width="100" relative="1" as="geometry">
            <mxPoint x="2511" y="1360" as="sourcePoint" />
            <mxPoint x="-850" y="1360" as="targetPoint" />
          </mxGeometry>
        </mxCell>
        <mxCell id="4Zit7KkpfHQfQK_u-nDv-184" value="utpakking av absolute multiturn encoder (PDO)" style="ellipse;whiteSpace=wrap;html=1;" vertex="1" parent="1">
          <mxGeometry x="1605" y="1848.86" width="130" height="90" as="geometry" />
        </mxCell>
        <mxCell id="4Zit7KkpfHQfQK_u-nDv-185" value="data" style="shape=flexArrow;endArrow=classic;html=1;rounded=0;exitX=1;exitY=0.5;exitDx=0;exitDy=0;entryX=0;entryY=0.5;entryDx=0;entryDy=0;" edge="1" parent="1" source="4Zit7KkpfHQfQK_u-nDv-184" target="4Zit7KkpfHQfQK_u-nDv-192">
          <mxGeometry width="50" height="50" relative="1" as="geometry">
            <mxPoint x="1815" y="1861.3600000000001" as="sourcePoint" />
            <mxPoint x="1775" y="1846.3600000000001" as="targetPoint" />
          </mxGeometry>
        </mxCell>
        <mxCell id="4Zit7KkpfHQfQK_u-nDv-199" value="Parameters" style="edgeStyle=orthogonalEdgeStyle;rounded=0;orthogonalLoop=1;jettySize=auto;html=1;exitX=0.75;exitY=0;exitDx=0;exitDy=0;entryX=0.75;entryY=0;entryDx=0;entryDy=0;fontSize=12;" edge="1" parent="1" source="4Zit7KkpfHQfQK_u-nDv-186" target="4Zit7KkpfHQfQK_u-nDv-190">
          <mxGeometry relative="1" as="geometry">
            <Array as="points">
              <mxPoint x="2310" y="1580" />
              <mxPoint x="1722" y="1580" />
            </Array>
          </mxGeometry>
        </mxCell>
        <mxCell id="4Zit7KkpfHQfQK_u-nDv-186" value="&lt;b&gt;Calibrating&lt;/b&gt;&lt;br&gt;referansepunkt.&lt;b&gt;&amp;nbsp; &lt;br&gt;E&lt;/b&gt;ndpoints&lt;br&gt;for CW/CCW. &lt;br&gt;Har et&amp;nbsp;&lt;br&gt;Også ønsket total turn count" style="rounded=1;whiteSpace=wrap;html=1;" vertex="1" parent="1">
          <mxGeometry x="2220" y="1721.3600000000001" width="120" height="100" as="geometry" />
        </mxCell>
        <mxCell id="4Zit7KkpfHQfQK_u-nDv-200" value="Parameters" style="edgeStyle=orthogonalEdgeStyle;rounded=0;orthogonalLoop=1;jettySize=auto;html=1;exitX=0.25;exitY=1;exitDx=0;exitDy=0;entryX=1;entryY=0.5;entryDx=0;entryDy=0;fontSize=12;" edge="1" parent="1" source="4Zit7KkpfHQfQK_u-nDv-188" target="4Zit7KkpfHQfQK_u-nDv-190">
          <mxGeometry relative="1" as="geometry" />
        </mxCell>
        <mxCell id="4Zit7KkpfHQfQK_u-nDv-188" value="&lt;b&gt;ledd utveksning&lt;/b&gt;,&lt;br&gt;runed once by setup" style="rounded=1;whiteSpace=wrap;html=1;" vertex="1" parent="1">
          <mxGeometry x="1760" y="1650.0000000000002" width="120" height="45" as="geometry" />
        </mxCell>
        <mxCell id="4Zit7KkpfHQfQK_u-nDv-189" value="&lt;h1&gt;sensor swing&lt;/h1&gt;&lt;p&gt;encoder på swing, sender PDO som er mappet og må utpakkes,&amp;nbsp;&amp;nbsp;&lt;/p&gt;" style="text;html=1;strokeColor=none;fillColor=none;spacing=5;spacingTop=-20;whiteSpace=wrap;overflow=hidden;rounded=0;" vertex="1" parent="1">
          <mxGeometry x="1515" y="1680.0000000000002" width="190" height="120" as="geometry" />
        </mxCell>
        <mxCell id="4Zit7KkpfHQfQK_u-nDv-190" value="&lt;b&gt;Virtuel simulator&lt;br&gt;OPC UA&lt;/b&gt;" style="shape=ext;double=1;rounded=1;whiteSpace=wrap;html=1;" vertex="1" parent="1">
          <mxGeometry x="1640" y="1768.8599999999997" width="110" height="50" as="geometry" />
        </mxCell>
        <mxCell id="4Zit7KkpfHQfQK_u-nDv-211" value="Alarm prio 1&lt;br&gt;fault sensor&lt;br&gt;offline or coms error" style="edgeStyle=orthogonalEdgeStyle;rounded=0;orthogonalLoop=1;jettySize=auto;html=1;exitX=0.5;exitY=0;exitDx=0;exitDy=0;entryX=0;entryY=0.25;entryDx=0;entryDy=0;fontSize=12;" edge="1" parent="1" source="4Zit7KkpfHQfQK_u-nDv-192" target="4Zit7KkpfHQfQK_u-nDv-201">
          <mxGeometry x="0.3142" y="-9" relative="1" as="geometry">
            <mxPoint as="offset" />
          </mxGeometry>
        </mxCell>
        <mxCell id="4Zit7KkpfHQfQK_u-nDv-192" value="&lt;b&gt;Reference&lt;br&gt;&amp;nbsp;&lt;/b&gt;analog input verdier som beregning tilsvarende grader:&lt;br&gt;X = 1grad" style="rounded=1;whiteSpace=wrap;html=1;" vertex="1" parent="1">
          <mxGeometry x="1820" y="1848.8600000000001" width="140" height="85" as="geometry" />
        </mxCell>
        <mxCell id="4Zit7KkpfHQfQK_u-nDv-193" value="simulated angle&lt;br&gt;signal" style="endArrow=classic;html=1;rounded=0;exitX=1;exitY=1;exitDx=0;exitDy=0;entryX=0;entryY=0.5;entryDx=0;entryDy=0;" edge="1" parent="1" source="4Zit7KkpfHQfQK_u-nDv-190" target="4Zit7KkpfHQfQK_u-nDv-192">
          <mxGeometry width="50" height="50" relative="1" as="geometry">
            <mxPoint x="1800" y="1961.3600000000001" as="sourcePoint" />
            <mxPoint x="1775" y="1846.3600000000001" as="targetPoint" />
          </mxGeometry>
        </mxCell>
        <mxCell id="4Zit7KkpfHQfQK_u-nDv-194" value="Parameters" style="endArrow=classic;html=1;rounded=0;entryX=0.503;entryY=0.034;entryDx=0;entryDy=0;exitX=0.5;exitY=1;exitDx=0;exitDy=0;entryPerimeter=0;" edge="1" parent="1" source="4Zit7KkpfHQfQK_u-nDv-186" target="4Zit7KkpfHQfQK_u-nDv-198">
          <mxGeometry x="-0.1605" y="8" width="50" height="50" relative="1" as="geometry">
            <mxPoint x="2260" y="1466.3600000000001" as="sourcePoint" />
            <mxPoint x="2170" y="1873.8600000000001" as="targetPoint" />
            <mxPoint as="offset" />
          </mxGeometry>
        </mxCell>
        <mxCell id="4Zit7KkpfHQfQK_u-nDv-195" value="signal value program will use for &lt;br&gt;calculation / drive in modes&amp;nbsp;" style="shape=flexArrow;endArrow=classic;html=1;rounded=0;entryX=0.012;entryY=0.512;entryDx=0;entryDy=0;exitX=1;exitY=0.5;exitDx=0;exitDy=0;entryPerimeter=0;" edge="1" parent="1" source="4Zit7KkpfHQfQK_u-nDv-192" target="4Zit7KkpfHQfQK_u-nDv-198">
          <mxGeometry x="-0.0326" y="5" width="50" height="50" relative="1" as="geometry">
            <mxPoint x="2110" y="1391.3600000000001" as="sourcePoint" />
            <mxPoint x="2170" y="1891.3600000000001" as="targetPoint" />
            <mxPoint as="offset" />
          </mxGeometry>
        </mxCell>
        <mxCell id="4Zit7KkpfHQfQK_u-nDv-196" value="signal" style="endArrow=classic;html=1;rounded=0;entryX=0;entryY=1;entryDx=0;entryDy=0;exitX=1;exitY=0.25;exitDx=0;exitDy=0;" edge="1" parent="1" source="4Zit7KkpfHQfQK_u-nDv-192" target="4Zit7KkpfHQfQK_u-nDv-186">
          <mxGeometry width="50" height="50" relative="1" as="geometry">
            <mxPoint x="1970" y="2251.36" as="sourcePoint" />
            <mxPoint x="2020" y="2176.36" as="targetPoint" />
          </mxGeometry>
        </mxCell>
        <mxCell id="4Zit7KkpfHQfQK_u-nDv-198" value="Signal handling end /&lt;br&gt;further program / calculations" style="html=1;whiteSpace=wrap;aspect=fixed;shape=isoRectangle;fontSize=12;" vertex="1" parent="1">
          <mxGeometry x="2175" y="1880.3599999999997" width="210" height="126" as="geometry" />
        </mxCell>
        <mxCell id="4Zit7KkpfHQfQK_u-nDv-201" value="&lt;b&gt;quality code/&lt;br&gt;Watch dog&lt;/b&gt;" style="rounded=1;whiteSpace=wrap;html=1;" vertex="1" parent="1">
          <mxGeometry x="2090" y="1596.3600000000001" width="120" height="60" as="geometry" />
        </mxCell>
        <mxCell id="4Zit7KkpfHQfQK_u-nDv-202" value="&lt;b&gt;HMI program/&lt;br&gt;operating screen&amp;nbsp;&lt;/b&gt;" style="ellipse;whiteSpace=wrap;html=1;" vertex="1" parent="1">
          <mxGeometry x="1950" y="1700.0000000000005" width="120" height="80" as="geometry" />
        </mxCell>
        <mxCell id="4Zit7KkpfHQfQK_u-nDv-203" value="alarm&lt;br&gt;noticeable&lt;br&gt;feedback" style="endArrow=classic;html=1;rounded=0;entryX=0.5;entryY=0;entryDx=0;entryDy=0;exitX=0;exitY=0.5;exitDx=0;exitDy=0;" edge="1" parent="1" source="4Zit7KkpfHQfQK_u-nDv-201" target="4Zit7KkpfHQfQK_u-nDv-202">
          <mxGeometry width="50" height="50" relative="1" as="geometry">
            <mxPoint x="1823.87" y="1850.6799999999998" as="sourcePoint" />
            <mxPoint x="1803.87" y="2139.54" as="targetPoint" />
          </mxGeometry>
        </mxCell>
        <mxCell id="4Zit7KkpfHQfQK_u-nDv-204" value="signal" style="endArrow=classic;html=1;rounded=0;entryX=0;entryY=1;entryDx=0;entryDy=0;exitX=0.75;exitY=0;exitDx=0;exitDy=0;" edge="1" parent="1" source="4Zit7KkpfHQfQK_u-nDv-192" target="4Zit7KkpfHQfQK_u-nDv-202">
          <mxGeometry width="50" height="50" relative="1" as="geometry">
            <mxPoint x="1970" y="1880.1100000000001" as="sourcePoint" />
            <mxPoint x="2230" y="1831.3600000000001" as="targetPoint" />
          </mxGeometry>
        </mxCell>
        <mxCell id="4Zit7KkpfHQfQK_u-nDv-206" value="Parameters" style="endArrow=classic;html=1;rounded=0;fontSize=12;exitX=0.75;exitY=1;exitDx=0;exitDy=0;entryX=0.25;entryY=0;entryDx=0;entryDy=0;" edge="1" parent="1" source="4Zit7KkpfHQfQK_u-nDv-188" target="4Zit7KkpfHQfQK_u-nDv-192">
          <mxGeometry width="50" height="50" relative="1" as="geometry">
            <mxPoint x="1620" y="1840" as="sourcePoint" />
            <mxPoint x="1670" y="1790" as="targetPoint" />
          </mxGeometry>
        </mxCell>
        <mxCell id="4Zit7KkpfHQfQK_u-nDv-207" value="HMI call / setup" style="endArrow=classic;html=1;rounded=0;fontSize=12;exitX=1;exitY=1;exitDx=0;exitDy=0;entryX=0;entryY=0.5;entryDx=0;entryDy=0;" edge="1" parent="1" source="4Zit7KkpfHQfQK_u-nDv-202" target="4Zit7KkpfHQfQK_u-nDv-186">
          <mxGeometry width="50" height="50" relative="1" as="geometry">
            <mxPoint x="1620" y="1840" as="sourcePoint" />
            <mxPoint x="2210" y="1760" as="targetPoint" />
          </mxGeometry>
        </mxCell>
        <mxCell id="4Zit7KkpfHQfQK_u-nDv-208" value="Handling&lt;br&gt;failed" style="endArrow=classic;html=1;rounded=0;fontSize=12;exitX=0.5;exitY=0;exitDx=0;exitDy=0;entryX=1;entryY=0.5;entryDx=0;entryDy=0;" edge="1" parent="1" source="4Zit7KkpfHQfQK_u-nDv-186" target="4Zit7KkpfHQfQK_u-nDv-201">
          <mxGeometry width="50" height="50" relative="1" as="geometry">
            <mxPoint x="1620" y="1840" as="sourcePoint" />
            <mxPoint x="1670" y="1790" as="targetPoint" />
          </mxGeometry>
        </mxCell>
        <mxCell id="4Zit7KkpfHQfQK_u-nDv-209" value="Alarm Prio 2&lt;br&gt;outside calibrated range" style="endArrow=classic;html=1;rounded=0;exitX=0;exitY=0.25;exitDx=0;exitDy=0;entryX=0.5;entryY=1;entryDx=0;entryDy=0;" edge="1" parent="1" source="4Zit7KkpfHQfQK_u-nDv-186" target="4Zit7KkpfHQfQK_u-nDv-201">
          <mxGeometry x="0.065" width="50" height="50" relative="1" as="geometry">
            <mxPoint x="1200" y="2092.04" as="sourcePoint" />
            <mxPoint x="1000" y="2016.3600000000001" as="targetPoint" />
            <mxPoint as="offset" />
          </mxGeometry>
        </mxCell>
      </root>
    </mxGraphModel>
  </diagram>
</mxfile>
